<svg width="166" height="166" viewBox="0 0 166 166" fill="none" xmlns="http://www.w3.org/2000/svg">
<mask id="path-1-inside-1_1246_607" fill="white">
<path fill-rule="evenodd" clip-rule="evenodd" d="M83 166C128.84 166 166 128.84 166 83C166 78.9755 165.714 75.0179 165.16 71.1465C160.328 100.006 135.233 122 105 122C71.3106 122 44 94.6894 44 61C44 30.7675 65.9935 5.67182 94.8535 0.840024C90.9821 0.286433 87.0245 0 83 0C37.1604 0 0 37.1604 0 83C0 128.84 37.1604 166 83 166Z"/>
</mask>
<path fill-rule="evenodd" clip-rule="evenodd" d="M83 166C128.84 166 166 128.84 166 83C166 78.9755 165.714 75.0179 165.16 71.1465C160.328 100.006 135.233 122 105 122C71.3106 122 44 94.6894 44 61C44 30.7675 65.9935 5.67182 94.8535 0.840024C90.9821 0.286433 87.0245 0 83 0C37.1604 0 0 37.1604 0 83C0 128.84 37.1604 166 83 166Z" fill="url(#paint0_radial_1246_607)"/>
<path d="M165.16 71.1465L170.11 70.4387C169.761 67.9981 167.685 66.1762 165.22 66.1468C162.754 66.1174 160.636 67.8893 160.229 70.3208L165.16 71.1465ZM94.8535 0.840024L95.6792 5.77139C98.1107 5.3643 99.8826 3.2456 99.8532 0.780396C99.8238 -1.68481 98.0019 -3.76064 95.5613 -4.10963L94.8535 0.840024ZM161 83C161 126.078 126.078 161 83 161V171C131.601 171 171 131.601 171 83H161ZM160.21 71.8542C160.73 75.4919 161 79.213 161 83H171C171 78.7379 170.697 74.5438 170.11 70.4387L160.21 71.8542ZM160.229 70.3208C155.793 96.8115 132.749 117 105 117V127C137.716 127 164.863 103.201 170.091 71.9721L160.229 70.3208ZM105 117C74.0721 117 49 91.9279 49 61H39C39 97.4508 68.5492 127 105 127V117ZM49 61C49 33.2505 69.1885 10.2065 95.6792 5.77139L94.0279 -4.09134C62.7985 1.13715 39 28.2844 39 61H49ZM83 5C86.787 5 90.5081 5.26951 94.1458 5.78968L95.5613 -4.10963C91.4562 -4.69664 87.262 -5 83 -5V5ZM5 83C5 39.9218 39.9218 5 83 5V-5C34.3989 -5 -5 34.3989 -5 83H5ZM83 161C39.9218 161 5 126.078 5 83H-5C-5 131.601 34.3989 171 83 171V161Z" fill="black" mask="url(#path-1-inside-1_1246_607)"/>
<defs>
<radialGradient id="paint0_radial_1246_607" cx="0" cy="0" r="1" gradientUnits="userSpaceOnUse" gradientTransform="translate(116.402 42.9171) rotate(127.112) scale(141.334)">
<stop stop-color="white"/>
<stop offset="1" stop-color="#FFD84F"/>
</radialGradient>
</defs>
</svg>
