<svg width="100" height="100" viewBox="0 0 100 100" fill="none" xmlns="http://www.w3.org/2000/svg">
    <rect opacity="0.0229128" x="0.5" y="0.5" width="99" height="99" stroke="#2B2B2B" />
    <path fill-rule="evenodd" clip-rule="evenodd" d="M50.5778 35.0601C59.2094 35.0667 66.2007 42.0673 66.194 50.6967C66.1873 59.326 59.185 66.3154 50.5533 66.3088C41.9216 66.3021 34.9303 59.3016 34.937 50.6722C34.9437 42.0428 41.9461 35.0534 50.5778 35.0601Z" fill="#F9C900" />
    <path fill-rule="evenodd" clip-rule="evenodd" d="M46.8508 71.5247C46.8508 71.7117 46.8264 71.903 46.7752 72.0922L44.1821 81.7385C43.8683 82.9067 42.6663 83.601 41.4978 83.2872C40.3292 82.9735 39.6348 81.7719 39.9508 80.6014L42.5439 70.9551C42.8577 69.7868 44.0597 69.0948 45.2282 69.4086C46.2076 69.6711 46.8508 70.5568 46.8508 71.5247Z" fill="#F9C900" />
    <path fill-rule="evenodd" clip-rule="evenodd" d="M35.9945 67.5643C35.9945 68.154 35.7564 68.7437 35.289 69.1754L27.9416 75.9423C27.0513 76.7634 25.6646 76.7055 24.8455 75.8154C24.0242 74.9276 24.0798 73.5413 24.9701 72.7201L32.3175 65.951C33.2078 65.1322 34.5945 65.19 35.4136 66.0779C35.8031 66.5007 35.9945 67.0325 35.9945 67.5643Z" fill="#F9C900" />
    <path fill-rule="evenodd" clip-rule="evenodd" d="M30.0562 56.9286C30.0562 57.9032 29.3996 58.7911 28.4136 59.047L18.7402 61.5459C17.5672 61.8485 16.372 61.1454 16.0693 59.9727C15.7666 58.8022 16.4699 57.6073 17.6429 57.3046L27.3163 54.8035C28.4871 54.5009 29.6823 55.2063 29.985 56.3767C30.034 56.5614 30.0562 56.7461 30.0562 56.9286Z" fill="#F9C900" />
    <path fill-rule="evenodd" clip-rule="evenodd" d="M30.364 44.6558C30.364 44.8361 30.3417 45.0185 30.295 45.201C29.9923 46.3737 28.797 47.0791 27.6262 46.7765L17.9507 44.2864C16.7777 43.986 16.0721 42.7911 16.3748 41.6206C16.6753 40.448 17.8705 39.7426 19.0435 40.0452L28.7191 42.5352C29.7074 42.7889 30.364 43.679 30.364 44.6558Z" fill="#F9C900" />
    <path fill-rule="evenodd" clip-rule="evenodd" d="M35.9401 33.9891C35.9401 34.5365 35.7353 35.0861 35.3236 35.5112C34.4822 36.379 33.0933 36.4035 32.2252 35.5601L25.047 28.613C24.179 27.7719 24.1545 26.3833 24.998 25.5155C25.8394 24.6454 27.2261 24.6232 28.0964 25.4643L35.2724 32.4137C35.7175 32.8431 35.9401 33.415 35.9401 33.9891Z" fill="#F9C900" />
    <path fill-rule="evenodd" clip-rule="evenodd" d="M46.12 27.8985C46.12 28.8776 45.4567 29.7699 44.464 30.0191C43.291 30.3151 42.1002 29.603 41.8042 28.4303L39.3624 18.744C39.0664 17.5691 39.7787 16.3808 40.9517 16.0848C42.1247 15.7889 43.3155 16.501 43.6115 17.6736L46.0532 27.36C46.0977 27.5402 46.12 27.7205 46.12 27.8985Z" fill="#F9C900" />
    <path fill-rule="evenodd" clip-rule="evenodd" d="M60.7891 18.9263C60.7891 19.111 60.7646 19.298 60.7157 19.4826L58.176 29.1445C57.8689 30.3128 56.6714 31.0137 55.5006 30.7044C54.3298 30.3973 53.6309 29.1979 53.9381 28.0297L56.4777 18.37C56.7849 17.1996 57.9846 16.5009 59.1554 16.8079C60.1392 17.0661 60.7891 17.9539 60.7891 18.9263Z" fill="#F9C900" />
    <path fill-rule="evenodd" clip-rule="evenodd" d="M76.678 27.267C76.678 27.8789 76.422 28.4864 75.9257 28.9181L68.3869 35.4758C67.4743 36.268 66.0898 36.1723 65.2952 35.26C64.5006 34.3476 64.5963 32.9635 65.5111 32.1691L73.0477 25.6137C73.9625 24.8193 75.3448 24.9149 76.1394 25.8273C76.5022 26.2434 76.678 26.7574 76.678 27.267Z" fill="#F9C900" />
    <path fill-rule="evenodd" clip-rule="evenodd" d="M84.4471 41.8865C84.4471 42.8478 83.8083 43.7289 82.8357 43.996L73.2001 46.6395C72.0338 46.9599 70.8274 46.2724 70.5069 45.1063C70.1864 43.9381 70.8742 42.7343 72.0405 42.4138L81.676 39.7703C82.8423 39.4521 84.0487 40.1374 84.3692 41.3035C84.4227 41.4993 84.4471 41.6951 84.4471 41.8865Z" fill="#F9C900" />
    <path fill-rule="evenodd" clip-rule="evenodd" d="M84.2815 58.9652C84.2815 59.1454 84.2592 59.3279 84.2125 59.5103C83.9098 60.683 82.7145 61.3884 81.5437 61.0858L71.8681 58.5958C70.6951 58.2954 69.9896 57.1004 70.2923 55.93C70.5928 54.7573 71.788 54.0519 72.961 54.3545L82.6366 56.8445C83.6249 57.0982 84.2815 57.9883 84.2815 58.9652Z" fill="#F9C900" />
    <path fill-rule="evenodd" clip-rule="evenodd" d="M76.099 74.0064C76.099 74.5738 75.8786 75.1435 75.4401 75.5707C74.5743 76.4163 73.1876 76.4007 72.3418 75.5351L65.3572 68.3944C64.5114 67.5288 64.5248 66.1425 65.3906 65.2969C66.2565 64.4513 67.6431 64.4669 68.4889 65.3303L75.4735 72.4732C75.892 72.9005 76.099 73.4523 76.099 74.0064Z" fill="#F9C900" />
    <path fill-rule="evenodd" clip-rule="evenodd" d="M61.0139 82.0848C61.0139 83.0506 60.3684 83.934 59.3913 84.1965C58.2228 84.5125 57.0208 83.8205 56.707 82.6522L54.1073 73.0082C53.7912 71.8399 54.4834 70.6361 55.652 70.3223C56.8205 70.0063 58.0224 70.6984 58.3385 71.8666L60.9383 81.5129C60.9894 81.7043 61.0139 81.8957 61.0139 82.0848Z" fill="#F9C900" />
</svg>
    