<svg width="180" height="168" viewBox="0 0 180 168" fill="none" xmlns="http://www.w3.org/2000/svg">
<mask id="path-1-inside-1_1246_561" fill="white">
<path fill-rule="evenodd" clip-rule="evenodd" d="M127.645 102.859C156.048 102.859 179.074 79.8335 179.074 51.4297C179.074 48.9352 178.897 46.4822 178.553 44.0827C175.56 61.9664 160.01 75.5954 141.276 75.5954C120.401 75.5954 103.478 58.6728 103.478 37.7977C103.478 19.0645 117.106 3.51428 134.989 0.520458C132.59 0.177466 130.138 0 127.645 0C99.2407 0 76.2148 23.0258 76.2148 51.4297C76.2148 79.8335 99.2407 102.859 127.645 102.859Z"/>
</mask>
<path fill-rule="evenodd" clip-rule="evenodd" d="M127.645 102.859C156.048 102.859 179.074 79.8335 179.074 51.4297C179.074 48.9352 178.897 46.4822 178.553 44.0827C175.56 61.9664 160.01 75.5954 141.276 75.5954C120.401 75.5954 103.478 58.6728 103.478 37.7977C103.478 19.0645 117.106 3.51428 134.989 0.520458C132.59 0.177466 130.138 0 127.645 0C99.2407 0 76.2148 23.0258 76.2148 51.4297C76.2148 79.8335 99.2407 102.859 127.645 102.859Z" fill="url(#paint0_radial_1246_561)"/>
<path d="M178.553 44.0827L183.503 43.3747L173.622 43.2573L178.553 44.0827ZM134.989 0.520458L135.815 5.45183L135.697 -4.4292L134.989 0.520458ZM174.074 51.4297C174.074 77.072 153.287 97.8593 127.645 97.8593V107.859C158.81 107.859 184.074 82.5949 184.074 51.4297H174.074ZM173.604 44.7907C173.914 46.9564 174.074 49.1728 174.074 51.4297H184.074C184.074 48.6976 183.88 46.008 183.503 43.3747L173.604 44.7907ZM173.622 43.2573C171.025 58.7715 157.527 70.5954 141.276 70.5954V80.5954C162.493 80.5954 180.095 65.1612 183.485 44.908L173.622 43.2573ZM141.276 70.5954C123.162 70.5954 108.478 55.9114 108.478 37.7977H98.4781C98.4781 61.4342 117.639 80.5954 141.276 80.5954V70.5954ZM108.478 37.7977C108.478 21.5475 120.301 8.04898 135.815 5.45183L134.163 -4.41091C113.911 -1.02042 98.4781 16.5814 98.4781 37.7977H108.478ZM127.645 5C129.901 5 132.116 5.16054 134.281 5.47012L135.697 -4.4292C133.064 -4.80561 130.376 -5 127.645 -5V5ZM81.2148 51.4297C81.2148 25.7873 102.002 5 127.645 5V-5C96.4793 -5 71.2148 20.2644 71.2148 51.4297H81.2148ZM127.645 97.8593C102.002 97.8593 81.2148 77.072 81.2148 51.4297H71.2148C71.2148 82.5949 96.4793 107.859 127.645 107.859V97.8593Z" fill="black" mask="url(#path-1-inside-1_1246_561)"/>
<path d="M31.5988 92.41L33.1108 92.0974L33.5084 90.6055C39.3255 68.777 59.2794 52.6895 83 52.6895C109.819 52.6895 131.816 73.2521 134.024 99.4197L134.192 101.415L136.176 101.686C151.615 103.801 163.5 117.013 163.5 132.982C163.5 150.424 149.324 164.573 131.824 164.573H85.4412H39.0588C18.862 164.573 2.5 148.243 2.5 128.112C2.5 110.531 14.9809 95.8448 31.5988 92.41Z" fill="url(#paint1_linear_1246_561)" stroke="black" stroke-width="5"/>
<defs>
<radialGradient id="paint0_radial_1246_561" cx="0" cy="0" r="1" gradientUnits="userSpaceOnUse" gradientTransform="translate(148.342 26.5929) rotate(127.112) scale(87.5755)">
<stop stop-color="white"/>
<stop offset="1" stop-color="#FFD84F"/>
</radialGradient>
<linearGradient id="paint1_linear_1246_561" x1="0" y1="50.1895" x2="168.523" y2="163.314" gradientUnits="userSpaceOnUse">
<stop stop-color="white" stop-opacity="0.9"/>
<stop offset="0.0001" stop-color="#F5F5F5"/>
<stop offset="1" stop-color="white"/>
</linearGradient>
</defs>
</svg>
