<svg width="166" height="162" viewBox="0 0 166 162" fill="none" xmlns="http://www.w3.org/2000/svg">
<path d="M166.001 51.603C166.001 80.1025 142.897 103.206 114.398 103.206C85.8984 103.206 62.7949 80.1025 62.7949 51.603C62.7949 23.1034 85.8984 0 114.398 0C142.897 0 166.001 23.1034 166.001 51.603Z" fill="url(#paint0_radial_1196_765)"/>
<path d="M31.1939 85.0256L31.4963 84.9631L31.5759 84.6647C37.6213 61.9795 58.3537 45.2637 83 45.2637C110.863 45.2637 133.722 66.6271 136.017 93.8258L136.05 94.2249L136.447 94.2792C152.859 96.5266 165.5 110.57 165.5 127.556C165.5 146.107 150.424 161.148 131.824 161.148H85.4412H39.0588C17.7622 161.148 0.5 143.927 0.5 122.686C0.5 104.134 13.6693 88.6479 31.1939 85.0256Z" fill="url(#paint1_linear_1196_765)" stroke="white"/>
<defs>
<radialGradient id="paint0_radial_1196_765" cx="0" cy="0" r="1" gradientUnits="userSpaceOnUse" gradientTransform="translate(135.165 26.6825) rotate(127.112) scale(87.8706 87.8706)">
<stop stop-color="#FFD600"/>
<stop offset="1" stop-color="#FF984D"/>
</radialGradient>
<linearGradient id="paint1_linear_1196_765" x1="0" y1="44.7637" x2="168.523" y2="157.889" gradientUnits="userSpaceOnUse">
<stop stop-color="white" stop-opacity="0.9"/>
<stop offset="0.0001" stop-color="white"/>
<stop offset="1" stop-color="white" stop-opacity="0.69"/>
</linearGradient>
</defs>
</svg>
