<svg width="166" height="162" viewBox="0 0 166 162" fill="none" xmlns="http://www.w3.org/2000/svg">
<path d="M163.501 51.603C163.501 78.7218 141.517 100.706 114.398 100.706C87.2791 100.706 65.2949 78.7218 65.2949 51.603C65.2949 24.4842 87.2791 2.5 114.398 2.5C141.517 2.5 163.501 24.4842 163.501 51.603Z" fill="url(#paint0_radial_1246_553)" stroke="black" stroke-width="5"/>
<path d="M31.5988 86.9842L33.1108 86.6716L33.5084 85.1797C39.3255 63.3512 59.2794 47.2637 83 47.2637C109.819 47.2637 131.816 67.8263 134.024 93.9939L134.192 95.9891L136.176 96.2607C151.615 98.3748 163.5 111.587 163.5 127.556C163.5 144.998 149.324 159.148 131.824 159.148H85.4412H39.0588C18.862 159.148 2.5 142.817 2.5 122.686C2.5 105.105 14.9809 90.419 31.5988 86.9842Z" fill="url(#paint1_linear_1246_553)" stroke="black" stroke-width="5"/>
<defs>
<radialGradient id="paint0_radial_1246_553" cx="0" cy="0" r="1" gradientUnits="userSpaceOnUse" gradientTransform="translate(135.165 26.6825) rotate(127.112) scale(87.8706 87.8706)">
<stop stop-color="#FFC700"/>
<stop offset="1" stop-color="#FF6B00"/>
</radialGradient>
<linearGradient id="paint1_linear_1246_553" x1="0" y1="44.7637" x2="168.523" y2="157.889" gradientUnits="userSpaceOnUse">
<stop stop-color="white" stop-opacity="0.9"/>
<stop offset="0.0001" stop-color="white"/>
<stop offset="1" stop-color="white"/>
</linearGradient>
</defs>
</svg>
