<svg width="112" height="68" viewBox="0 0 112 68" fill="none" xmlns="http://www.w3.org/2000/svg">
    <path fill-rule="evenodd" clip-rule="evenodd" d="M12.6219 22.6856C5.66344 22.6856 0 28.4835 0 35.6121C0 42.7363 5.66344 48.5364 12.6219 48.5364H67.4997C76.2366 48.5364 83.3416 41.2569 83.3416 32.3095C83.3416 23.3621 76.2366 16.0827 67.4997 16.0827C65.8744 16.0827 64.2578 16.34 62.7003 16.8434L61.6853 17.1739L61.3266 16.1448C57.9731 6.48763 49.0088 0 39.0228 0C26.8144 0 16.6819 9.36881 15.4525 21.7918L15.3387 22.9429L14.2188 22.801C13.5975 22.7211 13.09 22.6856 12.6219 22.6856Z" fill="#D6E3F2" />
    <path d="M69.8066 46.6643C69.8066 46.6643 91.8761 47.3594 101.664 45.703C111.452 44.0466 111.439 35.4506 101.664 33.3316C91.8901 31.2126 88.5496 38.7867 88.5496 38.7867" stroke="#D0D0D0" stroke-width="5" stroke-linecap="round" />
    <path d="M30.7011 33.2348C30.7011 33.2348 49.7061 37.3366 59.3254 36.7369C68.9446 36.1372 77.9929 29.2215 70.6732 25.1749C63.3534 21.1283 51.9717 26.2924 51.9717 26.2924" stroke="#D0D0D0" stroke-width="5" stroke-linecap="round" />
    <path d="M28 56.2838C28 56.2838 50.647 54.0468 60.6309 56.2838C70.6148 58.5208 67.4357 64.9375 62.7041 65.2321C57.9725 65.5267 53.6053 62.1264 53.6053 62.1264" stroke="#D0D0D0" stroke-width="5" stroke-linecap="round" />
    <path d="M83.3066 59.35H100.2" stroke="#D0D0D0" stroke-width="5" stroke-linecap="round" />
    <path d="M44.5483 46.6613H53.258" stroke="#D0D0D0" stroke-width="5" stroke-linecap="round" />
</svg>
    