<svg width="140" height="132" viewBox="0 0 140 132" fill="none" xmlns="http://www.w3.org/2000/svg">
<path d="M63.6318 20.7972L63.9343 20.7348L64.0139 20.4365C67.0765 8.95862 77.5805 0.5 90.0681 0.5C104.186 0.5 115.767 11.3107 116.929 25.0716L116.963 25.4706L117.36 25.5249C125.632 26.6562 132.001 33.7255 132.001 42.2736C132.001 51.6092 124.404 59.1804 115.029 59.1804H91.3161H67.6034C56.8494 59.1804 48.1348 50.4959 48.1348 39.7869C48.1348 30.4336 54.7829 22.624 63.6318 20.7972Z" fill="url(#paint0_linear_1199_831)" fill-opacity="0.9" stroke="#D7D7D7"/>
<path d="M21.4323 49.0442L21.7347 48.9818L21.8144 48.6836C25.9436 33.2372 40.1056 21.8535 56.9428 21.8535C75.9778 21.8535 91.5919 36.4024 93.1588 54.9214L93.1926 55.3205L93.5894 55.3747C104.774 56.9014 113.386 66.4414 113.386 77.9769C113.386 90.5749 103.115 100.792 90.4385 100.792H58.6176H26.7966C12.2707 100.792 0.5 89.0837 0.5 74.6461C0.5 62.036 9.47964 51.507 21.4323 49.0442Z" fill="url(#paint1_linear_1199_831)" fill-opacity="0.7" stroke="#D7D7D7"/>
<g opacity="0.7">
<path d="M120.999 86.6667C121.975 85.7272 123.165 85.0397 124.466 84.6637C125.767 84.2877 127.141 84.2346 128.467 84.5089C129.794 84.7832 131.033 85.3767 132.078 86.238C133.124 87.0992 133.943 88.2023 134.466 89.4517C134.989 90.7012 135.2 92.0592 135.08 93.4083C134.96 94.7575 134.513 96.057 133.777 97.1944C133.042 98.3318 132.04 99.2728 130.859 99.9359C129.678 100.599 128.353 100.964 126.999 101H68.666M93.9993 76.3333C94.7716 75.5457 95.7273 74.962 96.7806 74.6345C97.834 74.307 98.9521 74.2461 100.035 74.4571C101.118 74.6681 102.131 75.1444 102.984 75.8435C103.838 76.5425 104.504 77.4423 104.924 78.4623C105.344 79.4823 105.505 80.5906 105.391 81.6878C105.277 82.785 104.893 83.8369 104.273 84.7491C103.652 85.6613 102.816 86.4053 101.837 86.9145C100.859 87.4237 99.769 87.6822 98.666 87.6667H68.666M103.999 125.667C104.772 126.454 105.727 127.038 106.781 127.365C107.834 127.693 108.952 127.754 110.035 127.543C111.118 127.332 112.131 126.856 112.984 126.157C113.838 125.458 114.504 124.558 114.924 123.538C115.344 122.518 115.505 121.409 115.391 120.312C115.277 119.215 114.893 118.163 114.273 117.251C113.652 116.339 112.816 115.595 111.837 115.085C110.859 114.576 109.769 114.318 108.666 114.333H68.666" stroke="#B4D2FF" stroke-width="8" stroke-linecap="round" stroke-linejoin="round"/>
</g>
<defs>
<linearGradient id="paint0_linear_1199_831" x1="58.5853" y1="-14.2357" x2="132.415" y2="59.7668" gradientUnits="userSpaceOnUse">
<stop stop-color="#C9C7C7" stop-opacity="0.78"/>
<stop offset="0.593282" stop-color="#E1E1E1" stop-opacity="0.45"/>
<stop offset="1" stop-color="white" stop-opacity="0.69"/>
<stop offset="1" stop-color="#EDECEC" stop-opacity="0.33"/>
</linearGradient>
<linearGradient id="paint1_linear_1199_831" x1="30.4975" y1="46.2281" x2="113.726" y2="101.532" gradientUnits="userSpaceOnUse">
<stop stop-color="#BBBBBB" stop-opacity="0.67"/>
<stop offset="0.593282" stop-color="#DBD7D7" stop-opacity="0.45"/>
<stop offset="1" stop-color="white" stop-opacity="0.69"/>
<stop offset="1" stop-color="#EDECEC" stop-opacity="0.33"/>
</linearGradient>
</defs>
</svg>
