<svg width="137" height="132" viewBox="0 0 137 132" fill="none" xmlns="http://www.w3.org/2000/svg">
<path d="M64.0362 22.7559L65.5482 22.4438L65.9462 20.9521C68.78 10.3321 78.5045 2.5 90.0681 2.5C103.144 2.5 113.861 12.512 114.936 25.2399L115.105 27.2351L117.089 27.5064C124.389 28.5049 130.001 34.7447 130.001 42.2736C130.001 50.4976 123.307 57.1804 115.029 57.1804H91.3161H67.6034C57.9468 57.1804 50.1348 49.3842 50.1348 39.7869C50.1348 31.4064 56.0926 24.3958 64.0362 22.7559Z" fill="url(#paint0_linear_1246_590)" fill-opacity="0.9" stroke="black" stroke-width="5"/>
<path d="M21.8359 51.003L23.3479 50.6915L23.7466 49.2001C27.646 34.6133 41.027 23.8535 56.9428 23.8535C74.9391 23.8535 89.6867 37.607 91.1659 55.09L91.3347 57.0854L93.3189 57.3563C103.535 58.7508 111.386 67.4635 111.386 77.9769C111.386 89.4598 102.021 98.7924 90.4385 98.7924H58.6176H26.7966C13.3647 98.7924 2.5 87.9685 2.5 74.6461C2.5 63.0115 10.7865 53.2798 21.8359 51.003Z" fill="url(#paint1_linear_1246_590)" stroke="black" stroke-width="5"/>
<path d="M82.4374 65.4812L80.8672 67.398L82.4374 65.4812C80.752 64.1006 78.7505 63.1598 76.6121 62.7431C74.4738 62.3264 72.2654 62.4468 70.185 63.0935C68.1047 63.7403 66.2173 64.8931 64.692 66.4487C62.1788 69.012 62.2194 73.1274 64.7827 75.6406C64.8498 75.7064 64.9179 75.7704 64.987 75.8327H44C40.4101 75.8327 37.5 78.7428 37.5 82.3327C37.5 85.9225 40.4102 88.8327 44 88.8327H73.9619C76.1221 88.8543 78.2547 88.344 80.1716 87.3466C82.1042 86.3409 83.757 84.8714 84.9819 83.0698C86.2069 81.2682 86.9656 79.1908 87.1902 77.0238C87.4147 74.8568 87.0981 72.6679 86.2686 70.6535C85.4391 68.639 84.1227 66.8618 82.4374 65.4812ZM74 75.8327H73.6798C73.7803 75.7421 73.8786 75.6479 73.9746 75.55C73.9939 75.5303 74.0178 75.5157 74.0442 75.5075C74.0705 75.4993 74.0984 75.4978 74.1255 75.5031C74.1526 75.5084 74.1779 75.5203 74.1992 75.5377C74.2206 75.5552 74.2373 75.5777 74.2477 75.6032C74.2583 75.6287 74.2623 75.6564 74.2594 75.6838C74.2566 75.7113 74.247 75.7376 74.2315 75.7604C74.216 75.7832 74.195 75.8018 74.1706 75.8145L75.3246 78.0322L74.1706 75.8145C74.1461 75.8272 74.1189 75.8337 74.0913 75.8333C74.0609 75.8329 74.0304 75.8327 74 75.8327ZM113.49 82.5732L115.796 81.6079C114.865 79.3839 113.406 77.4204 111.546 75.8873C109.685 74.3543 107.478 73.2979 105.117 72.8096C102.757 72.3214 100.312 72.4159 97.9959 73.0852C95.6797 73.7544 93.5616 74.9782 91.8248 76.6504C89.2389 79.1404 89.1611 83.2552 91.6511 85.8412C94.141 88.4271 98.2559 88.5049 100.842 86.0149C101.056 85.8083 101.318 85.657 101.605 85.5743C101.891 85.4916 102.193 85.4799 102.485 85.5402C102.777 85.6006 103.049 85.7311 103.279 85.9206C103.509 86.1101 103.69 86.3528 103.805 86.6277C103.92 86.9025 103.966 87.2013 103.94 87.4981C103.913 87.7949 103.815 88.0808 103.653 88.331C103.491 88.5813 103.271 88.7883 103.011 88.9342C102.767 89.0711 102.495 89.1503 102.217 89.166H44C40.4101 89.166 37.5 92.0762 37.5 95.666C37.5 99.2559 40.4101 102.166 44 102.166H102.333C102.39 102.166 102.448 102.165 102.505 102.164C104.915 102.1 107.273 101.45 109.375 100.27C111.478 99.0893 113.261 97.4144 114.57 95.3898C115.879 93.3652 116.675 91.0521 116.888 88.6506C117.102 86.2492 116.727 83.8318 115.796 81.6079L113.49 82.5732ZM90.1716 103.985C88.2548 102.988 86.1222 102.478 83.9621 102.499H44C40.4101 102.499 37.5 105.409 37.5 108.999C37.5 112.589 40.4101 115.499 44 115.499H74.987C74.9179 115.562 74.8498 115.626 74.7827 115.691C72.2194 118.205 72.1788 122.32 74.692 124.883C76.2173 126.439 78.1046 127.592 80.185 128.238C82.2654 128.885 84.4738 129.006 86.6121 128.589C88.7505 128.172 90.752 127.231 92.4374 125.851C94.1227 124.47 95.4391 122.693 96.2686 120.679C97.0981 118.664 97.4147 116.475 97.1902 114.308C96.9656 112.141 96.2069 110.064 94.9819 108.262C93.757 106.461 92.1042 104.991 90.1716 103.985ZM83.9746 115.782C83.8786 115.684 83.7803 115.59 83.6798 115.499H84C84.0303 115.499 84.0607 115.499 84.0913 115.499C84.1189 115.498 84.1461 115.505 84.1706 115.518C84.195 115.53 84.216 115.549 84.2315 115.572C84.247 115.594 84.2566 115.621 84.2594 115.648C84.2623 115.676 84.2583 115.703 84.2478 115.729C84.2372 115.754 84.2206 115.777 84.1993 115.794C84.1779 115.812 84.1526 115.824 84.1255 115.829C84.0984 115.834 84.0705 115.833 84.0442 115.825C84.0178 115.816 83.994 115.802 83.9746 115.782L82.1895 117.532L83.9746 115.782Z" fill="#B4D2FF" stroke="black" stroke-width="5" stroke-linecap="round" stroke-linejoin="round"/>
<defs>
<linearGradient id="paint0_linear_1246_590" x1="58.5853" y1="-14.2357" x2="132.415" y2="59.7668" gradientUnits="userSpaceOnUse">
<stop stop-color="#939393"/>
<stop offset="1" stop-color="#575757"/>
</linearGradient>
<linearGradient id="paint1_linear_1246_590" x1="30.4975" y1="46.2281" x2="113.726" y2="101.532" gradientUnits="userSpaceOnUse">
<stop stop-color="#DBD7D7"/>
<stop offset="1" stop-color="#898888"/>
</linearGradient>
</defs>
</svg>
