<svg width="101" height="100" viewBox="0 0 101 100" fill="none" xmlns="http://www.w3.org/2000/svg">
    <g clip-path="url(#clip0_1941_6262)">
        <path fill-rule="evenodd" clip-rule="evenodd" d="M33.4938 34.3313C41.8555 34.3376 48.6279 41.077 48.6215 49.3849C48.6151 57.6928 41.8321 64.4216 33.4704 64.4152C25.1087 64.4089 18.3364 57.6695 18.3428 49.3616C18.3492 41.0537 25.1321 34.325 33.4938 34.3313Z" fill="#F9C900" />
        <path fill-rule="evenodd" clip-rule="evenodd" d="M29.8844 69.4353C29.8844 69.6171 29.861 69.7989 29.8121 69.9828L27.2993 79.2695C26.995 80.3941 25.8312 81.06 24.6993 80.7577C23.5653 80.4554 22.895 79.2991 23.1993 78.1744L25.7121 68.8878C26.0163 67.7631 27.1801 67.0972 28.3121 67.3974C29.261 67.6511 29.8844 68.5051 29.8844 69.4353Z" fill="#F9C900" />
        <path fill-rule="evenodd" clip-rule="evenodd" d="M19.3675 65.6228C19.3675 66.1915 19.1378 66.758 18.6824 67.1724L11.5654 73.6897C10.7037 74.4783 9.36117 74.4233 8.56755 73.5671C7.77181 72.711 7.82712 71.3771 8.68883 70.5864L15.8058 64.0712C16.6697 63.2827 18.0122 63.3355 18.8058 64.1938C19.1824 64.5976 19.3675 65.1112 19.3675 65.6228Z" fill="#F9C900" />
        <mask id="mask0_1941_6262" style="mask-type:alpha" maskUnits="userSpaceOnUse" x="0" y="53" width="14" height="7">
            <path fill-rule="evenodd" clip-rule="evenodd" d="M0 53.2717V59.8971H13.616V53.2717L0 53.2717L0 53.2717Z" fill="white" />
        </mask>
        <g mask="url(#mask0_1941_6262)">
            <path fill-rule="evenodd" clip-rule="evenodd" d="M13.6158 55.3837C13.6158 56.3223 12.9797 57.1764 12.0244 57.4216L2.65414 59.8294C1.52009 60.1212 0.36052 59.4426 0.0669034 58.3158C-0.224586 57.1891 0.456265 56.037 1.59244 55.7452L10.9626 53.3395C12.0967 53.0478 13.2541 53.7243 13.5478 54.8531C13.5946 55.0307 13.6158 55.2083 13.6158 55.3837Z" fill="#F9C900" />
        </g>
        <path fill-rule="evenodd" clip-rule="evenodd" d="M13.9137 43.5692C13.9137 43.7425 13.8925 43.918 13.8456 44.0955C13.5542 45.2223 12.3967 45.9009 11.2627 45.6112L1.8882 43.214C0.75416 42.9244 0.0711809 41.7723 0.36267 40.6455C0.65416 39.5188 1.81161 38.8402 2.94778 39.1298L12.3201 41.5271C13.2776 41.7723 13.9137 42.6284 13.9137 43.5692Z" fill="#F9C900" />
        <path fill-rule="evenodd" clip-rule="evenodd" d="M19.3155 33.3004C19.3155 33.8289 19.1176 34.3574 18.7176 34.7654C17.9028 35.6025 16.5581 35.6237 15.7155 34.814L8.76445 28.1233C7.9219 27.3137 7.90062 25.9798 8.71552 25.1426C9.53041 24.3055 10.8751 24.2843 11.7176 25.094L18.6687 31.7826C19.1006 32.1969 19.3155 32.7487 19.3155 33.3004Z" fill="#F9C900" />
        <path fill-rule="evenodd" clip-rule="evenodd" d="M29.1761 27.4368C29.1761 28.3797 28.5335 29.2379 27.5718 29.4789C26.4356 29.7643 25.2803 29.0794 24.9952 27.9484L22.6293 18.6237C22.3442 17.4927 23.0335 16.349 24.1697 16.0637C25.3059 15.7804 26.4612 16.4653 26.7463 17.5942L29.1122 26.9189C29.1548 27.0922 29.1761 27.2656 29.1761 27.4368Z" fill="#F9C900" />
        <path fill-rule="evenodd" clip-rule="evenodd" d="M43.3855 18.7993C43.3855 18.9769 43.3621 19.1566 43.3153 19.3363L40.8557 28.6357C40.5578 29.7624 39.3961 30.4346 38.2621 30.1387C37.1302 29.8427 36.4514 28.6885 36.7493 27.5639L39.2089 18.2624C39.5068 17.1378 40.6685 16.4634 41.8025 16.7594C42.7557 17.0088 43.3855 17.8629 43.3855 18.7993Z" fill="#F9C900" />
        <path fill-rule="evenodd" clip-rule="evenodd" d="M58.7762 26.8291C58.7762 27.4168 58.5294 28.0024 58.0464 28.4188L50.7443 34.7311C49.8613 35.4943 48.5187 35.4013 47.7507 34.524C46.9804 33.6446 47.0741 32.3127 47.9592 31.5475L55.2613 25.2373C56.1443 24.472 57.4847 24.565 58.2549 25.4445C58.606 25.844 58.7762 26.3387 58.7762 26.8291Z" fill="#F9C900" />
        <path fill-rule="evenodd" clip-rule="evenodd" d="M66.3017 40.903C66.3017 41.8289 65.6826 42.6766 64.74 42.9345L55.4081 45.4776C54.2762 45.7863 53.1081 45.1267 52.7996 44.0021C52.489 42.8774 53.1528 41.719 54.2847 41.4103L63.6166 38.8672C64.7485 38.5586 65.9145 39.2181 66.2251 40.3428C66.2762 40.5288 66.3017 40.7169 66.3017 40.903Z" fill="#F9C900" />
        <path fill-rule="evenodd" clip-rule="evenodd" d="M66.1415 57.3443C66.1415 57.5176 66.1202 57.6931 66.0734 57.8707C65.7819 58.9974 64.6245 59.676 63.4904 59.3864L54.116 56.9892C52.9819 56.6995 52.2968 55.5495 52.5904 54.4207C52.8819 53.2939 54.0394 52.6153 55.1755 52.905L64.5479 55.3022C65.5053 55.5474 66.1415 56.4036 66.1415 57.3443Z" fill="#F9C900" />
        <path fill-rule="evenodd" clip-rule="evenodd" d="M58.2156 71.8243C58.2156 72.3718 58.0029 72.9172 57.5773 73.3294C56.739 74.1454 55.3944 74.1306 54.5752 73.2977L47.8092 66.4209C46.9901 65.588 47.005 64.2541 47.8433 63.4403C48.6816 62.6243 50.0263 62.6391 50.8454 63.472L57.6114 70.3487C58.0156 70.7588 58.2156 71.2915 58.2156 71.8243Z" fill="#F9C900" />
        <path fill-rule="evenodd" clip-rule="evenodd" d="M43.6032 79.601C43.6032 80.5312 42.9798 81.381 42.033 81.6347C40.9011 81.9369 39.7351 81.271 39.4309 80.1464L36.9117 70.8619C36.6075 69.7372 37.2777 68.5809 38.4096 68.2765C39.5415 67.9742 40.7075 68.6401 41.0117 69.7647L43.5287 79.0493C43.5798 79.2332 43.6032 79.4192 43.6032 79.601Z" fill="#F9C900" />
        <mask id="mask1_1941_6262" style="mask-type:alpha" maskUnits="userSpaceOnUse" x="18" y="35" width="82" height="48">
            <path fill-rule="evenodd" clip-rule="evenodd" d="M18.1162 82.2365H99.1779V35.9773H18.1162V82.2365Z" fill="white" />
        </mask>
        <g mask="url(#mask1_1941_6262)">
            <path fill-rule="evenodd" clip-rule="evenodd" d="M30.3928 57.599C23.6247 57.599 18.1162 63.1249 18.1162 69.9192C18.1162 76.7093 23.6247 82.2373 30.3928 82.2373H83.7694C92.2673 82.2373 99.1779 75.2993 99.1779 66.7715C99.1779 58.2437 92.2673 51.3057 83.7694 51.3057C82.1886 51.3057 80.6162 51.5509 79.1013 52.0308L78.1141 52.3458L77.7651 51.3649C74.5034 42.1607 65.7843 35.9773 56.0715 35.9773C44.1971 35.9773 34.3417 44.9067 33.146 56.7471L33.0354 57.8442L31.946 57.7089C31.3417 57.6328 30.8481 57.599 30.3928 57.599Z" fill="#D6E3F2" />
        </g>
    </g>
    <defs>
        <clipPath id="clip0_1941_6262">
            <rect width="101" height="67" fill="white" transform="translate(0 16)" />
        </clipPath>
    </defs>
</svg>
    