<svg width="234" height="144" viewBox="0 0 234 144" fill="none" xmlns="http://www.w3.org/2000/svg">
<path d="M28.0283 36.2965L28.3307 36.2338L28.4101 35.9353C33.8344 15.5328 52.4365 0.5 74.549 0.5C99.5474 0.5 120.058 19.7125 122.117 44.1747L122.15 44.5737L122.547 44.6281C137.262 46.6479 148.598 59.2699 148.598 74.5381C148.598 91.2128 135.079 104.73 118.401 104.73H76.7416H35.0819C15.9828 104.73 0.5 89.2497 0.5 70.1535C0.5 53.4745 12.3118 39.5527 28.0283 36.2965Z" fill="url(#paint0_linear_1199_778)" fill-opacity="0.7" stroke="white"/>
<path d="M84.3214 58.6237L84.6239 58.561L84.7032 58.2625C91.4218 32.977 114.462 14.3467 141.85 14.3467C172.813 14.3467 198.217 38.1569 200.767 68.4738L200.8 68.8728L201.197 68.9273C219.444 71.4333 233.501 87.0939 233.501 106.039C233.501 126.728 216.736 143.5 196.056 143.5H144.56H93.0643C69.3908 143.5 50.1992 124.3 50.1992 100.616C50.1992 79.9287 64.8405 62.6623 84.3214 58.6237Z" fill="url(#paint1_linear_1199_778)" stroke="white"/>
<defs>
<linearGradient id="paint0_linear_1199_778" x1="0" y1="0" x2="151.586" y2="101.516" gradientUnits="userSpaceOnUse">
<stop stop-color="#E4E4E4" stop-opacity="0.9"/>
<stop offset="1" stop-color="white" stop-opacity="0.69"/>
</linearGradient>
<linearGradient id="paint1_linear_1199_778" x1="49.6992" y1="13.8467" x2="237.144" y2="139.303" gradientUnits="userSpaceOnUse">
<stop offset="0.0001" stop-color="#F3F3F3"/>
<stop offset="1" stop-color="white" stop-opacity="0.69"/>
</linearGradient>
</defs>
</svg>
