<svg width="234" height="144" viewBox="0 0 234 144" fill="none" xmlns="http://www.w3.org/2000/svg">
<path d="M28.4341 38.2549L29.9462 37.9416L30.343 36.4492C35.5401 16.901 53.3656 2.5 74.549 2.5C98.4993 2.5 118.152 20.9075 120.124 44.3424L120.292 46.3373L122.275 46.6095C136.014 48.4953 146.598 60.2832 146.598 74.5381C146.598 90.1079 133.974 102.73 118.401 102.73H76.7416H35.0819C17.0871 102.73 2.5 88.1449 2.5 70.1535C2.5 54.4419 13.6271 41.3227 28.4341 38.2549Z" fill="url(#paint0_linear_1246_621)" stroke="black" stroke-width="5"/>
<path d="M84.7274 60.5821L86.2395 60.2686L86.6361 58.7761C93.1278 34.3445 115.392 16.3467 141.85 16.3467C171.763 16.3467 196.31 39.3509 198.774 68.6414L198.941 70.6363L200.925 70.9087C218.195 73.2805 231.501 88.1063 231.501 106.039C231.501 125.624 215.631 141.5 196.056 141.5H144.56H93.0643C70.4962 141.5 52.1992 123.196 52.1992 100.616C52.1992 80.8952 66.1567 64.4319 84.7274 60.5821Z" fill="url(#paint1_linear_1246_621)" stroke="black" stroke-width="5"/>
<defs>
<linearGradient id="paint0_linear_1246_621" x1="0" y1="0" x2="151.586" y2="101.516" gradientUnits="userSpaceOnUse">
<stop stop-color="#B9B9B9" stop-opacity="0.9"/>
<stop offset="1" stop-color="#CFCCCC"/>
</linearGradient>
<linearGradient id="paint1_linear_1246_621" x1="49.6992" y1="13.8467" x2="237.144" y2="139.303" gradientUnits="userSpaceOnUse">
<stop offset="0.0001" stop-color="#D6D6D6"/>
<stop offset="1" stop-color="white"/>
</linearGradient>
</defs>
</svg>
