<svg width="181" height="145" viewBox="0 0 181 145" fill="none" xmlns="http://www.w3.org/2000/svg">
<path d="M63.7437 20.8328L64.0461 20.7704L64.1257 20.472C67.1938 8.97371 77.7165 0.5 90.2264 0.5C104.369 0.5 115.971 11.3299 117.135 25.1154L117.169 25.5145L117.566 25.5687C125.853 26.7021 132.234 33.7841 132.234 42.3477C132.234 51.7001 124.623 59.285 115.231 59.285H91.4766H67.7224C56.949 59.285 48.2188 50.5848 48.2188 39.8566C48.2188 30.4865 54.8788 22.6628 63.7437 20.8328Z" fill="url(#paint0_linear_1199_780)" fill-opacity="0.9" stroke="#D7D7D7"/>
<path d="M21.4697 49.1299L21.7721 49.0676L21.8518 48.7693C25.9883 33.2955 40.1754 21.8916 57.0425 21.8916C76.1113 21.8916 91.7532 36.4663 93.3228 55.0182L93.3566 55.4173L93.7534 55.4715C104.958 57.0009 113.585 66.558 113.585 78.1142C113.585 90.7347 103.296 100.971 90.5969 100.971H58.7202H26.8435C12.2917 100.971 0.5 89.2409 0.5 74.7775C0.5 62.1449 9.49568 51.5972 21.4697 49.1299Z" fill="url(#paint1_linear_1199_780)" fill-opacity="0.7" stroke="#D7D7D7"/>
<path d="M62.086 76.7145L62.3884 76.652L62.4679 76.3536C67.7945 56.366 86.0617 41.6377 107.778 41.6377C132.328 41.6377 152.469 60.461 154.49 84.4254L154.524 84.8245L154.921 84.8788C169.371 86.8575 180.5 99.2224 180.5 114.178C180.5 130.511 167.227 143.753 150.85 143.753H109.931H69.0125C50.2569 143.753 35.0547 128.587 35.0547 109.881C35.0547 93.5432 46.6524 79.9046 62.086 76.7145Z" fill="url(#paint2_linear_1199_780)" stroke="#D7D7D7"/>
<defs>
<linearGradient id="paint0_linear_1199_780" x1="58.6885" y1="-14.2606" x2="132.647" y2="59.8715" gradientUnits="userSpaceOnUse">
<stop stop-color="#C9C7C7" stop-opacity="0.78"/>
<stop offset="0.593282" stop-color="#E1E1E1" stop-opacity="0.45"/>
<stop offset="1" stop-color="white" stop-opacity="0.69"/>
<stop offset="1" stop-color="#EDECEC" stop-opacity="0.33"/>
</linearGradient>
<linearGradient id="paint1_linear_1199_780" x1="30.5509" y1="46.3098" x2="113.926" y2="101.71" gradientUnits="userSpaceOnUse">
<stop stop-color="#BBBBBB" stop-opacity="0.67"/>
<stop offset="0.593282" stop-color="#DBD7D7" stop-opacity="0.45"/>
<stop offset="1" stop-color="white" stop-opacity="0.69"/>
<stop offset="1" stop-color="#EDECEC" stop-opacity="0.33"/>
</linearGradient>
<linearGradient id="paint2_linear_1199_780" x1="19.1971" y1="41.1377" x2="181" y2="144.253" gradientUnits="userSpaceOnUse">
<stop stop-color="#B8B7B7"/>
<stop offset="0.593282" stop-color="#D7D6D6" stop-opacity="0.73"/>
<stop offset="1" stop-color="white" stop-opacity="0.69"/>
<stop offset="1" stop-color="#EDECEC" stop-opacity="0.33"/>
</linearGradient>
</defs>
</svg>
