<svg width="137" height="132" viewBox="0 0 137 132" fill="none" xmlns="http://www.w3.org/2000/svg">
<path d="M33.8359 29.6495L35.3479 29.3379L35.7466 27.8466C39.646 13.2598 53.027 2.5 68.9428 2.5C86.9391 2.5 101.687 16.2535 103.166 33.7365L103.335 35.7319L105.319 36.0028C115.535 37.3973 123.386 46.11 123.386 56.6234C123.386 68.1063 114.021 77.4389 102.439 77.4389H70.6176H38.7966C25.3647 77.4389 14.5 66.615 14.5 53.2926C14.5 41.658 22.7865 31.9263 33.8359 29.6495Z" fill="url(#paint0_linear_1246_597)" stroke="black" stroke-width="5"/>
<rect x="12.5" y="86.5" width="112.333" height="14.3333" rx="7.16667" fill="#B4D2FF" stroke="black" stroke-width="5"/>
<rect x="12.5" y="100.833" width="112" height="14" rx="7" fill="#B4D2FF" stroke="black" stroke-width="5"/>
<rect x="12.5" y="114.833" width="57" height="14" rx="7" fill="#B4D2FF" stroke="black" stroke-width="5"/>
<defs>
<linearGradient id="paint0_linear_1246_597" x1="42.4975" y1="24.8746" x2="125.726" y2="80.1784" gradientUnits="userSpaceOnUse">
<stop stop-color="#898888"/>
<stop offset="1" stop-color="#DEDEDE"/>
</linearGradient>
</defs>
</svg>
