<svg width="84" height="81" viewBox="0 0 84 81" fill="none" xmlns="http://www.w3.org/2000/svg">
    <g clip-path="url(#clip0_1941_6362)">
        <path fill-rule="evenodd" clip-rule="evenodd" d="M77.089 60.0569H6.57711C5.39367 60.0569 4.43555 59.0855 4.43555 57.8855C4.43555 56.6856 5.39367 55.7141 6.57711 55.7141H77.089C78.2724 55.7141 79.2305 56.6856 79.2305 57.8855C79.2305 59.0855 78.2724 60.0569 77.089 60.0569Z" fill="#BAC6D1" />
        <path fill-rule="evenodd" clip-rule="evenodd" d="M77.089 70.3704H6.57711C5.39367 70.3704 4.43555 69.3989 4.43555 68.199C4.43555 66.9991 5.39367 66.0276 6.57711 66.0276H77.089C78.2724 66.0276 79.2305 66.9991 79.2305 68.199C79.2305 69.3989 78.2724 70.3704 77.089 70.3704Z" fill="#BAC6D1" />
        <path fill-rule="evenodd" clip-rule="evenodd" d="M53.2093 80.1367H6.57613C5.3927 80.1367 4.43457 79.1652 4.43457 77.9652C4.43457 76.7653 5.3927 75.7938 6.57613 75.7938H53.2093C54.3927 75.7938 55.3508 76.7653 55.3508 77.9652C55.3508 79.1652 54.3927 80.1367 53.2093 80.1367Z" fill="#BAC6D1" />
        <path fill-rule="evenodd" clip-rule="evenodd" d="M12.6219 23.5802C5.66344 23.5802 0 29.378 0 36.5066C0 43.6308 5.66344 49.4309 12.6219 49.4309H67.4997C76.2366 49.4309 83.3416 42.1514 83.3416 33.2041C83.3416 24.2567 76.2366 16.9772 67.4997 16.9772C65.8744 16.9772 64.2578 17.2345 62.7003 17.738L61.6853 18.0685L61.3266 17.0393C57.9731 7.38216 49.0088 0.894531 39.0228 0.894531C26.8144 0.894531 16.6819 10.2633 15.4525 22.6863L15.3387 23.8375L14.2188 23.6955C13.5975 23.6157 13.09 23.5802 12.6219 23.5802Z" fill="#D6E3F2" />
    </g>
    <defs>
        <clipPath id="clip0_1941_6362">
            <rect width="84" height="81" fill="white" />
        </clipPath>
    </defs>
</svg>
    