<svg width="100" height="62" viewBox="0 0 100 62" fill="none" xmlns="http://www.w3.org/2000/svg">
    <path fill-rule="evenodd" clip-rule="evenodd" d="M12.6219 22.6856C5.66344 22.6856 0 28.4835 0 35.6121C0 42.7363 5.66344 48.5364 12.6219 48.5364H67.4997C76.2366 48.5364 83.3416 41.2569 83.3416 32.3095C83.3416 23.3621 76.2366 16.0827 67.4997 16.0827C65.8744 16.0827 64.2578 16.34 62.7003 16.8434L61.6853 17.1739L61.3266 16.1448C57.9731 6.48763 49.0088 0 39.0228 0C26.8144 0 16.6819 9.36881 15.4525 21.7918L15.3387 22.9429L14.2188 22.801C13.5975 22.7211 13.09 22.6856 12.6219 22.6856Z" fill="#D6E3F2" />
    <path fill-rule="evenodd" clip-rule="evenodd" d="M97.6534 41.3428H27.1416C25.9581 41.3428 25 40.3714 25 39.1714C25 37.9715 25.9581 37 27.1416 37H97.6534C98.8369 37 99.795 37.9715 99.795 39.1714C99.795 40.3714 98.8369 41.3428 97.6534 41.3428Z" fill="#BAC6D1" />
    <path fill-rule="evenodd" clip-rule="evenodd" d="M97.6534 51.3428H27.1416C25.9581 51.3428 25 50.3714 25 49.1714C25 47.9715 25.9581 47 27.1416 47H97.6534C98.8369 47 99.795 47.9715 99.795 49.1714C99.795 50.3714 98.8369 51.3428 97.6534 51.3428Z" fill="#BAC6D1" />
    <path fill-rule="evenodd" clip-rule="evenodd" d="M73.7747 61.3428H27.1416C25.9581 61.3428 25 60.3714 25 59.1714C25 57.9715 25.9581 57 27.1416 57H73.7747C74.9581 57 75.9162 57.9715 75.9162 59.1714C75.9162 60.3714 74.9581 61.3428 73.7747 61.3428Z" fill="#BAC6D1" />
</svg>
    