<svg width="138" height="126" viewBox="0 0 138 126" fill="none" xmlns="http://www.w3.org/2000/svg">
<path d="M63.6318 20.7972L63.9343 20.7348L64.0139 20.4365C67.0765 8.95862 77.5805 0.5 90.0681 0.5C104.186 0.5 115.767 11.3107 116.929 25.0716L116.963 25.4706L117.36 25.5249C125.632 26.6562 132.001 33.7255 132.001 42.2736C132.001 51.6092 124.404 59.1804 115.029 59.1804H91.3161H67.6034C56.8494 59.1804 48.1348 50.4959 48.1348 39.7869C48.1348 30.4336 54.7829 22.624 63.6318 20.7972Z" fill="url(#paint0_linear_1199_795)" fill-opacity="0.9" stroke="#D7D7D7"/>
<path d="M21.4323 49.0442L21.7347 48.9818L21.8144 48.6836C25.9436 33.2372 40.1056 21.8535 56.9428 21.8535C75.9778 21.8535 91.5919 36.4024 93.1588 54.9214L93.1926 55.3205L93.5894 55.3747C104.774 56.9014 113.386 66.4414 113.386 77.9769C113.386 90.5749 103.115 100.792 90.4385 100.792H58.6176H26.7966C12.2707 100.792 0.5 89.0837 0.5 74.6461C0.5 62.036 9.47964 51.507 21.4323 49.0442Z" fill="url(#paint1_linear_1199_795)" fill-opacity="0.7" stroke="#D7D7D7"/>
<g opacity="0.7">
<rect x="30.15" y="83.15" width="107.033" height="9.03333" rx="4.51667" fill="#B4D2FF" stroke="#D7D7D7" stroke-width="0.3"/>
<rect x="30.15" y="99.15" width="106.7" height="8.7" rx="4.35" fill="#B4D2FF" stroke="#D7D7D7" stroke-width="0.3"/>
<rect x="30.15" y="117.15" width="51.7" height="8.7" rx="4.35" fill="#B4D2FF" stroke="#D7D7D7" stroke-width="0.3"/>
</g>
<defs>
<linearGradient id="paint0_linear_1199_795" x1="58.5853" y1="-14.2357" x2="132.415" y2="59.7668" gradientUnits="userSpaceOnUse">
<stop stop-color="#C9C7C7" stop-opacity="0.78"/>
<stop offset="0.593282" stop-color="#E1E1E1" stop-opacity="0.45"/>
<stop offset="1" stop-color="white" stop-opacity="0.69"/>
<stop offset="1" stop-color="#EDECEC" stop-opacity="0.33"/>
</linearGradient>
<linearGradient id="paint1_linear_1199_795" x1="30.4975" y1="46.2281" x2="113.726" y2="101.532" gradientUnits="userSpaceOnUse">
<stop stop-color="#BBBBBB" stop-opacity="0.67"/>
<stop offset="0.593282" stop-color="#DBD7D7" stop-opacity="0.45"/>
<stop offset="1" stop-color="white" stop-opacity="0.69"/>
<stop offset="1" stop-color="#EDECEC" stop-opacity="0.33"/>
</linearGradient>
</defs>
</svg>
