<svg width="155" height="166" viewBox="0 0 155 166" fill="none" xmlns="http://www.w3.org/2000/svg">
<path fill-rule="evenodd" clip-rule="evenodd" d="M96.2364 104.653C98.728 106.292 99.4215 109.643 97.7854 112.139L78.8955 140.95C77.2594 143.445 73.9132 144.14 71.4217 142.501C68.9301 140.863 68.2365 137.511 69.8726 135.016L88.7626 106.205C90.3987 103.709 93.7448 103.015 96.2364 104.653Z" fill="#B4D2FF" fill-opacity="0.8" stroke="black" stroke-width="5" stroke-linecap="round" stroke-linejoin="round"/>
<path fill-rule="evenodd" clip-rule="evenodd" d="M59.1349 124.363C61.6265 126.002 62.32 129.353 60.6839 131.848L41.7939 160.66C40.1578 163.155 36.8117 163.85 34.3201 162.211C31.8285 160.573 31.135 157.221 32.7711 154.726L51.661 125.915C53.2971 123.419 56.6433 122.725 59.1349 124.363Z" fill="#B4D2FF" fill-opacity="0.8" stroke="black" stroke-width="5" stroke-linecap="round" stroke-linejoin="round"/>
<path fill-rule="evenodd" clip-rule="evenodd" d="M111.309 124.363C113.8 126.002 114.494 129.353 112.858 131.848L93.9678 160.66C92.3317 163.155 88.9855 163.85 86.4939 162.211C84.0023 160.573 83.3088 157.221 84.9449 154.726L103.835 125.915C105.471 123.419 108.817 122.725 111.309 124.363Z" fill="#B4D2FF" fill-opacity="0.8" stroke="black" stroke-width="5" stroke-linecap="round" stroke-linejoin="round"/>
<path fill-rule="evenodd" clip-rule="evenodd" d="M46.961 101.755C49.4526 103.393 50.1461 106.745 48.5101 109.24L29.6201 138.051C27.984 140.547 24.6379 141.241 22.1463 139.603C19.6547 137.964 18.9611 134.613 20.5972 132.117L39.4872 103.306C41.1233 100.811 44.4694 100.116 46.961 101.755Z" fill="#B4D2FF" fill-opacity="0.8" stroke="black" stroke-width="5" stroke-linecap="round" stroke-linejoin="round"/>
<path d="M29.4972 39.5323L31.0092 39.2197L31.4068 37.7278C36.8115 17.4471 55.3509 2.5 77.39 2.5C102.308 2.5 122.746 21.6051 124.797 45.917L124.965 47.9121L126.949 48.1838C141.262 50.1437 152.28 62.393 152.28 77.1968C152.28 93.3656 139.138 106.484 122.914 106.484H79.6662H36.4188C17.6801 106.484 2.5 91.3325 2.5 72.6558C2.5 56.345 14.0792 42.7192 29.4972 39.5323Z" fill="url(#paint0_linear_1246_625)" stroke="black" stroke-width="5"/>
<defs>
<linearGradient id="paint0_linear_1246_625" x1="77.39" y1="0" x2="77.39" y2="108.984" gradientUnits="userSpaceOnUse">
<stop stop-color="#575757"/>
<stop offset="1" stop-color="#949494"/>
</linearGradient>
</defs>
</svg>
