<svg width="155" height="164" viewBox="0 0 155 164" fill="none" xmlns="http://www.w3.org/2000/svg">
<path fill-rule="evenodd" clip-rule="evenodd" d="M96.2364 104.653C98.728 106.292 99.4215 109.643 97.7854 112.139L78.8955 140.95C77.2594 143.445 73.9132 144.14 71.4217 142.501C68.9301 140.863 68.2365 137.511 69.8726 135.016L88.7626 106.205C90.3987 103.709 93.7448 103.015 96.2364 104.653Z" fill="#B4D2FF" fill-opacity="0.8"/>
<path fill-rule="evenodd" clip-rule="evenodd" d="M59.1349 124.363C61.6265 126.002 62.32 129.353 60.6839 131.848L41.7939 160.66C40.1578 163.155 36.8117 163.85 34.3201 162.211C31.8285 160.573 31.135 157.221 32.7711 154.726L51.661 125.915C53.2971 123.419 56.6433 122.725 59.1349 124.363Z" fill="#B4D2FF" fill-opacity="0.8"/>
<path fill-rule="evenodd" clip-rule="evenodd" d="M111.309 124.363C113.8 126.002 114.494 129.353 112.858 131.848L93.9678 160.66C92.3317 163.155 88.9855 163.85 86.4939 162.211C84.0023 160.573 83.3088 157.221 84.9449 154.726L103.835 125.915C105.471 123.419 108.817 122.725 111.309 124.363Z" fill="#B4D2FF" fill-opacity="0.8"/>
<path fill-rule="evenodd" clip-rule="evenodd" d="M46.961 101.755C49.4526 103.393 50.1461 106.745 48.5101 109.24L29.6201 138.051C27.984 140.547 24.6379 141.241 22.1463 139.603C19.6547 137.964 18.9611 134.613 20.5972 132.117L39.4872 103.306C41.1233 100.811 44.4694 100.116 46.961 101.755Z" fill="#B4D2FF" fill-opacity="0.8"/>
<path d="M29.0924 37.5737L29.3948 37.5112L29.4743 37.2128C35.1072 16.0754 54.4252 0.5 77.39 0.5C103.352 0.5 124.652 20.406 126.789 45.7489L126.823 46.1479L127.22 46.2022C142.506 48.2955 154.28 61.3758 154.28 77.1968C154.28 94.4749 140.238 108.484 122.914 108.484H79.6662H36.4188C16.5802 108.484 0.5 92.4418 0.5 72.6558C0.5 55.3741 12.7675 40.948 29.0924 37.5737Z" fill="url(#paint0_linear_1199_782)" stroke="#D7D7D7"/>
<defs>
<linearGradient id="paint0_linear_1199_782" x1="-16.2316" y1="4.19549e-06" x2="154.78" y2="108.984" gradientUnits="userSpaceOnUse">
<stop stop-color="#9A9A9A" stop-opacity="0.56"/>
<stop offset="0.593282" stop-color="#B6B4B4" stop-opacity="0.37"/>
<stop offset="1" stop-color="white" stop-opacity="0.69"/>
<stop offset="1" stop-color="#EDECEC" stop-opacity="0.33"/>
</linearGradient>
</defs>
</svg>
