<svg width="100" height="100" viewBox="0 0 100 100" fill="none" xmlns="http://www.w3.org/2000/svg">
    <g clip-path="url(#clip0_1941_6330)">
        <path fill-rule="evenodd" clip-rule="evenodd" d="M31.1532 69.1921C31.1532 69.1921 28.365 77.0071 29.0971 80.0043C29.7021 82.4841 32.1812 84.0187 34.6275 83.4271C37.0825 82.8334 38.5708 80.3361 37.9658 77.8584C37.2337 74.8591 31.1532 69.1921 31.1532 69.1921Z" fill="#38A1E8" />
        <path fill-rule="evenodd" clip-rule="evenodd" d="M48.744 68.958C48.744 68.958 45.9558 76.773 46.6879 79.7723C47.2929 82.25 49.772 83.7846 52.2183 83.193C54.6733 82.5992 56.1616 80.102 55.5566 77.6243C54.8245 74.6249 48.744 68.958 48.744 68.958Z" fill="#38A1E8" />
        <path fill-rule="evenodd" clip-rule="evenodd" d="M67.0228 68.7151C67.0228 68.7151 64.2346 76.53 64.9668 79.5272C65.5717 82.0071 68.0509 83.5417 70.4971 82.9501C72.9521 82.3563 74.4404 79.859 73.8333 77.3814C73.1011 74.382 67.0228 68.7151 67.0228 68.7151Z" fill="#38A1E8" />
        <path fill-rule="evenodd" clip-rule="evenodd" d="M20.6477 38.0252C13.675 38.0252 8 43.7314 8 50.7474C8 57.759 13.675 63.4674 20.6477 63.4674H75.6375C84.3923 63.4674 91.5118 56.303 91.5118 47.497C91.5118 38.691 84.3923 31.5266 75.6375 31.5266C74.0089 31.5266 72.389 31.7798 70.8284 32.2753L69.8113 32.6006L69.4518 31.5877C66.0915 22.0831 57.1088 15.698 47.1025 15.698C34.8691 15.698 24.7159 24.9188 23.4841 37.1455L23.3701 38.2784L22.2478 38.1387C21.6253 38.0601 21.1167 38.0252 20.6477 38.0252Z" fill="#D6E3F2" />
    </g>
    <defs>
        <clipPath id="clip0_1941_6330">
            <rect width="84" height="69" fill="white" transform="translate(8 15)" />
        </clipPath>
    </defs>
</svg>
    