<svg width="100" height="100" viewBox="0 0 100 100" fill="none" xmlns="http://www.w3.org/2000/svg">
    <g clip-path="url(#clip0_1941_6299)">
        <path fill-rule="evenodd" clip-rule="evenodd" d="M22.8702 61.8792C22.8702 61.8792 20.1429 69.1638 20.8248 71.9455C21.3866 74.2462 23.7519 75.6559 26.1025 75.0891C28.4573 74.5202 29.9009 72.1902 29.337 69.8896C28.6573 67.1058 22.8702 61.8792 22.8702 61.8792Z" fill="#38A1E8" />
        <path fill-rule="evenodd" clip-rule="evenodd" d="M39.7306 61.5405C39.7306 61.5405 37.0033 68.8252 37.6851 71.6069C38.247 73.9076 40.6123 75.3172 42.9629 74.7504C45.3177 74.1815 46.7613 71.8516 46.1973 69.551C45.5176 66.7672 39.7306 61.5405 39.7306 61.5405Z" fill="#38A1E8" />
        <path fill-rule="evenodd" clip-rule="evenodd" d="M57.2496 61.189C57.2496 61.189 54.5223 68.4737 55.2042 71.2553C55.766 73.556 58.1313 74.9657 60.4819 74.3989C62.8367 73.83 64.2803 71.5001 63.7164 69.1994C63.0366 66.4156 57.2496 61.189 57.2496 61.189Z" fill="#38A1E8" />
        <path fill-rule="evenodd" clip-rule="evenodd" d="M73.7535 60.3716C73.7535 60.3716 71.0262 67.6563 71.7081 70.438C72.2699 72.7386 74.6352 74.1483 76.9858 73.5815C79.3406 73.0126 80.7842 70.6827 80.2203 68.382C79.5406 65.5982 73.7535 60.3716 73.7535 60.3716Z" fill="#38A1E8" />
        <path fill-rule="evenodd" clip-rule="evenodd" d="M32.7608 77.2583C32.7608 77.2583 30.0336 84.543 30.7154 87.3247C31.2773 89.6253 33.6426 91.035 35.9932 90.4682C38.348 89.8993 39.7916 87.5694 39.2276 85.2687C38.5479 82.485 32.7608 77.2583 32.7608 77.2583Z" fill="#38A1E8" />
        <path fill-rule="evenodd" clip-rule="evenodd" d="M50.2804 76.9065C50.2804 76.9065 47.5531 84.1912 48.2349 86.9729C48.7968 89.2735 51.1621 90.6832 53.5127 90.1164C55.8675 89.5475 57.3111 87.2176 56.7471 84.9169C56.0674 82.1331 50.2804 76.9065 50.2804 76.9065Z" fill="#38A1E8" />
        <path fill-rule="evenodd" clip-rule="evenodd" d="M66.7838 76.0891C66.7838 76.0891 64.0565 83.3738 64.7383 86.1555C65.3002 88.4561 67.6655 89.8658 70.0161 89.299C72.3709 88.7301 73.8145 86.4002 73.2505 84.0996C72.5708 81.3158 66.7838 76.0891 66.7838 76.0891Z" fill="#38A1E8" />
        <path fill-rule="evenodd" clip-rule="evenodd" d="M88.9604 34.0865C95.021 34.0865 99.9516 39.0517 99.9516 45.1589C99.9516 51.2619 95.021 56.2271 88.9604 56.2271H41.1721C33.5669 56.2271 27.3779 49.9924 27.3779 42.3291C27.3779 34.6659 33.5669 28.4311 41.1721 28.4311C42.5884 28.4311 43.9962 28.6507 45.3514 29.0837L46.2374 29.366L46.5488 28.4855C49.4697 20.2136 57.2748 14.6565 65.9701 14.6565C76.6014 14.6565 85.4251 22.6795 86.4962 33.321L86.5951 34.3061L87.5715 34.1848C88.1103 34.1179 88.5522 34.0865 88.9604 34.0865Z" fill="#BAC6D1" />
        <path fill-rule="evenodd" clip-rule="evenodd" d="M12.1423 32.0413C5.44823 32.0413 0 37.5084 0 44.2305C0 50.9484 5.44823 56.4177 12.1423 56.4177H64.9348C73.3396 56.4177 80.1747 49.5534 80.1747 41.1163C80.1747 32.6792 73.3396 25.8149 64.9348 25.8149C63.3712 25.8149 61.8161 26.0575 60.3178 26.5323L59.3413 26.8439L58.9962 25.8734C55.7702 16.767 47.1465 10.6494 37.54 10.6494C25.7955 10.6494 16.048 19.4839 14.8653 31.1984L14.7559 32.2839L13.6785 32.15C13.0808 32.0747 12.5926 32.0413 12.1423 32.0413Z" fill="#D6E3F2" />
    </g>
    <defs>
        <clipPath id="clip0_1941_6299">
            <rect width="100" height="81" fill="white" transform="translate(0 10)" />
        </clipPath>
    </defs>
</svg>
    