<svg width="155" height="166" viewBox="0 0 155 166" fill="none" xmlns="http://www.w3.org/2000/svg">
<path fill-rule="evenodd" clip-rule="evenodd" d="M85.8009 104.653C88.2925 106.292 88.986 109.643 87.3499 112.139L68.46 140.95C66.8239 143.445 63.4777 144.14 60.9861 142.501C58.4945 140.863 57.801 137.511 59.4371 135.016L78.327 106.205C79.9631 103.709 83.3093 103.015 85.8009 104.653Z" fill="#B4D2FF" fill-opacity="0.8" stroke="black" stroke-width="5" stroke-linecap="round" stroke-linejoin="round"/>
<path fill-rule="evenodd" clip-rule="evenodd" d="M137.973 104.653C140.464 106.292 141.158 109.643 139.522 112.139L120.632 140.95C118.996 143.445 115.65 144.14 113.158 142.501C110.666 140.863 109.973 137.511 111.609 135.016L130.499 106.205C132.135 103.709 135.481 103.015 137.973 104.653Z" fill="#B4D2FF" fill-opacity="0.8" stroke="black" stroke-width="5" stroke-linecap="round" stroke-linejoin="round"/>
<path fill-rule="evenodd" clip-rule="evenodd" d="M48.6993 124.363C51.1909 126.002 51.8844 129.353 50.2483 131.848L31.3584 160.66C29.7223 163.155 26.3761 163.85 23.8845 162.211C21.3929 160.573 20.6994 157.221 22.3355 154.726L41.2255 125.915C42.8616 123.419 46.2077 122.725 48.6993 124.363Z" fill="#B4D2FF" fill-opacity="0.8" stroke="black" stroke-width="5" stroke-linecap="round" stroke-linejoin="round"/>
<path fill-rule="evenodd" clip-rule="evenodd" d="M100.873 124.363C103.365 126.002 104.058 129.353 102.422 131.848L83.5322 160.66C81.8961 163.155 78.55 163.85 76.0584 162.211C73.5668 160.573 72.8732 157.221 74.5093 154.726L93.3993 125.915C95.0354 123.419 98.3815 122.725 100.873 124.363Z" fill="#B4D2FF" fill-opacity="0.8" stroke="black" stroke-width="5" stroke-linecap="round" stroke-linejoin="round"/>
<path fill-rule="evenodd" clip-rule="evenodd" d="M36.5255 101.755C39.0171 103.393 39.7106 106.745 38.0745 109.24L19.1846 138.051C17.5485 140.547 14.2023 141.241 11.7107 139.603C9.21911 137.964 8.52559 134.613 10.1617 132.117L29.0516 103.306C30.6877 100.811 34.0339 100.116 36.5255 101.755Z" fill="#B4D2FF" fill-opacity="0.8" stroke="black" stroke-width="5" stroke-linecap="round" stroke-linejoin="round"/>
<path d="M29.4972 39.5323L31.0092 39.2197L31.4068 37.7278C36.8115 17.4471 55.3509 2.5 77.39 2.5C102.308 2.5 122.746 21.6051 124.797 45.917L124.965 47.9121L126.949 48.1838C141.262 50.1437 152.28 62.393 152.28 77.1968C152.28 93.3656 139.138 106.484 122.914 106.484H79.6662H36.4188C17.6801 106.484 2.5 91.3325 2.5 72.6558C2.5 56.345 14.0792 42.7192 29.4972 39.5323Z" fill="url(#paint0_linear_1246_611)" stroke="black" stroke-width="5"/>
<defs>
<linearGradient id="paint0_linear_1246_611" x1="77.39" y1="0" x2="77.39" y2="108.984" gradientUnits="userSpaceOnUse">
<stop stop-color="#575757"/>
<stop offset="1" stop-color="#949494"/>
</linearGradient>
</defs>
</svg>
