<svg width="155" height="164" viewBox="0 0 155 164" fill="none" xmlns="http://www.w3.org/2000/svg">
<path fill-rule="evenodd" clip-rule="evenodd" d="M85.8009 104.653C88.2925 106.292 88.986 109.643 87.3499 112.139L68.46 140.95C66.8239 143.445 63.4777 144.14 60.9861 142.501C58.4945 140.863 57.801 137.511 59.4371 135.016L78.327 106.205C79.9631 103.709 83.3093 103.015 85.8009 104.653Z" fill="#B4D2FF" fill-opacity="0.8"/>
<path fill-rule="evenodd" clip-rule="evenodd" d="M137.973 104.653C140.464 106.292 141.158 109.643 139.522 112.139L120.632 140.95C118.996 143.445 115.65 144.14 113.158 142.501C110.666 140.863 109.973 137.511 111.609 135.016L130.499 106.205C132.135 103.709 135.481 103.015 137.973 104.653Z" fill="#B4D2FF" fill-opacity="0.8"/>
<path fill-rule="evenodd" clip-rule="evenodd" d="M48.6993 124.363C51.1909 126.002 51.8844 129.353 50.2483 131.848L31.3584 160.66C29.7223 163.155 26.3761 163.85 23.8845 162.211C21.3929 160.573 20.6994 157.221 22.3355 154.726L41.2255 125.915C42.8616 123.419 46.2077 122.725 48.6993 124.363Z" fill="#B4D2FF" fill-opacity="0.8"/>
<path fill-rule="evenodd" clip-rule="evenodd" d="M100.873 124.363C103.365 126.002 104.058 129.353 102.422 131.848L83.5322 160.66C81.8961 163.155 78.55 163.85 76.0584 162.211C73.5668 160.573 72.8732 157.221 74.5093 154.726L93.3993 125.915C95.0354 123.419 98.3815 122.725 100.873 124.363Z" fill="#B4D2FF" fill-opacity="0.8"/>
<path fill-rule="evenodd" clip-rule="evenodd" d="M36.5255 101.755C39.0171 103.393 39.7106 106.745 38.0745 109.24L19.1846 138.051C17.5485 140.547 14.2023 141.241 11.7107 139.603C9.21911 137.964 8.52559 134.613 10.1617 132.117L29.0516 103.306C30.6877 100.811 34.0339 100.116 36.5255 101.755Z" fill="#B4D2FF" fill-opacity="0.8"/>
<path d="M29.0924 37.5737L29.3948 37.5112L29.4743 37.2128C35.1072 16.0754 54.4252 0.5 77.39 0.5C103.352 0.5 124.652 20.406 126.789 45.7489L126.823 46.1479L127.22 46.2022C142.506 48.2955 154.28 61.3759 154.28 77.1968C154.28 94.4749 140.238 108.484 122.914 108.484H79.6662H36.4188C16.5802 108.484 0.5 92.4418 0.5 72.6558C0.5 55.3741 12.7675 40.948 29.0924 37.5737Z" fill="url(#paint0_linear_1199_785)" stroke="#D7D7D7"/>
<defs>
<linearGradient id="paint0_linear_1199_785" x1="-16.2316" y1="4.19549e-06" x2="154.78" y2="108.984" gradientUnits="userSpaceOnUse">
<stop stop-color="#535353" stop-opacity="0.56"/>
<stop offset="0.593282" stop-color="#BBBABA" stop-opacity="0.37"/>
<stop offset="1" stop-color="white" stop-opacity="0.69"/>
<stop offset="1" stop-color="#D5D3D3" stop-opacity="0.33"/>
</linearGradient>
</defs>
</svg>
