<svg width="100" height="100" viewBox="0 0 100 100" fill="none" xmlns="http://www.w3.org/2000/svg">
    <g clip-path="url(#clip0_1941_6411)">
        <path fill-rule="evenodd" clip-rule="evenodd" d="M34.9604 77.5139C34.9604 80.3658 32.6175 82.6785 29.7284 82.6785C26.8392 82.6785 24.4985 80.3658 24.4985 77.5139C24.4985 74.662 26.8392 72.3492 29.7284 72.3492C32.6175 72.3492 34.9604 74.662 34.9604 77.5139Z" fill="#4FB4ED" />
        <path fill-rule="evenodd" clip-rule="evenodd" d="M54.2964 77.5139C54.2964 80.3658 51.9535 82.6785 49.0643 82.6785C46.1752 82.6785 43.8345 80.3658 43.8345 77.5139C43.8345 74.662 46.1752 72.3492 49.0643 72.3492C51.9535 72.3492 54.2964 74.662 54.2964 77.5139Z" fill="#4FB4ED" />
        <path fill-rule="evenodd" clip-rule="evenodd" d="M73.8306 77.5139C73.8306 80.3658 71.4877 82.6785 68.5985 82.6785C65.7094 82.6785 63.3687 80.3658 63.3687 77.5139C63.3687 74.662 65.7094 72.3492 68.5985 72.3492C71.4877 72.3492 73.8306 74.662 73.8306 77.5139Z" fill="#4FB4ED" />
        <path fill-rule="evenodd" clip-rule="evenodd" d="M20.6578 39.1716C13.6796 39.1716 8 44.8321 8 51.792C8 58.7475 13.6796 64.4102 20.6578 64.4102H75.692C84.4538 64.4102 91.579 57.3031 91.579 48.5676C91.579 39.8321 84.4538 32.725 75.692 32.725C74.062 32.725 72.4409 32.9762 70.8789 33.4678L69.8611 33.7904L69.5013 32.7856C66.1383 23.3572 57.1484 17.0232 47.134 17.0232C34.8908 17.0232 24.7294 26.1701 23.4965 38.2989L23.3825 39.4228L22.2593 39.2842C21.6362 39.2063 21.1273 39.1716 20.6578 39.1716Z" fill="#D6E3F2" />
    </g>
    <defs>
        <clipPath id="clip0_1941_6411">
            <rect width="84" height="66" fill="white" transform="translate(8 17)" />
        </clipPath>
    </defs>
</svg>
    