<svg width="155" height="169" viewBox="0 0 155 169" fill="none" xmlns="http://www.w3.org/2000/svg">
<path fill-rule="evenodd" clip-rule="evenodd" d="M110.149 107.554C112.641 109.192 113.334 112.544 111.698 115.039L92.8077 143.851C91.1716 146.346 87.8254 147.041 85.3338 145.402C82.8422 143.763 82.1486 140.412 83.7847 137.917L102.675 109.105C104.311 106.61 107.657 105.915 110.149 107.554Z" fill="#B4D2FF" fill-opacity="0.8" stroke="black" stroke-width="5" stroke-linecap="round" stroke-linejoin="round"/>
<path fill-rule="evenodd" clip-rule="evenodd" d="M73.0473 127.264C75.5389 128.902 76.2325 132.254 74.5964 134.749L55.7062 163.561C54.0701 166.056 50.7239 166.751 48.2322 165.112C45.7406 163.473 45.0471 160.122 46.6832 157.627L65.5734 128.815C67.2095 126.32 70.5557 125.625 73.0473 127.264Z" fill="#B4D2FF" fill-opacity="0.8" stroke="black" stroke-width="5" stroke-linecap="round" stroke-linejoin="round"/>
<path fill-rule="evenodd" clip-rule="evenodd" d="M60.8735 104.655C63.3651 106.294 64.0586 109.645 62.4225 112.141L43.5323 140.952C41.8962 143.448 38.55 144.142 36.0584 142.504C33.5668 140.865 32.8732 137.514 34.5094 135.018L53.3995 106.207C55.0357 103.711 58.3819 103.017 60.8735 104.655Z" fill="#B4D2FF" fill-opacity="0.8" stroke="black" stroke-width="5" stroke-linecap="round" stroke-linejoin="round"/>
<path d="M29.4976 39.5327L31.0096 39.2202L31.4072 37.7283C36.8119 17.4473 55.3516 2.5 77.391 2.5C102.309 2.5 122.748 21.6054 124.798 45.9176L124.966 47.9127L126.95 48.1843C141.264 50.1443 152.282 62.3937 152.282 77.1978C152.282 93.3668 139.14 106.485 122.915 106.485H79.6672H36.4193C17.6803 106.485 2.5 91.3337 2.5 72.6567C2.5 56.3457 14.0793 42.7197 29.4976 39.5327Z" fill="url(#paint0_linear_1246_642)" stroke="black" stroke-width="5"/>
<defs>
<linearGradient id="paint0_linear_1246_642" x1="77.391" y1="0" x2="77.391" y2="108.985" gradientUnits="userSpaceOnUse">
<stop stop-color="#575757"/>
<stop offset="1" stop-color="#949494"/>
</linearGradient>
</defs>
</svg>
