<svg width="155" height="166" viewBox="0 0 155 166" fill="none" xmlns="http://www.w3.org/2000/svg">
<path d="M29.0927 37.5742L29.3951 37.5116L29.4747 37.2133C35.1077 16.0756 54.4258 0.5 77.391 0.5C103.353 0.5 124.653 20.4062 126.791 45.7495L126.825 46.1485L127.221 46.2028C142.508 48.2961 154.282 61.3766 154.282 77.1978C154.282 94.4761 140.24 108.485 122.915 108.485H79.6672H36.4193C16.5804 108.485 0.5 92.443 0.5 72.6567C0.5 55.3748 12.7677 40.9485 29.0927 37.5742Z" fill="url(#paint0_linear_1199_786)" stroke="#D7D7D7"/>
<path fill-rule="evenodd" clip-rule="evenodd" d="M110.149 107.554C112.641 109.192 113.334 112.544 111.698 115.039L92.8077 143.851C91.1716 146.346 87.8254 147.041 85.3338 145.402C82.8422 143.763 82.1486 140.412 83.7847 137.917L102.675 109.105C104.311 106.61 107.657 105.915 110.149 107.554Z" fill="#B4D2FF" fill-opacity="0.8"/>
<path fill-rule="evenodd" clip-rule="evenodd" d="M73.0473 127.264C75.5389 128.902 76.2325 132.254 74.5964 134.749L55.7062 163.561C54.0701 166.056 50.7239 166.751 48.2322 165.112C45.7406 163.473 45.0471 160.122 46.6832 157.627L65.5734 128.815C67.2095 126.32 70.5557 125.625 73.0473 127.264Z" fill="#B4D2FF" fill-opacity="0.8"/>
<path fill-rule="evenodd" clip-rule="evenodd" d="M60.8735 104.655C63.3651 106.294 64.0586 109.645 62.4225 112.141L43.5323 140.952C41.8962 143.448 38.55 144.142 36.0584 142.504C33.5668 140.865 32.8732 137.514 34.5094 135.018L53.3995 106.207C55.0357 103.711 58.3819 103.017 60.8735 104.655Z" fill="#B4D2FF" fill-opacity="0.8"/>
<defs>
<linearGradient id="paint0_linear_1199_786" x1="-16.2318" y1="4.19555e-06" x2="154.782" y2="108.985" gradientUnits="userSpaceOnUse">
<stop stop-color="#B8B7B7"/>
<stop offset="0.593282" stop-color="#D7D6D6" stop-opacity="0.78"/>
<stop offset="1" stop-color="white" stop-opacity="0.69"/>
<stop offset="1" stop-color="#EDECEC" stop-opacity="0.33"/>
</linearGradient>
</defs>
</svg>
