<svg width="155" height="170" viewBox="0 0 155 170" fill="none" xmlns="http://www.w3.org/2000/svg">
<path fill-rule="evenodd" clip-rule="evenodd" d="M127.537 98.8564C130.029 100.495 130.722 103.846 129.086 106.342L110.196 135.153C108.56 137.648 105.214 138.343 102.722 136.704C100.231 135.066 99.5373 131.714 101.173 129.219L120.063 100.408C121.699 97.9124 125.046 97.2178 127.537 98.8564Z" fill="#B4D2FF" fill-opacity="0.8"/>
<path fill-rule="evenodd" clip-rule="evenodd" d="M49.2774 118.566C51.769 120.205 52.4626 123.556 50.8265 126.052L31.9365 154.863C30.3004 157.358 26.9543 158.053 24.4627 156.414C21.9711 154.776 21.2775 151.424 22.9136 148.929L41.8036 120.118C43.4397 117.622 46.7858 116.928 49.2774 118.566Z" fill="#B4D2FF" fill-opacity="0.8"/>
<path fill-rule="evenodd" clip-rule="evenodd" d="M142.609 118.566C145.101 120.205 145.795 123.556 144.158 126.052L125.269 154.863C123.632 157.358 120.286 158.053 117.795 156.414C115.303 154.776 114.61 151.424 116.246 148.929L135.136 120.118C136.772 117.622 140.118 116.928 142.609 118.566Z" fill="#B4D2FF" fill-opacity="0.8"/>
<path fill-rule="evenodd" clip-rule="evenodd" d="M37.1036 95.958C39.5952 97.5966 40.2887 100.948 38.6526 103.443L19.7627 132.254C18.1266 134.75 14.7804 135.444 12.2888 133.806C9.79724 132.167 9.10372 128.816 10.7398 126.321L29.6298 97.5094C31.2658 95.0139 34.612 94.3194 37.1036 95.958Z" fill="#B4D2FF" fill-opacity="0.8"/>
<path d="M29.0924 37.5737L29.3948 37.5112L29.4743 37.2128C35.1072 16.0754 54.4252 0.5 77.39 0.5C103.352 0.5 124.652 20.406 126.789 45.7489L126.823 46.1479L127.22 46.2022C142.506 48.2955 154.28 61.3759 154.28 77.1968C154.28 94.4749 140.238 108.484 122.914 108.484H79.6662H36.4188C16.5802 108.484 0.5 92.4418 0.5 72.6558C0.5 55.3741 12.7675 40.948 29.0924 37.5737Z" fill="url(#paint0_linear_1199_794)" stroke="#D7D7D7"/>
<path d="M67.2455 108.984L57.9688 139.206L74.2018 141.532L67.2429 169.428L97.3884 134.555L78.8375 129.908L92.75 108.984H67.2455Z" fill="url(#paint1_linear_1199_794)"/>
<defs>
<linearGradient id="paint0_linear_1199_794" x1="-16.2316" y1="4.19549e-06" x2="154.78" y2="108.984" gradientUnits="userSpaceOnUse">
<stop stop-color="#535353" stop-opacity="0.56"/>
<stop offset="0.593282" stop-color="#BBBABA" stop-opacity="0.37"/>
<stop offset="1" stop-color="white" stop-opacity="0.69"/>
<stop offset="1" stop-color="#D5D3D3" stop-opacity="0.33"/>
</linearGradient>
<linearGradient id="paint1_linear_1199_794" x1="77.6786" y1="108.984" x2="77.6786" y2="169.428" gradientUnits="userSpaceOnUse">
<stop stop-color="#FFDD66"/>
<stop offset="1" stop-color="#FFF5D1"/>
</linearGradient>
</defs>
</svg>
