<svg width="155" height="170" viewBox="0 0 155 170" fill="none" xmlns="http://www.w3.org/2000/svg">
<path d="M67.766 98L60 126.649L73.5894 128.853L67.7638 155.297L93 122.239L77.4702 117.835L89.117 98H67.766Z" fill="url(#paint0_linear_1246_650)" stroke="black" stroke-width="5" stroke-linejoin="round"/>
<path fill-rule="evenodd" clip-rule="evenodd" d="M127.537 98.8564C130.029 100.495 130.722 103.846 129.086 106.342L110.196 135.153C108.56 137.648 105.214 138.343 102.722 136.704C100.231 135.066 99.5373 131.714 101.173 129.219L120.063 100.408C121.699 97.9124 125.046 97.2178 127.537 98.8564Z" fill="#B4D2FF" fill-opacity="0.8" stroke="black" stroke-width="5" stroke-linecap="round" stroke-linejoin="round"/>
<path fill-rule="evenodd" clip-rule="evenodd" d="M49.2774 118.566C51.769 120.205 52.4626 123.556 50.8265 126.052L31.9365 154.863C30.3004 157.358 26.9543 158.053 24.4627 156.414C21.9711 154.776 21.2775 151.424 22.9136 148.929L41.8036 120.118C43.4397 117.622 46.7858 116.928 49.2774 118.566Z" fill="#B4D2FF" fill-opacity="0.8" stroke="black" stroke-width="5" stroke-linecap="round" stroke-linejoin="round"/>
<path fill-rule="evenodd" clip-rule="evenodd" d="M142.609 118.566C145.101 120.205 145.795 123.556 144.158 126.052L125.269 154.863C123.632 157.358 120.286 158.053 117.795 156.414C115.303 154.776 114.61 151.424 116.246 148.929L135.136 120.118C136.772 117.622 140.118 116.928 142.609 118.566Z" fill="#B4D2FF" fill-opacity="0.8" stroke="black" stroke-width="5" stroke-linecap="round" stroke-linejoin="round"/>
<path fill-rule="evenodd" clip-rule="evenodd" d="M37.1036 95.958C39.5952 97.5966 40.2887 100.948 38.6526 103.443L19.7627 132.254C18.1266 134.75 14.7804 135.444 12.2888 133.806C9.79724 132.167 9.10372 128.816 10.7398 126.321L29.6298 97.5094C31.2658 95.0139 34.612 94.3194 37.1036 95.958Z" fill="#B4D2FF" fill-opacity="0.8" stroke="black" stroke-width="5" stroke-linecap="round" stroke-linejoin="round"/>
<path d="M29.4972 39.5323L31.0092 39.2197L31.4068 37.7278C36.8115 17.4471 55.3509 2.5 77.39 2.5C102.308 2.5 122.746 21.6051 124.797 45.917L124.965 47.9121L126.949 48.1838C141.262 50.1437 152.28 62.393 152.28 77.1968C152.28 93.3656 139.138 106.484 122.914 106.484H79.6662H36.4188C17.6801 106.484 2.5 91.3325 2.5 72.6558C2.5 56.345 14.0792 42.7192 29.4972 39.5323Z" fill="url(#paint1_linear_1246_650)" stroke="black" stroke-width="5"/>
<defs>
<linearGradient id="paint0_linear_1246_650" x1="76.5" y1="98" x2="76.5" y2="155.297" gradientUnits="userSpaceOnUse">
<stop stop-color="#FFDD66"/>
<stop offset="1" stop-color="#FFF5D1"/>
</linearGradient>
<linearGradient id="paint1_linear_1246_650" x1="77.39" y1="0" x2="77.39" y2="108.984" gradientUnits="userSpaceOnUse">
<stop stop-color="#575757"/>
<stop offset="1" stop-color="#949494"/>
</linearGradient>
</defs>
</svg>
