<svg width="100" height="100" viewBox="0 0 100 100" fill="none" xmlns="http://www.w3.org/2000/svg">
    <g clip-path="url(#clip0_1941_6345)">
        <path fill-rule="evenodd" clip-rule="evenodd" d="M62.9447 60.2432C62.9447 60.2432 60.2 67.7157 60.8936 70.5759C61.4681 72.9374 63.8638 74.3889 66.2383 73.8113C68.6191 73.2316 70.0745 70.8402 69.5021 68.4787C68.8085 65.6205 62.9447 60.2432 62.9447 60.2432Z" fill="#38A1E8" />
        <path fill-rule="evenodd" clip-rule="evenodd" d="M79.9979 59.9265C79.9979 59.9265 77.2532 67.399 77.9468 70.2571C78.5213 72.6208 80.917 74.0722 83.2915 73.4946C85.6724 72.9149 87.1277 70.5236 86.5553 68.162C85.8617 65.3039 79.9979 59.9265 79.9979 59.9265Z" fill="#38A1E8" />
        <path fill-rule="evenodd" clip-rule="evenodd" d="M14.3851 61.2008C14.3851 61.2008 11.6404 68.6733 12.334 71.5314C12.9085 73.8951 15.3042 75.3465 17.6787 74.7689C20.0596 74.1892 21.5149 71.7978 20.9425 69.4363C20.2489 66.5782 14.3851 61.2008 14.3851 61.2008Z" fill="#38A1E8" />
        <path fill-rule="evenodd" clip-rule="evenodd" d="M26.2075 77.4525C26.2075 77.4525 23.4501 84.876 24.1394 87.7107C24.7075 90.0551 27.099 91.4917 29.4756 90.9141C31.8565 90.3344 33.316 87.96 32.7458 85.6156C32.0586 82.7787 26.2075 77.4525 26.2075 77.4525Z" fill="#38A1E8" />
        <path fill-rule="evenodd" clip-rule="evenodd" d="M56.6875 76.4757C56.6875 76.4757 53.9301 83.8992 54.6194 86.7339C55.1875 89.0783 57.579 90.5149 59.9556 89.9373C62.3364 89.3575 63.796 86.9832 63.2258 84.6388C62.5386 81.8019 56.6875 76.4757 56.6875 76.4757Z" fill="#38A1E8" />
        <path fill-rule="evenodd" clip-rule="evenodd" d="M74.7085 75.6429C74.7085 75.6429 71.9511 83.0664 72.6404 85.9011C73.2085 88.2456 75.6 89.6821 77.9766 89.1045C80.3574 88.5248 81.817 86.1505 81.2468 83.806C80.5596 80.9692 74.7085 75.6429 74.7085 75.6429Z" fill="#38A1E8" />
        <path fill-rule="evenodd" clip-rule="evenodd" d="M28.346 65.8844H42.3736L41.6332 63.8234C40.2949 60.0978 39.08 56.7217 38.697 55.6646C38.0587 53.8998 38.0332 52.5272 38.6268 51.7003C39.1119 51.0225 39.8821 50.8818 40.0609 50.8818H44.3077C46.9694 50.8818 48.5949 53.5396 49.1758 55.8138C49.3566 56.5235 49.5673 57.3398 49.797 58.2328C50.7226 61.822 51.9907 66.739 52.8715 70.5733C53.4949 73.2865 52.88 74.4225 52.5864 74.7849C52.3141 75.1216 51.9353 75.2836 51.4268 75.2836H36.829L41.9396 89.879C42.1758 90.5504 42.1396 90.9212 42.097 91.0385C41.9034 91.0662 41.2077 90.9063 40.58 90.0048C37.6077 85.7314 30.1162 74.6804 26.846 69.6483C26.0545 68.4292 25.8034 67.4253 26.1396 66.82C26.446 66.2701 27.3524 65.8844 28.346 65.8844Z" fill="#F9C900" />
        <path fill-rule="evenodd" clip-rule="evenodd" d="M88.0729 33.89C94.2006 33.89 99.1857 38.9498 99.1857 45.1734C99.1857 51.3926 94.2006 56.4524 88.0729 56.4524H39.7559C32.0665 56.4524 25.8091 50.0989 25.8091 42.2896C25.8091 34.4804 32.0665 28.1269 39.7559 28.1269C41.1878 28.1269 42.6112 28.3507 43.9814 28.7919L44.8772 29.0796L45.1921 28.1823C48.1453 19.7528 56.0367 14.0898 64.8282 14.0898C75.5772 14.0898 84.4984 22.2657 85.5814 33.11L85.6814 34.1138L86.6687 33.9902C87.2133 33.922 87.6601 33.89 88.0729 33.89Z" fill="#D6E3F2" />
        <path fill-rule="evenodd" clip-rule="evenodd" d="M12.2766 31.6774C5.50851 31.6774 0 37.2488 0 44.0989C0 50.9448 5.50851 56.5182 12.2766 56.5182H65.6532C74.1511 56.5182 81.0617 49.5232 81.0617 40.9253C81.0617 32.3275 74.1511 25.3324 65.6532 25.3324C64.0723 25.3324 62.5 25.5797 60.9851 26.0635L59.9979 26.381L59.6489 25.3921C56.3872 16.1122 47.6681 9.87805 37.9553 9.87805C26.0809 9.87805 16.2255 18.8808 15.0298 30.8185L14.9191 31.9247L13.8298 31.7883C13.2255 31.7115 12.7319 31.6774 12.2766 31.6774Z" fill="#BAC6D1" />
    </g>
    <defs>
        <clipPath id="clip0_1941_6345">
            <rect width="100" height="83" fill="white" transform="translate(0 9)" />
        </clipPath>
    </defs>
</svg>
    