<svg width="38" height="37" xmlns="http://www.w3.org/2000/svg" fill="none">

 <g>
  <title>Layer 1</title>
  <path transform="rotate(-90.0896 19.3331 18.4898)" stroke="null" id="svg_1" fill="#9DB5FF" d="m0.94688,18.48985c0,-2.4932 0.48343,-4.8786 1.45028,-7.1561c0.96686,-2.27749 2.26931,-4.23133 3.90736,-5.86154c1.63806,-1.6302 3.58775,-2.93276 5.84911,-3.90769c2.26131,-0.97492 4.63841,-1.46238 7.1315,-1.46238c2.50899,0 4.89819,0.48746 7.1675,1.46238c2.26931,0.97493 4.22694,2.28149 5.873,3.91968c1.64606,1.63819 2.95645,3.59204 3.93137,5.86155c0.97482,2.2695 1.46228,4.6429 1.46228,7.1201c0,2.4933 -0.48746,4.8787 -1.46228,7.1561c-0.97492,2.2775 -2.28531,4.2394 -3.93137,5.8856c-1.64606,1.6461 -3.6037,2.9527 -5.873,3.9196c-2.26931,0.967 -4.65051,1.4504 -7.1435,1.4504c-2.47709,0 -4.85029,-0.4834 -7.1196,-1.4504c-2.26929,-0.9669 -4.22297,-2.2695 -5.86103,-3.9077c-1.63806,-1.6382 -2.94451,-3.592 -3.91935,-5.8615c-0.97485,-2.2695 -1.46227,-4.6589 -1.46227,-7.1681zm4.02722,0c0,2.5892 0.64324,4.9825 1.92971,7.1801c1.28647,2.1976 3.0324,3.9317 5.23782,5.2023c2.20531,1.2706 4.59451,1.9059 7.1675,1.9059c1.93364,0 3.78748,-0.3796 5.56133,-1.1388c1.77395,-0.7592 3.30412,-1.778 4.59061,-3.0566c1.28649,-1.2786 2.30921,-2.8009 3.06834,-4.567c0.75904,-1.766 1.1386,-3.616 1.1386,-5.5499c0,-3.8997 -1.42228,-7.2719 -4.26694,-10.11681c-2.84456,-2.8129 -6.21658,-4.21935 -10.11595,-4.21935c-1.93374,0 -3.78348,0.38358 -5.54943,1.15074c-1.76585,0.76715 -3.28812,1.79002 -4.56657,3.06861c-1.27849,1.27859 -2.29728,2.80491 -3.05637,4.57891c-0.75911,1.7741 -1.13865,3.628 -1.13865,5.5619zm7.74278,5.9455l2.15752,-5.7297c0.07989,-0.1599 0.07989,-0.3277 0,-0.5035l-2.15752,-5.6338c-0.07989,-0.1598 -0.07189,-0.2876 0.024,-0.3835c0.09589,-0.0959 0.23178,-0.1039 0.40757,-0.024l14.33489,6.0413c0.17589,0.032 0.26378,0.1199 0.26378,0.2637c0,0.1279 -0.08789,0.2078 -0.26378,0.2398l-14.33489,6.1612c-0.17579,0.0639 -0.31167,0.0519 -0.40757,-0.036c-0.09589,-0.0879 -0.10389,-0.2197 -0.024,-0.3955z"/>
 </g>
</svg>