<svg width="26" height="35" viewBox="0 0 26 35" fill="none" xmlns="http://www.w3.org/2000/svg">
<path d="M13.8835 0.418284C13.7876 0.307623 13.6686 0.218786 13.5346 0.157877C13.4007 0.0969678 13.255 0.0654297 13.1075 0.0654297C12.9601 0.0654297 12.8144 0.0969678 12.6805 0.157877C12.5465 0.218786 12.4275 0.307623 12.3316 0.418284C9.63643 3.53293 0.848633 14.3009 0.848633 22.2771C0.848633 29.7101 5.58517 34.3892 13.1071 34.3892C20.6291 34.3892 25.3656 29.7101 25.3656 22.2771C25.3656 14.3009 16.5778 3.53293 13.8835 0.418284ZM14.4692 30.0154C14.3056 30.0157 14.1442 29.9773 13.9988 29.9032C13.8534 29.8291 13.7281 29.7216 13.6335 29.5897C13.5389 29.4578 13.4777 29.3054 13.4552 29.1453C13.4326 28.9852 13.4493 28.822 13.5038 28.6696C13.5735 28.4707 13.7049 28.2986 13.8792 28.1778C14.0536 28.057 14.2622 27.9936 14.4751 27.9967C15.8273 27.9938 17.1232 27.4618 18.0794 26.5171C19.0355 25.5724 19.5739 24.2919 19.5769 22.9559C19.5738 22.7455 19.6379 22.5395 19.7602 22.3672C19.8825 22.1948 20.0566 22.065 20.2579 21.9962C20.4122 21.9423 20.5773 21.9258 20.7393 21.9481C20.9014 21.9704 21.0556 22.0309 21.1891 22.1243C21.3226 22.2178 21.4314 22.3416 21.5064 22.4853C21.5814 22.629 21.6203 22.7884 21.62 22.95C21.6179 24.8233 20.8639 26.6192 19.5233 27.9438C18.1827 29.2684 16.3651 30.0134 14.4692 30.0154Z" fill="#9DB5FF"/>
</svg>
