<svg width="26" height="50" viewBox="0 0 26 50" fill="none" xmlns="http://www.w3.org/2000/svg">
<path d="M12.8395 0.161621C14.8744 0.161452 16.8322 0.939792 18.3115 2.33703C19.7908 3.73427 20.6795 5.64453 20.7953 7.67607L20.8076 8.12964L20.81 27.6255L21.0061 27.7947C23.2909 29.8317 24.729 32.6511 25.0367 35.6965L25.0833 36.3143L25.098 36.9371C25.0984 38.9568 24.5997 40.9454 23.6462 42.7259C22.6928 44.5064 21.3142 46.0238 19.633 47.1431C17.9518 48.2624 16.02 48.949 14.0095 49.1418C11.999 49.3345 9.97198 49.0275 8.1087 48.2481C6.24543 47.4686 4.60362 46.2408 3.32924 44.6739C2.05485 43.1069 1.18739 41.2494 0.80397 39.2664C0.420547 37.2833 0.533044 35.2363 1.13146 33.3073C1.72988 31.3782 2.79567 29.6269 4.23408 28.209L4.67539 27.7922L4.86907 27.6255L4.87152 8.12964C4.87112 6.17148 5.59178 4.28173 6.89596 2.82109C8.20014 1.36044 9.99652 0.431174 11.9422 0.210655L12.3884 0.17388L12.8395 0.161621ZM12.8395 3.83917C11.7624 3.83926 10.7247 4.24451 9.93254 4.97442C9.1404 5.70433 8.6518 6.70549 8.56378 7.77904L8.54907 8.12964V29.4447L7.79149 29.9963C6.34409 31.0491 5.26212 32.5282 4.69705 34.2265C4.13198 35.9248 4.11209 37.7572 4.64016 39.4674C5.16823 41.1775 6.21782 42.6797 7.64203 43.7637C9.06624 44.8477 10.7938 45.4593 12.5828 45.5127C14.3718 45.5662 16.1328 45.0589 17.6192 44.0619C19.1055 43.0649 20.243 41.628 20.8722 39.9525C21.5015 38.2769 21.5911 36.4465 21.1284 34.7176C20.6658 32.9886 19.6741 31.4475 18.2921 30.3101L17.8876 29.9988L17.1349 29.4471L17.13 8.12964C17.13 6.99173 16.678 5.90043 15.8734 5.09582C15.0687 4.2912 13.9774 3.83917 12.8395 3.83917ZM12.8395 14.8718C13.3272 14.8718 13.7949 15.0655 14.1397 15.4104C14.4846 15.7552 14.6783 16.2229 14.6783 16.7106V31.0898C16.0759 31.5291 17.27 32.4543 18.0445 33.6979C18.8189 34.9415 19.1225 36.4213 18.9003 37.8694C18.678 39.3175 17.9447 40.6381 16.8329 41.5923C15.7212 42.5464 14.3046 43.071 12.8395 43.071C11.3745 43.071 9.95789 42.5464 8.84615 41.5923C7.73442 40.6381 7.00105 39.3175 6.77881 37.8694C6.55657 36.4213 6.86015 34.9415 7.6346 33.6979C8.40904 32.4543 9.60316 31.5291 11.0008 31.0898V16.7106C11.0008 16.2229 11.1945 15.7552 11.5393 15.4104C11.8842 15.0655 12.3519 14.8718 12.8395 14.8718Z" fill="#9DB5FF"/>
</svg>
