<svg width="42" height="43" viewBox="0 0 42 43" fill="none" xmlns="http://www.w3.org/2000/svg">
<path d="M22.5774 9.97416C22.5774 6.62249 19.8509 3.896 16.4992 3.896C12.967 3.896 10.8552 6.54434 10.8552 9.10585H14.3285C14.3285 8.38515 15.0023 7.36923 16.4992 7.36923C17.9354 7.36923 19.1042 8.53798 19.1042 9.97416C19.1042 11.4103 17.9354 12.5791 16.4992 12.5791H3.47461V16.0523H16.4992C19.8509 16.0523 22.5774 13.3258 22.5774 9.97416ZM26.919 26.472H13.8943V29.9453H26.919C28.3551 29.9453 29.5239 31.114 29.5239 32.5502C29.5239 33.9864 28.3551 35.1551 26.919 35.1551C25.422 35.1551 24.7482 34.1392 24.7482 33.4185H21.2749C21.2749 35.98 23.3867 38.6284 26.919 38.6284C30.2706 38.6284 32.9971 35.9019 32.9971 32.5502C32.9971 29.1985 30.2706 26.472 26.919 26.472Z" fill="#9DB5FF"/>
<path d="M31.2605 9.10596C27.4295 9.10596 24.314 12.2215 24.314 16.0524H27.7873C27.7873 14.1369 29.345 12.5792 31.2605 12.5792C33.176 12.5792 34.7337 14.1369 34.7337 16.0524C34.7337 17.9679 33.176 19.5257 31.2605 19.5257H3.47461V22.9989H31.2605C35.0915 22.9989 38.207 19.8834 38.207 16.0524C38.207 12.2215 35.0915 9.10596 31.2605 9.10596ZM3.47461 26.4721H10.4211V29.9454H3.47461V26.4721Z" fill="#9DB5FF"/>
</svg>
