<svg width="50" height="50" viewBox="0 0 50 50" fill="none" xmlns="http://www.w3.org/2000/svg">
<path d="M29.2664 13.4535V9.47852H10.9883V42.1316H40.6414V31.8504C39.832 32.6473 38.1555 34.0754 35.4742 34.9723C34.0242 35.4566 32.2242 35.7332 30.2727 35.8254C28.7604 35.9685 27.2348 35.8029 25.7885 35.3385C24.3422 34.8742 23.0053 34.1208 21.859 33.1241C20.7127 32.1274 19.7808 30.9081 19.1201 29.5404C18.4593 28.1726 18.0833 26.6848 18.0149 25.1673C17.9466 23.6498 18.1873 22.1343 18.7224 20.7126C19.2576 19.291 20.076 17.9929 21.1281 16.8972C22.1802 15.8014 23.4439 14.9309 24.8426 14.3384C26.2413 13.7459 27.7458 13.4438 29.2648 13.4504L29.2664 13.4535Z" fill="#26C9FC"/>
<path d="M3.13281 23.6783V45.3002C3.13281 45.7146 3.29743 46.112 3.59046 46.405C3.88348 46.6981 4.28091 46.8627 4.69531 46.8627H45.3047C45.7191 46.8627 46.1165 46.6981 46.4095 46.405C46.7026 46.112 46.8672 45.7146 46.8672 45.3002V27.8814C42.9797 29.3189 40.6 32.0424 37.6781 34.4205C34.9078 36.6736 31.4875 38.6236 26.5688 38.6236C19.9297 38.6236 12.2 32.6518 12.2 24.8221C12.2 15.4174 20.2969 11.408 24.7547 11.408C26.5484 11.408 27.3141 11.7908 27.6203 11.9814L29.5109 14.5596H36.0469V13.0705C34.9969 10.108 30.5094 4.18457 20.9703 4.18457C12.2 4.18457 3.13281 13.0705 3.13281 23.6783V23.6783Z" fill="#00A6ED"/>
<path d="M34.6789 9.1595C34.686 9.39734 34.6452 9.63418 34.5591 9.85598C34.4729 10.0778 34.3431 10.28 34.1774 10.4508C34.0116 10.6215 33.8133 10.7572 33.5942 10.8499C33.375 10.9426 33.1395 10.9903 32.9016 10.9903C32.6636 10.9903 32.4281 10.9426 32.2089 10.8499C31.9898 10.7572 31.7915 10.6215 31.6257 10.4508C31.46 10.28 31.3302 10.0778 31.2441 9.85598C31.1579 9.63418 31.1172 9.39734 31.1242 9.1595C31.1379 8.69724 31.3312 8.25851 31.663 7.93639C31.9948 7.61426 32.4391 7.43408 32.9016 7.43408C33.364 7.43408 33.8083 7.61426 34.1401 7.93639C34.4719 8.25851 34.6652 8.69724 34.6789 9.1595ZM43.6336 16.0564C43.8714 16.0634 44.1083 16.0227 44.3301 15.9365C44.5519 15.8504 44.7541 15.7206 44.9248 15.5549C45.0956 15.3891 45.2313 15.1908 45.324 14.9717C45.4167 14.7525 45.4644 14.517 45.4644 14.279C45.4644 14.0411 45.4167 13.8056 45.324 13.5864C45.2313 13.3673 45.0956 13.169 44.9248 13.0032C44.7541 12.8375 44.5519 12.7077 44.3301 12.6215C44.1083 12.5354 43.8714 12.4946 43.6336 12.5017C43.1713 12.5154 42.7326 12.7087 42.4105 13.0405C42.0883 13.3723 41.9082 13.8166 41.9082 14.279C41.9082 14.7415 42.0883 15.1858 42.4105 15.5176C42.7326 15.8494 43.1713 16.0427 43.6336 16.0564ZM43.6336 25.1783C43.8714 25.1853 44.1083 25.1446 44.3301 25.0584C44.5519 24.9723 44.7541 24.8425 44.9248 24.6767C45.0956 24.511 45.2313 24.3127 45.324 24.0935C45.4167 23.8744 45.4644 23.6389 45.4644 23.4009C45.4644 23.163 45.4167 22.9274 45.324 22.7083C45.2313 22.4891 45.0956 22.2908 44.9248 22.1251C44.7541 21.9594 44.5519 21.8296 44.3301 21.7434C44.1083 21.6573 43.8714 21.6165 43.6336 21.6236C43.1713 21.6373 42.7326 21.8305 42.4105 22.1624C42.0883 22.4942 41.9082 22.9384 41.9082 23.4009C41.9082 23.8634 42.0883 24.3076 42.4105 24.6395C42.7326 24.9713 43.1713 25.1645 43.6336 25.1783V25.1783ZM29.9773 22.0908C29.9844 22.3286 29.9436 22.5654 29.8575 22.7872C29.7713 23.009 29.6416 23.2113 29.4758 23.382C29.3101 23.5527 29.1118 23.6885 28.8926 23.7811C28.6735 23.8738 28.4379 23.9216 28.2 23.9216C27.9621 23.9216 27.7265 23.8738 27.5074 23.7811C27.2882 23.6885 27.0899 23.5527 26.9242 23.382C26.7584 23.2113 26.6287 23.009 26.5425 22.7872C26.4564 22.5654 26.4156 22.3286 26.4227 22.0908C26.4364 21.6285 26.6296 21.1898 26.9614 20.8676C27.2933 20.5455 27.7375 20.3653 28.2 20.3653C28.6625 20.3653 29.1067 20.5455 29.4385 20.8676C29.7704 21.1898 29.9636 21.6285 29.9773 22.0908Z" fill="#B4F6FC"/>
<path d="M39.0981 20.6176C39.4981 20.6177 39.8865 20.4829 40.2005 20.235C40.5145 19.9871 40.7357 19.6406 40.8284 19.2514C40.9211 18.8622 40.8798 18.4532 40.7113 18.0903C40.5427 17.7275 40.2568 17.4321 39.8996 17.2519C40.2118 16.8011 40.4317 16.2929 40.5467 15.7566C40.6616 15.2204 40.6692 14.6667 40.5692 14.1275C40.4691 13.5883 40.2634 13.0742 39.9637 12.6149C39.6641 12.1556 39.2765 11.7601 38.8234 11.4513C38.3702 11.1424 37.8604 10.9263 37.3233 10.8154C36.7862 10.7045 36.2325 10.7009 35.6941 10.805C35.1556 10.909 34.6431 11.1186 34.186 11.4217C33.7289 11.7247 33.3363 12.1152 33.0309 12.5707C32.6732 12.0425 32.1985 11.6039 31.6439 11.2888C31.0892 10.9738 30.4693 10.7908 29.8325 10.7541C29.1956 10.7173 28.5589 10.8279 27.9717 11.0771C27.3845 11.3263 26.8626 11.7074 26.4465 12.191C25.8923 11.5492 25.1551 11.0923 24.3338 10.8816C23.5125 10.6708 22.6464 10.7163 21.8516 11.012C21.0569 11.3076 20.3716 11.8392 19.8878 12.5355C19.4039 13.2318 19.1445 14.0595 19.1445 14.9074C19.1445 15.7553 19.4039 16.583 19.8878 17.2793C20.3716 17.9756 21.0569 18.5072 21.8516 18.8028C22.6464 19.0985 23.5125 19.144 24.3338 18.9332C25.1551 18.7225 25.8923 18.2656 26.4465 17.6238C26.8626 18.1074 27.3845 18.4885 27.9717 18.7377C28.5589 18.9869 29.1956 19.0975 29.8325 19.0607C30.4693 19.024 31.0892 18.841 31.6439 18.526C32.1985 18.2109 32.6732 17.7723 33.0309 17.2441C33.4941 17.9265 34.15 18.4554 34.915 18.7634C35.68 19.0715 36.5194 19.1447 37.3262 18.9738C37.3601 19.4206 37.5614 19.8382 37.8899 20.143C38.2184 20.4478 38.6499 20.6173 39.0981 20.6176Z" fill="#B4F6FC"/>
</svg>
