<svg width="631" height="745" viewBox="0 0 631 745" fill="none" xmlns="http://www.w3.org/2000/svg">
<rect x="202" width="336" height="169.846" rx="8.50633" fill="url(#paint0_linear_1035_1516)" fill-opacity="0.5"/>
<path d="M296.154 4.68604V157.758" stroke="white" stroke-width="0.387511"/>
<path d="M371.846 4.68604V157.758" stroke="white" stroke-width="0.387511"/>
<path d="M447.538 4.68604V157.758" stroke="white" stroke-width="0.387511"/>
<path d="M209.655 57.4178C225.179 65.4279 260.566 79.7044 277.919 72.7292C299.61 64.0102 312.369 37.2153 318.324 38.2786C324.278 39.3419 331.083 54.4406 337.25 61.8836C343.417 69.3266 352.349 65.9241 363.407 69.3266C374.465 72.7292 400.622 72.7292 407.215 76.557C413.807 80.3849 453.574 78.8963 466.334 56.1418C479.093 33.3874 500.997 41.8937 502.698 44.6583C504.4 47.4228 511.63 76.557 526.516 74.6431" stroke="url(#paint1_linear_1035_1516)" stroke-width="4.25316"/>
<path d="M211.995 119.089C215.539 125.327 224.925 134.06 234.112 119.089C245.595 100.375 248.572 114.623 255.803 115.899C263.033 117.175 277.069 122.704 281.747 123.767C286.425 124.831 297.909 138.228 301.099 137.378C304.289 136.527 311.732 133.337 314.284 130.36C316.836 127.383 322.577 123.342 332.147 130.36C341.717 137.378 346.82 133.337 348.947 130.36C351.074 127.383 360.218 114.623 370.425 123.767C380.633 132.912 386.162 130.998 391.266 127.383C396.37 123.767 408.279 123.767 416.998 123.767C425.717 123.767 427.631 125.894 435.924 123.767C444.218 121.641 471.651 123.767 478.243 123.767C484.836 123.767 495.894 133.975 498.02 133.337C500.147 132.699 508.932 130.36 511.909 115.899C514.886 101.438 517.307 95.909 527.58 104.203" stroke="#D8DAFF" stroke-width="2.12658" stroke-dasharray="2.13 2.13"/>
<path d="M219.403 74.9328V75.7749H215.453V75.1089L217.581 73.0878C217.821 72.8581 217.981 72.659 218.063 72.4906C218.15 72.3171 218.193 72.1461 218.193 71.9777C218.193 71.7276 218.109 71.5362 217.941 71.4035C217.772 71.2708 217.525 71.2045 217.198 71.2045C216.652 71.2045 216.233 71.3907 215.942 71.7633L215.246 71.2274C215.455 70.9467 215.736 70.7298 216.088 70.5767C216.445 70.4185 216.843 70.3394 217.282 70.3394C217.864 70.3394 218.329 70.4772 218.676 70.7528C219.023 71.0284 219.196 71.4035 219.196 71.8782C219.196 72.1691 219.135 72.4421 219.012 72.6973C218.89 72.9525 218.655 73.2434 218.308 73.5701L216.876 74.9328H219.403ZM222.696 72.4676C223.048 72.4676 223.364 72.5365 223.645 72.6743C223.926 72.807 224.145 72.9984 224.303 73.2485C224.461 73.4986 224.541 73.787 224.541 74.1136C224.541 74.4607 224.454 74.7669 224.28 75.0323C224.107 75.2926 223.872 75.4942 223.576 75.6371C223.28 75.78 222.948 75.8515 222.581 75.8515C221.846 75.8515 221.274 75.6218 220.866 75.1624C220.463 74.7031 220.261 74.0447 220.261 73.1873C220.261 72.585 220.371 72.0721 220.59 71.6485C220.81 71.2198 221.116 70.8957 221.509 70.6762C221.907 70.4516 222.366 70.3394 222.887 70.3394C223.163 70.3394 223.42 70.37 223.66 70.4312C223.905 70.4874 224.117 70.5716 224.296 70.6839L223.928 71.4341C223.663 71.2606 223.323 71.1738 222.91 71.1738C222.394 71.1738 221.991 71.332 221.7 71.6485C221.409 71.9649 221.264 72.4217 221.264 73.0189V73.0265C221.422 72.8428 221.624 72.705 221.869 72.6131C222.114 72.5161 222.389 72.4676 222.696 72.4676ZM222.527 75.0706C222.838 75.0706 223.091 74.9889 223.285 74.8256C223.479 74.6572 223.576 74.4352 223.576 74.1596C223.576 73.8788 223.479 73.6568 223.285 73.4935C223.091 73.3302 222.831 73.2485 222.504 73.2485C222.183 73.2485 221.92 73.3353 221.716 73.5088C221.517 73.6823 221.417 73.9018 221.417 74.1672C221.417 74.4275 221.514 74.6444 221.708 74.8179C221.907 74.9864 222.18 75.0706 222.527 75.0706Z" fill="#F9B400"/>
<path d="M219.5 115.925V121.284H218.505V116.759H217.372V115.925H219.5ZM221.467 121.337C221.293 121.337 221.145 121.279 221.022 121.161C220.9 121.039 220.839 120.886 220.839 120.702C220.839 120.513 220.897 120.36 221.015 120.243C221.137 120.125 221.288 120.066 221.467 120.066C221.645 120.066 221.793 120.125 221.911 120.243C222.033 120.36 222.094 120.513 222.094 120.702C222.094 120.886 222.033 121.039 221.911 121.161C221.788 121.279 221.64 121.337 221.467 121.337ZM226.975 115.925V116.591L224.892 121.284H223.828L225.842 116.767H223.736V117.678H222.81V115.925H226.975Z" fill="#D8DAFF"/>
<path d="M298.993 129.016C298.564 129.016 298.182 128.909 297.845 128.694C297.508 128.475 297.243 128.158 297.049 127.745C296.855 127.326 296.758 126.831 296.758 126.26C296.758 125.688 296.855 125.196 297.049 124.782C297.243 124.364 297.508 124.047 297.845 123.833C298.182 123.613 298.564 123.504 298.993 123.504C299.422 123.504 299.805 123.613 300.142 123.833C300.484 124.047 300.751 124.364 300.945 124.782C301.139 125.196 301.236 125.688 301.236 126.26C301.236 126.831 301.139 127.326 300.945 127.745C300.751 128.158 300.484 128.475 300.142 128.694C299.805 128.909 299.422 129.016 298.993 129.016ZM298.993 128.151C299.376 128.151 299.677 127.992 299.897 127.676C300.121 127.36 300.233 126.887 300.233 126.26C300.233 125.632 300.121 125.16 299.897 124.843C299.677 124.527 299.376 124.369 298.993 124.369C298.616 124.369 298.314 124.527 298.09 124.843C297.87 125.16 297.761 125.632 297.761 126.26C297.761 126.887 297.87 127.36 298.09 127.676C298.314 127.992 298.616 128.151 298.993 128.151ZM302.723 128.993C302.549 128.993 302.401 128.934 302.279 128.817C302.156 128.694 302.095 128.541 302.095 128.357C302.095 128.169 302.153 128.015 302.271 127.898C302.393 127.781 302.544 127.722 302.723 127.722C302.901 127.722 303.049 127.781 303.167 127.898C303.289 128.015 303.35 128.169 303.35 128.357C303.35 128.541 303.289 128.694 303.167 128.817C303.044 128.934 302.896 128.993 302.723 128.993ZM308.231 123.58V124.246L306.148 128.939H305.084L307.098 124.422H304.992V125.333H304.066V123.58H308.231Z" fill="#D8DAFF"/>
<path d="M338.123 128.165C337.694 128.165 337.312 128.058 336.975 127.844C336.638 127.624 336.372 127.308 336.179 126.894C335.985 126.476 335.888 125.981 335.888 125.409C335.888 124.838 335.985 124.345 336.179 123.932C336.372 123.513 336.638 123.197 336.975 122.982C337.312 122.763 337.694 122.653 338.123 122.653C338.552 122.653 338.935 122.763 339.271 122.982C339.613 123.197 339.881 123.513 340.075 123.932C340.269 124.345 340.366 124.838 340.366 125.409C340.366 125.981 340.269 126.476 340.075 126.894C339.881 127.308 339.613 127.624 339.271 127.844C338.935 128.058 338.552 128.165 338.123 128.165ZM338.123 127.3C338.506 127.3 338.807 127.142 339.026 126.825C339.251 126.509 339.363 126.037 339.363 125.409C339.363 124.781 339.251 124.309 339.026 123.993C338.807 123.676 338.506 123.518 338.123 123.518C337.745 123.518 337.444 123.676 337.22 123.993C337 124.309 336.891 124.781 336.891 125.409C336.891 126.037 337 126.509 337.22 126.825C337.444 127.142 337.745 127.3 338.123 127.3ZM341.852 128.142C341.679 128.142 341.531 128.084 341.408 127.966C341.286 127.844 341.225 127.691 341.225 127.507C341.225 127.318 341.283 127.165 341.401 127.047C341.523 126.93 341.674 126.871 341.852 126.871C342.031 126.871 342.179 126.93 342.296 127.047C342.419 127.165 342.48 127.318 342.48 127.507C342.48 127.691 342.419 127.844 342.296 127.966C342.174 128.084 342.026 128.142 341.852 128.142ZM345.237 122.653C345.972 122.653 346.541 122.883 346.945 123.342C347.353 123.801 347.557 124.46 347.557 125.317C347.557 125.92 347.447 126.435 347.228 126.864C347.008 127.287 346.7 127.611 346.301 127.836C345.908 128.055 345.452 128.165 344.931 128.165C344.655 128.165 344.395 128.137 344.15 128.081C343.91 128.02 343.701 127.933 343.522 127.821L343.89 127.07C344.155 127.244 344.495 127.331 344.908 127.331C345.424 127.331 345.827 127.172 346.118 126.856C346.409 126.54 346.554 126.083 346.554 125.486V125.478C346.396 125.662 346.194 125.802 345.949 125.899C345.704 125.991 345.429 126.037 345.122 126.037C344.77 126.037 344.454 125.971 344.173 125.838C343.892 125.7 343.673 125.506 343.515 125.256C343.357 125.006 343.277 124.718 343.277 124.391C343.277 124.044 343.364 123.74 343.538 123.48C343.711 123.214 343.946 123.01 344.242 122.867C344.538 122.725 344.87 122.653 345.237 122.653ZM345.314 125.256C345.635 125.256 345.896 125.169 346.095 124.996C346.299 124.822 346.401 124.603 346.401 124.337C346.401 124.077 346.301 123.863 346.102 123.694C345.908 123.521 345.638 123.434 345.291 123.434C344.98 123.434 344.727 123.518 344.533 123.687C344.339 123.85 344.242 124.069 344.242 124.345C344.242 124.626 344.339 124.848 344.533 125.011C344.727 125.174 344.987 125.256 345.314 125.256Z" fill="#D8DAFF"/>
<path d="M377.719 118.902V124.261H376.724V119.736H375.591V118.902H377.719ZM379.685 124.314C379.512 124.314 379.364 124.256 379.241 124.138C379.119 124.016 379.057 123.863 379.057 123.679C379.057 123.49 379.116 123.337 379.234 123.22C379.356 123.102 379.507 123.043 379.685 123.043C379.864 123.043 380.012 123.102 380.129 123.22C380.252 123.337 380.313 123.49 380.313 123.679C380.313 123.863 380.252 124.016 380.129 124.138C380.007 124.256 379.859 124.314 379.685 124.314ZM382.94 120.976C383.695 120.976 384.254 121.124 384.617 121.42C384.979 121.711 385.16 122.109 385.16 122.615C385.16 122.936 385.081 123.227 384.923 123.488C384.765 123.748 384.527 123.955 384.211 124.108C383.894 124.261 383.504 124.337 383.04 124.337C382.657 124.337 382.287 124.284 381.929 124.177C381.572 124.064 381.271 123.911 381.026 123.717L381.447 122.944C381.646 123.107 381.884 123.237 382.159 123.334C382.44 123.426 382.728 123.472 383.024 123.472C383.376 123.472 383.652 123.401 383.851 123.258C384.055 123.11 384.157 122.908 384.157 122.653C384.157 122.377 384.048 122.171 383.828 122.033C383.614 121.89 383.244 121.819 382.718 121.819H381.424L381.7 118.902H384.846V119.736H382.542L382.427 120.976H382.94Z" fill="#D8DAFF"/>
<path d="M418.025 117.89V118.732H414.075V118.066L416.203 116.045C416.443 115.815 416.604 115.616 416.685 115.447C416.772 115.274 416.815 115.103 416.815 114.934C416.815 114.684 416.731 114.493 416.563 114.36C416.394 114.228 416.147 114.161 415.82 114.161C415.274 114.161 414.855 114.348 414.565 114.72L413.868 114.184C414.077 113.903 414.358 113.687 414.71 113.533C415.067 113.375 415.465 113.296 415.904 113.296C416.486 113.296 416.951 113.434 417.298 113.71C417.645 113.985 417.818 114.36 417.818 114.835C417.818 115.126 417.757 115.399 417.634 115.654C417.512 115.909 417.277 116.2 416.93 116.527L415.499 117.89H418.025ZM419.577 118.785C419.404 118.785 419.256 118.727 419.133 118.609C419.011 118.487 418.95 118.334 418.95 118.15C418.95 117.961 419.008 117.808 419.126 117.691C419.248 117.573 419.399 117.514 419.577 117.514C419.756 117.514 419.904 117.573 420.022 117.691C420.144 117.808 420.205 117.961 420.205 118.15C420.205 118.334 420.144 118.487 420.022 118.609C419.899 118.727 419.751 118.785 419.577 118.785ZM425.895 117.514H424.946V118.732H423.981V117.514H421.042V116.825L423.683 113.373H424.747L422.259 116.672H424.012V115.593H424.946V116.672H425.895V117.514Z" fill="#D8DAFF"/>
<path d="M458.857 114.912V115.754H454.907V115.088L457.035 113.067C457.275 112.838 457.436 112.639 457.517 112.47C457.604 112.297 457.647 112.126 457.647 111.957C457.647 111.707 457.563 111.516 457.395 111.383C457.226 111.25 456.979 111.184 456.652 111.184C456.106 111.184 455.688 111.37 455.397 111.743L454.7 111.207C454.909 110.926 455.19 110.709 455.542 110.556C455.899 110.398 456.297 110.319 456.736 110.319C457.318 110.319 457.783 110.457 458.13 110.732C458.477 111.008 458.65 111.383 458.65 111.858C458.65 112.149 458.589 112.422 458.467 112.677C458.344 112.932 458.109 113.223 457.762 113.55L456.331 114.912H458.857ZM460.41 115.808C460.236 115.808 460.088 115.749 459.965 115.632C459.843 115.509 459.782 115.356 459.782 115.173C459.782 114.984 459.84 114.831 459.958 114.713C460.08 114.596 460.231 114.537 460.41 114.537C460.588 114.537 460.736 114.596 460.854 114.713C460.976 114.831 461.037 114.984 461.037 115.173C461.037 115.356 460.976 115.509 460.854 115.632C460.731 115.749 460.583 115.808 460.41 115.808ZM463.794 110.319C464.529 110.319 465.098 110.549 465.502 111.008C465.91 111.467 466.114 112.126 466.114 112.983C466.114 113.585 466.004 114.101 465.785 114.529C465.565 114.953 465.257 115.277 464.859 115.502C464.466 115.721 464.009 115.831 463.488 115.831C463.213 115.831 462.952 115.803 462.707 115.747C462.467 115.685 462.258 115.599 462.08 115.486L462.447 114.736C462.712 114.91 463.052 114.996 463.465 114.996C463.981 114.996 464.384 114.838 464.675 114.522C464.966 114.205 465.111 113.749 465.111 113.151V113.144C464.953 113.328 464.751 113.468 464.506 113.565C464.261 113.657 463.986 113.703 463.68 113.703C463.327 113.703 463.011 113.636 462.73 113.504C462.45 113.366 462.23 113.172 462.072 112.922C461.914 112.672 461.835 112.383 461.835 112.057C461.835 111.71 461.921 111.406 462.095 111.146C462.268 110.88 462.503 110.676 462.799 110.533C463.095 110.39 463.427 110.319 463.794 110.319ZM463.871 112.922C464.193 112.922 464.453 112.835 464.652 112.661C464.856 112.488 464.958 112.269 464.958 112.003C464.958 111.743 464.859 111.528 464.659 111.36C464.466 111.186 464.195 111.1 463.848 111.1C463.537 111.1 463.284 111.184 463.09 111.352C462.896 111.516 462.799 111.735 462.799 112.011C462.799 112.291 462.896 112.513 463.09 112.677C463.284 112.84 463.544 112.922 463.871 112.922Z" fill="#D8DAFF"/>
<path d="M495.107 119.327V124.686H494.111V120.162H492.978V119.327H495.107ZM497.073 124.74C496.899 124.74 496.751 124.681 496.629 124.564C496.506 124.441 496.445 124.288 496.445 124.104C496.445 123.915 496.504 123.762 496.621 123.645C496.744 123.527 496.894 123.469 497.073 123.469C497.252 123.469 497.4 123.527 497.517 123.645C497.639 123.762 497.701 123.915 497.701 124.104C497.701 124.288 497.639 124.441 497.517 124.564C497.394 124.681 497.246 124.74 497.073 124.74ZM502.607 123.844V124.686H498.657V124.02L500.785 121.999C501.025 121.769 501.186 121.57 501.268 121.402C501.354 121.228 501.398 121.057 501.398 120.889C501.398 120.639 501.313 120.447 501.145 120.315C500.977 120.182 500.729 120.116 500.402 120.116C499.856 120.116 499.438 120.302 499.147 120.674L498.45 120.139C498.66 119.858 498.94 119.641 499.292 119.488C499.65 119.33 500.048 119.25 500.487 119.25C501.069 119.25 501.533 119.388 501.88 119.664C502.227 119.94 502.401 120.315 502.401 120.789C502.401 121.08 502.339 121.353 502.217 121.608C502.094 121.864 501.86 122.155 501.513 122.481L500.081 123.844H502.607Z" fill="#D8DAFF"/>
<path d="M260.233 85.9909V86.833H256.283V86.167L258.411 84.1459C258.651 83.9162 258.812 83.7171 258.893 83.5487C258.98 83.3752 259.023 83.2042 259.023 83.0358C259.023 82.7857 258.939 82.5943 258.771 82.4616C258.602 82.3289 258.355 82.2626 258.028 82.2626C257.482 82.2626 257.063 82.4488 256.773 82.8214L256.076 82.2855C256.285 82.0048 256.566 81.7879 256.918 81.6348C257.275 81.4766 257.673 81.3975 258.112 81.3975C258.694 81.3975 259.159 81.5353 259.506 81.8109C259.853 82.0865 260.026 82.4616 260.026 82.9363C260.026 83.2272 259.965 83.5002 259.842 83.7554C259.72 84.0106 259.485 84.3015 259.138 84.6282L257.707 85.9909H260.233ZM265.779 85.6158H264.829V86.833H263.865V85.6158H260.925V84.9267L263.566 81.474H264.63L262.142 84.7736H263.895V83.6942H264.829V84.7736H265.779V85.6158Z" fill="#F9B400"/>
<path d="M300.213 68.9782V69.8203H296.263V69.1543L298.391 67.1332C298.631 66.9035 298.792 66.7044 298.874 66.536C298.96 66.3625 299.004 66.1915 299.004 66.0231C299.004 65.773 298.92 65.5816 298.751 65.4489C298.583 65.3162 298.335 65.2499 298.009 65.2499C297.462 65.2499 297.044 65.4362 296.753 65.8087L296.056 65.2728C296.266 64.9921 296.546 64.7752 296.898 64.6221C297.256 64.4639 297.654 64.3848 298.093 64.3848C298.675 64.3848 299.139 64.5226 299.486 64.7982C299.833 65.0738 300.007 65.4489 300.007 65.9236C300.007 66.2145 299.945 66.4875 299.823 66.7427C299.7 66.9979 299.466 67.2888 299.119 67.6155L297.687 68.9782H300.213ZM305.114 64.4613V65.1274L303.031 69.8203H301.967L303.981 65.3035H301.875V66.2145H300.949V64.4613H305.114Z" fill="#F9B400"/>
<path d="M339.343 74.9328V75.7749H335.393V75.1089L337.521 73.0878C337.761 72.8581 337.922 72.659 338.004 72.4906C338.09 72.3171 338.134 72.1461 338.134 71.9777C338.134 71.7276 338.049 71.5362 337.881 71.4035C337.713 71.2708 337.465 71.2045 337.138 71.2045C336.592 71.2045 336.174 71.3907 335.883 71.7633L335.186 71.2274C335.396 70.9467 335.676 70.7298 336.028 70.5767C336.386 70.4185 336.784 70.3394 337.223 70.3394C337.804 70.3394 338.269 70.4772 338.616 70.7528C338.963 71.0284 339.137 71.4035 339.137 71.8782C339.137 72.1691 339.075 72.4421 338.953 72.6973C338.83 72.9525 338.596 73.2434 338.249 73.5701L336.817 74.9328H339.343ZM342.636 72.4676C342.988 72.4676 343.305 72.5365 343.585 72.6743C343.866 72.807 344.085 72.9984 344.244 73.2485C344.402 73.4986 344.481 73.787 344.481 74.1136C344.481 74.4607 344.394 74.7669 344.221 75.0323C344.047 75.2926 343.812 75.4942 343.516 75.6371C343.22 75.78 342.889 75.8515 342.521 75.8515C341.786 75.8515 341.215 75.6218 340.806 75.1624C340.403 74.7031 340.202 74.0447 340.202 73.1873C340.202 72.585 340.311 72.0721 340.531 71.6485C340.75 71.2198 341.056 70.8957 341.449 70.6762C341.847 70.4516 342.307 70.3394 342.827 70.3394C343.103 70.3394 343.361 70.37 343.601 70.4312C343.846 70.4874 344.057 70.5716 344.236 70.6839L343.869 71.4341C343.603 71.2606 343.264 71.1738 342.85 71.1738C342.335 71.1738 341.932 71.332 341.641 71.6485C341.35 71.9649 341.204 72.4217 341.204 73.0189V73.0265C341.363 72.8428 341.564 72.705 341.809 72.6131C342.054 72.5161 342.33 72.4676 342.636 72.4676ZM342.468 75.0706C342.779 75.0706 343.032 74.9889 343.226 74.8256C343.419 74.6572 343.516 74.4352 343.516 74.1596C343.516 73.8788 343.419 73.6568 343.226 73.4935C343.032 73.3302 342.771 73.2485 342.445 73.2485C342.123 73.2485 341.86 73.3353 341.656 73.5088C341.457 73.6823 341.358 73.9018 341.358 74.1672C341.358 74.4275 341.454 74.6444 341.648 74.8179C341.847 74.9864 342.121 75.0706 342.468 75.0706Z" fill="#F9B400"/>
<path d="M378.471 83.0136V83.8557H374.521V83.1897L376.649 81.1686C376.889 80.9389 377.05 80.7398 377.131 80.5714C377.218 80.3979 377.262 80.2269 377.262 80.0585C377.262 79.8084 377.177 79.617 377.009 79.4843C376.841 79.3516 376.593 79.2853 376.266 79.2853C375.72 79.2853 375.302 79.4716 375.011 79.8441L374.314 79.3082C374.523 79.0275 374.804 78.8106 375.156 78.6575C375.514 78.4993 375.912 78.4202 376.351 78.4202C376.932 78.4202 377.397 78.558 377.744 78.8336C378.091 79.1092 378.265 79.4843 378.265 79.959C378.265 80.2499 378.203 80.5229 378.081 80.7781C377.958 81.0333 377.724 81.3242 377.376 81.6509L375.945 83.0136H378.471ZM384.017 82.6385H383.068V83.8557H382.103V82.6385H379.163V81.9494L381.804 78.4967H382.869L380.38 81.7963H382.134V80.7169H383.068V81.7963H384.017V82.6385Z" fill="#F9B400"/>
<path d="M417.599 88.5426V89.3848H413.649V88.7187L415.777 86.6976C416.017 86.4679 416.178 86.2689 416.259 86.1005C416.346 85.9269 416.39 85.756 416.39 85.5875C416.39 85.3375 416.305 85.1461 416.137 85.0134C415.968 84.8807 415.721 84.8143 415.394 84.8143C414.848 84.8143 414.43 85.0006 414.139 85.3732L413.442 84.8373C413.651 84.5566 413.932 84.3397 414.284 84.1865C414.641 84.0283 415.04 83.9492 415.479 83.9492C416.06 83.9492 416.525 84.087 416.872 84.3626C417.219 84.6382 417.392 85.0134 417.392 85.488C417.392 85.7789 417.331 86.052 417.209 86.3072C417.086 86.5624 416.851 86.8533 416.504 87.1799L415.073 88.5426H417.599ZM420.761 86.2383C421.256 86.2995 421.634 86.4679 421.894 86.7436C422.155 87.0192 422.285 87.3637 422.285 87.7771C422.285 88.0884 422.206 88.3717 422.047 88.6269C421.889 88.882 421.649 89.0862 421.328 89.2393C421.011 89.3873 420.623 89.4613 420.164 89.4613C419.781 89.4613 419.411 89.4077 419.054 89.3006C418.702 89.1883 418.401 89.0352 418.151 88.8412L418.579 88.068C418.773 88.2313 419.008 88.3615 419.284 88.4584C419.564 88.5503 419.853 88.5962 420.149 88.5962C420.501 88.5962 420.777 88.5248 420.976 88.3819C421.18 88.2339 421.282 88.0348 421.282 87.7847C421.282 87.5346 421.185 87.3407 420.991 87.2029C420.802 87.06 420.511 86.9885 420.118 86.9885H419.628V86.3072L420.845 84.8602H418.411V84.0258H422.063V84.6918L420.761 86.2383Z" fill="#F9B400"/>
<path d="M460.133 76.2084V77.0505H456.183V76.3845L458.311 74.3634C458.551 74.1337 458.712 73.9347 458.794 73.7662C458.88 73.5927 458.924 73.4217 458.924 73.2533C458.924 73.0032 458.84 72.8118 458.671 72.6791C458.503 72.5464 458.255 72.4801 457.928 72.4801C457.382 72.4801 456.964 72.6664 456.673 73.039L455.976 72.5031C456.186 72.2223 456.466 72.0054 456.818 71.8523C457.176 71.6941 457.574 71.615 458.013 71.615C458.595 71.615 459.059 71.7528 459.406 72.0284C459.753 72.304 459.927 72.6791 459.927 73.1538C459.927 73.4447 459.865 73.7178 459.743 73.9729C459.62 74.2281 459.386 74.5191 459.039 74.8457L457.607 76.2084H460.133ZM463.426 73.7433C463.778 73.7433 464.095 73.8122 464.375 73.95C464.656 74.0827 464.876 74.2741 465.034 74.5242C465.192 74.7742 465.271 75.0626 465.271 75.3893C465.271 75.7363 465.184 76.0425 465.011 76.3079C464.837 76.5682 464.602 76.7698 464.306 76.9127C464.01 77.0556 463.679 77.1271 463.311 77.1271C462.576 77.1271 462.005 76.8974 461.596 76.4381C461.193 75.9787 460.992 75.3203 460.992 74.4629C460.992 73.8607 461.101 73.3477 461.321 72.9241C461.54 72.4954 461.846 72.1713 462.239 71.9518C462.638 71.7273 463.097 71.615 463.617 71.615C463.893 71.615 464.151 71.6456 464.391 71.7069C464.636 71.763 464.847 71.8472 465.026 71.9595L464.659 72.7098C464.393 72.5362 464.054 72.4495 463.64 72.4495C463.125 72.4495 462.722 72.6077 462.431 72.9241C462.14 73.2406 461.994 73.6973 461.994 74.2945V74.3021C462.153 74.1184 462.354 73.9806 462.599 73.8887C462.844 73.7918 463.12 73.7433 463.426 73.7433ZM463.258 76.3462C463.569 76.3462 463.822 76.2646 464.016 76.1012C464.209 75.9328 464.306 75.7108 464.306 75.4352C464.306 75.1545 464.209 74.9325 464.016 74.7691C463.822 74.6058 463.561 74.5242 463.235 74.5242C462.913 74.5242 462.65 74.6109 462.446 74.7845C462.247 74.958 462.148 75.1774 462.148 75.4428C462.148 75.7031 462.245 75.92 462.438 76.0936C462.638 76.262 462.911 76.3462 463.258 76.3462Z" fill="#F9B400"/>
<path d="M494.685 51.7876C495.18 51.8488 495.557 52.0173 495.818 52.2929C496.078 52.5685 496.208 52.913 496.208 53.3264C496.208 53.6377 496.129 53.921 495.971 54.1762C495.813 54.4314 495.573 54.6355 495.251 54.7886C494.935 54.9366 494.547 55.0106 494.088 55.0106C493.705 55.0106 493.335 54.957 492.977 54.8499C492.625 54.7376 492.324 54.5845 492.074 54.3905L492.503 53.6173C492.697 53.7806 492.931 53.9108 493.207 54.0077C493.488 54.0996 493.776 54.1455 494.072 54.1455C494.424 54.1455 494.7 54.0741 494.899 53.9312C495.103 53.7832 495.205 53.5841 495.205 53.334C495.205 53.084 495.108 52.89 494.914 52.7522C494.725 52.6093 494.435 52.5378 494.042 52.5378H493.552V51.8565L494.769 50.4096H492.334V49.5751H495.986V50.2411L494.685 51.7876ZM499.401 55.0106C498.972 55.0106 498.589 54.9035 498.252 54.6891C497.916 54.4696 497.65 54.1532 497.456 53.7398C497.262 53.3213 497.165 52.8262 497.165 52.2546C497.165 51.683 497.262 51.1904 497.456 50.777C497.65 50.3585 497.916 50.0421 498.252 49.8277C498.589 49.6083 498.972 49.4985 499.401 49.4985C499.83 49.4985 500.212 49.6083 500.549 49.8277C500.891 50.0421 501.159 50.3585 501.353 50.777C501.547 51.1904 501.644 51.683 501.644 52.2546C501.644 52.8262 501.547 53.3213 501.353 53.7398C501.159 54.1532 500.891 54.4696 500.549 54.6891C500.212 54.9035 499.83 55.0106 499.401 55.0106ZM499.401 54.1455C499.784 54.1455 500.085 53.9873 500.304 53.6709C500.529 53.3545 500.641 52.8824 500.641 52.2546C500.641 51.6268 500.529 51.1547 500.304 50.8383C500.085 50.5218 499.784 50.3636 499.401 50.3636C499.023 50.3636 498.722 50.5218 498.497 50.8383C498.278 51.1547 498.168 51.6268 498.168 52.2546C498.168 52.8824 498.278 53.3545 498.497 53.6709C498.722 53.9873 499.023 54.1455 499.401 54.1455Z" fill="#F9B400"/>
<path d="M517.975 82.163V83.0051H514.025V82.3391L516.153 80.318C516.393 80.0883 516.554 79.8893 516.635 79.7208C516.722 79.5473 516.766 79.3763 516.766 79.2079C516.766 78.9578 516.681 78.7664 516.513 78.6337C516.344 78.501 516.097 78.4347 515.77 78.4347C515.224 78.4347 514.806 78.621 514.515 78.9935L513.818 78.4576C514.027 78.1769 514.308 77.96 514.66 77.8069C515.017 77.6487 515.416 77.5696 515.854 77.5696C516.436 77.5696 516.901 77.7074 517.248 77.983C517.595 78.2586 517.768 78.6337 517.768 79.1084C517.768 79.3993 517.707 79.6723 517.585 79.9275C517.462 80.1827 517.227 80.4736 516.88 80.8003L515.449 82.163H517.975ZM523.521 81.7879H522.571V83.0051H521.607V81.7879H518.667V81.0989L521.308 77.6461H522.372L519.884 80.9457H521.637V79.8663H522.571V80.9457H523.521V81.7879Z" fill="#F9B400"/>
<path d="M325.462 16.2304C325.12 16.2304 324.803 16.164 324.512 16.0313C324.226 15.8935 323.992 15.7021 323.808 15.4571L324.374 14.7758C324.671 15.1841 325.025 15.3882 325.439 15.3882C325.995 15.3882 326.273 15.059 326.273 14.4007V11.6293H324.367V10.7948H327.268V14.3471C327.268 14.9748 327.115 15.4469 326.809 15.7634C326.503 16.0747 326.054 16.2304 325.462 16.2304ZM330.44 12.0197C331.043 12.0197 331.502 12.1652 331.818 12.4561C332.14 12.7419 332.301 13.1757 332.301 13.7576V16.1538H331.397V15.6562C331.28 15.8348 331.112 15.9726 330.892 16.0696C330.678 16.1615 330.417 16.2074 330.111 16.2074C329.805 16.2074 329.537 16.1564 329.307 16.0543C329.078 15.9471 328.899 15.8016 328.771 15.6179C328.649 15.4291 328.588 15.2173 328.588 14.9825C328.588 14.615 328.723 14.3215 328.994 14.1021C329.269 13.8775 329.7 13.7652 330.287 13.7652H331.344V13.704C331.344 13.4182 331.257 13.1987 331.084 13.0456C330.915 12.8925 330.662 12.8159 330.326 12.8159C330.096 12.8159 329.869 12.8517 329.644 12.9231C329.425 12.9946 329.238 13.0941 329.085 13.2217L328.71 12.525C328.925 12.3617 329.182 12.2366 329.483 12.1499C329.785 12.0631 330.104 12.0197 330.44 12.0197ZM330.31 15.5107C330.55 15.5107 330.762 15.4571 330.946 15.35C331.135 15.2377 331.267 15.0795 331.344 14.8753V14.4007H330.356C329.805 14.4007 329.529 14.5818 329.529 14.9442C329.529 15.1177 329.598 15.2555 329.736 15.3576C329.874 15.4597 330.065 15.5107 330.31 15.5107ZM336.155 12.0197C336.67 12.0197 337.084 12.1703 337.395 12.4714C337.706 12.7725 337.862 13.2191 337.862 13.8112V16.1538H336.905V13.9337C336.905 13.5764 336.821 13.3084 336.652 13.1298C336.484 12.9461 336.244 12.8542 335.933 12.8542C335.581 12.8542 335.302 12.9614 335.098 13.1757C334.894 13.385 334.792 13.6887 334.792 14.0868V16.1538H333.835V12.0657H334.746V12.5939C334.904 12.4051 335.103 12.2622 335.343 12.1652C335.583 12.0682 335.854 12.0197 336.155 12.0197ZM343.366 10.7948V16.1538H342.371V11.6293H341.238V10.7948H343.366Z" fill="white"/>
<path d="M399.461 16.2304C399.119 16.2304 398.803 16.164 398.512 16.0313C398.226 15.8935 397.991 15.7021 397.807 15.4571L398.374 14.7758C398.67 15.1841 399.025 15.3882 399.438 15.3882C399.994 15.3882 400.273 15.059 400.273 14.4007V11.6293H398.366V10.7948H401.268V14.3471C401.268 14.9748 401.115 15.4469 400.808 15.7634C400.502 16.0747 400.053 16.2304 399.461 16.2304ZM404.44 12.0197C405.042 12.0197 405.501 12.1652 405.818 12.4561C406.139 12.7419 406.3 13.1757 406.3 13.7576V16.1538H405.397V15.6562C405.279 15.8348 405.111 15.9726 404.892 16.0696C404.677 16.1615 404.417 16.2074 404.111 16.2074C403.804 16.2074 403.537 16.1564 403.307 16.0543C403.077 15.9471 402.899 15.8016 402.771 15.6179C402.648 15.4291 402.587 15.2173 402.587 14.9825C402.587 14.615 402.722 14.3215 402.993 14.1021C403.269 13.8775 403.7 13.7652 404.287 13.7652H405.343V13.704C405.343 13.4182 405.257 13.1987 405.083 13.0456C404.915 12.8925 404.662 12.8159 404.325 12.8159C404.095 12.8159 403.868 12.8517 403.644 12.9231C403.424 12.9946 403.238 13.0941 403.085 13.2217L402.71 12.525C402.924 12.3617 403.182 12.2366 403.483 12.1499C403.784 12.0631 404.103 12.0197 404.44 12.0197ZM404.31 15.5107C404.55 15.5107 404.761 15.4571 404.945 15.35C405.134 15.2377 405.267 15.0795 405.343 14.8753V14.4007H404.356C403.804 14.4007 403.529 14.5818 403.529 14.9442C403.529 15.1177 403.598 15.2555 403.736 15.3576C403.873 15.4597 404.065 15.5107 404.31 15.5107ZM410.154 12.0197C410.67 12.0197 411.083 12.1703 411.395 12.4714C411.706 12.7725 411.862 13.2191 411.862 13.8112V16.1538H410.905V13.9337C410.905 13.5764 410.82 13.3084 410.652 13.1298C410.483 12.9461 410.244 12.8542 409.932 12.8542C409.58 12.8542 409.302 12.9614 409.098 13.1757C408.894 13.385 408.792 13.6887 408.792 14.0868V16.1538H407.835V12.0657H408.746V12.5939C408.904 12.4051 409.103 12.2622 409.343 12.1652C409.583 12.0682 409.853 12.0197 410.154 12.0197ZM419.394 15.3117V16.1538H415.444V15.4878L417.572 13.4667C417.812 13.237 417.973 13.0379 418.054 12.8695C418.141 12.696 418.185 12.525 418.185 12.3566C418.185 12.1065 418.1 11.9151 417.932 11.7824C417.764 11.6497 417.516 11.5834 417.189 11.5834C416.643 11.5834 416.225 11.7696 415.934 12.1422L415.237 11.6063C415.446 11.3256 415.727 11.1087 416.079 10.9556C416.437 10.7974 416.835 10.7183 417.274 10.7183C417.855 10.7183 418.32 10.8561 418.667 11.1317C419.014 11.4073 419.188 11.7824 419.188 12.2571C419.188 12.548 419.126 12.821 419.004 13.0762C418.881 13.3314 418.647 13.6223 418.299 13.949L416.868 15.3117H419.394Z" fill="white"/>
<path d="M477.922 16.2304C477.58 16.2304 477.264 16.164 476.973 16.0313C476.687 15.8935 476.452 15.7021 476.268 15.4571L476.835 14.7758C477.131 15.1841 477.486 15.3882 477.899 15.3882C478.455 15.3882 478.734 15.059 478.734 14.4007V11.6293H476.827V10.7948H479.729V14.3471C479.729 14.9748 479.576 15.4469 479.269 15.7634C478.963 16.0747 478.514 16.2304 477.922 16.2304ZM482.901 12.0197C483.503 12.0197 483.962 12.1652 484.279 12.4561C484.6 12.7419 484.761 13.1757 484.761 13.7576V16.1538H483.858V15.6562C483.74 15.8348 483.572 15.9726 483.353 16.0696C483.138 16.1615 482.878 16.2074 482.572 16.2074C482.265 16.2074 481.997 16.1564 481.768 16.0543C481.538 15.9471 481.359 15.8016 481.232 15.6179C481.109 15.4291 481.048 15.2173 481.048 14.9825C481.048 14.615 481.183 14.3215 481.454 14.1021C481.73 13.8775 482.161 13.7652 482.748 13.7652H483.804V13.704C483.804 13.4182 483.717 13.1987 483.544 13.0456C483.375 12.8925 483.123 12.8159 482.786 12.8159C482.556 12.8159 482.329 12.8517 482.105 12.9231C481.885 12.9946 481.699 13.0941 481.546 13.2217L481.171 12.525C481.385 12.3617 481.643 12.2366 481.944 12.1499C482.245 12.0631 482.564 12.0197 482.901 12.0197ZM482.771 15.5107C483.011 15.5107 483.222 15.4571 483.406 15.35C483.595 15.2377 483.728 15.0795 483.804 14.8753V14.4007H482.817C482.265 14.4007 481.99 14.5818 481.99 14.9442C481.99 15.1177 482.059 15.2555 482.197 15.3576C482.334 15.4597 482.526 15.5107 482.771 15.5107ZM488.615 12.0197C489.131 12.0197 489.544 12.1703 489.855 12.4714C490.167 12.7725 490.322 13.2191 490.322 13.8112V16.1538H489.365V13.9337C489.365 13.5764 489.281 13.3084 489.113 13.1298C488.944 12.9461 488.705 12.8542 488.393 12.8542C488.041 12.8542 487.763 12.9614 487.559 13.1757C487.355 13.385 487.253 13.6887 487.253 14.0868V16.1538H486.296V12.0657H487.207V12.5939C487.365 12.4051 487.564 12.2622 487.804 12.1652C488.044 12.0682 488.314 12.0197 488.615 12.0197ZM496.255 13.0073C496.75 13.0686 497.128 13.237 497.388 13.5126C497.648 13.7882 497.779 14.1327 497.779 14.5461C497.779 14.8574 497.7 15.1407 497.541 15.3959C497.383 15.6511 497.143 15.8552 496.822 16.0084C496.505 16.1564 496.117 16.2304 495.658 16.2304C495.275 16.2304 494.905 16.1768 494.548 16.0696C494.196 15.9573 493.895 15.8042 493.645 15.6103L494.073 14.837C494.267 15.0004 494.502 15.1305 494.778 15.2275C495.058 15.3193 495.347 15.3653 495.643 15.3653C495.995 15.3653 496.27 15.2938 496.469 15.1509C496.674 15.0029 496.776 14.8039 496.776 14.5538C496.776 14.3037 496.679 14.1097 496.485 13.9719C496.296 13.829 496.005 13.7576 495.612 13.7576H495.122V13.0762L496.339 11.6293H493.905V10.7948H497.557V11.4609L496.255 13.0073Z" fill="white"/>
<g opacity="0.6">
<path opacity="0.8" d="M251.994 248.263H3.64444C1.63167 248.263 0 249.895 0 251.908V299.022C0 301.034 1.63167 302.666 3.64444 302.666H251.994C254.007 302.666 255.638 301.034 255.638 299.022V251.908C255.638 249.895 254.007 248.263 251.994 248.263Z" fill="url(#paint2_linear_1035_1516)" fill-opacity="0.6"/>
<path opacity="0.8" d="M251.994 319.091H3.64444C1.63167 319.091 0 320.723 0 322.736V369.85C0 371.862 1.63167 373.494 3.64444 373.494H251.994C254.007 373.494 255.638 371.862 255.638 369.85V322.736C255.638 320.723 254.007 319.091 251.994 319.091Z" fill="url(#paint3_linear_1035_1516)" fill-opacity="0.6"/>
<path d="M251.994 302.669H3.64444C1.63167 302.669 0 304.3 0 306.313V315.45C0 317.462 1.63167 319.094 3.64444 319.094H251.994C254.007 319.094 255.638 317.462 255.638 315.45V306.313C255.638 304.3 254.007 302.669 251.994 302.669Z" fill="white" fill-opacity="0.1"/>
<path d="M251.994 232.351H3.64444C1.63167 232.351 0 233.983 0 235.996V245.132C0 247.145 1.63167 248.776 3.64444 248.776H251.994C254.007 248.776 255.638 247.145 255.638 245.132V235.996C255.638 233.983 254.007 232.351 251.994 232.351Z" fill="white" fill-opacity="0.1"/>
<path opacity="0.8" d="M249.261 389.922H6.37778C3.81853 389.922 2.53891 389.922 1.6197 390.536C1.22176 390.802 0.880093 391.144 0.6142 391.542C0 392.461 0 393.741 0 396.3V410.746C0 413.305 0 414.585 0.6142 415.504C0.880093 415.902 1.22176 416.243 1.6197 416.509C2.53891 417.124 3.81854 417.124 6.37779 417.124H249.261C251.82 417.124 253.1 417.124 254.019 416.509C254.417 416.243 254.758 415.902 255.024 415.504C255.638 414.585 255.638 413.305 255.638 410.746V396.3C255.638 393.741 255.638 392.461 255.024 391.542C254.758 391.144 254.417 390.802 254.019 390.536C253.1 389.922 251.82 389.922 249.261 389.922Z" fill="url(#paint4_linear_1035_1516)" fill-opacity="0.6"/>
<path d="M251.994 373.497H3.64444C1.63167 373.497 0 375.129 0 377.142V386.278C0 388.291 1.63167 389.922 3.64444 389.922H251.994C254.007 389.922 255.638 388.291 255.638 386.278V377.142C255.638 375.129 254.007 373.497 251.994 373.497Z" fill="white" fill-opacity="0.1"/>
<path opacity="0.5" d="M153.066 232V417.272" stroke="white" stroke-width="0.510222" stroke-miterlimit="10"/>
<path opacity="0.5" d="M100.587 232V417.272" stroke="white" stroke-width="0.510222" stroke-miterlimit="10"/>
<path opacity="0.5" d="M205.547 232L205.547 417.272" stroke="white" stroke-width="0.510222" stroke-miterlimit="10"/>
<path d="M228.552 256.405H173.066C172.085 256.405 171.289 257.639 171.289 259.161V261.665C171.289 263.188 172.085 264.422 173.066 264.422H228.552C229.533 264.422 230.329 263.188 230.329 261.665V259.161C230.329 257.639 229.533 256.405 228.552 256.405Z" fill="url(#paint5_linear_1035_1516)"/>
<path d="M116.654 271.711H161.085V279H116.654C115.872 279 115.123 278.736 114.57 278.266C114.018 277.796 113.707 277.158 113.707 276.494V274.217C113.707 273.553 114.018 272.915 114.57 272.445C115.123 271.975 115.872 271.711 116.654 271.711V271.711Z" fill="#3F8DFD"/>
<path d="M161.443 271.6H193.77C194.052 271.6 194.331 271.669 194.591 271.803C194.851 271.936 195.087 272.132 195.286 272.379C195.486 272.626 195.643 272.919 195.751 273.242C195.859 273.564 195.914 273.91 195.914 274.259V276.673C195.914 277.379 195.689 278.055 195.286 278.553C194.884 279.052 194.339 279.332 193.77 279.332H161.443V271.6Z" fill="#D6D3F5"/>
<path d="M114.443 286.564H91.7975C90.6133 286.564 89.6533 287.754 89.6533 289.223V291.637C89.6533 293.106 90.6133 294.296 91.7975 294.296H114.443C115.627 294.296 116.587 293.106 116.587 291.637V289.223C116.587 287.754 115.627 286.564 114.443 286.564Z" fill="#D6D3F5"/>
<path d="M183.519 286.564H160.874C159.689 286.564 158.729 287.754 158.729 289.223V291.637C158.729 293.106 159.689 294.296 160.874 294.296H183.519C184.703 294.296 185.663 293.106 185.663 291.637V289.223C185.663 287.754 184.703 286.564 183.519 286.564Z" fill="white"/>
<path d="M266.961 342.414H244.316C243.132 342.414 242.172 343.604 242.172 345.072V347.487C242.172 348.955 243.132 350.145 244.316 350.145H266.961C268.145 350.145 269.105 348.955 269.105 347.487V345.072C269.105 343.604 268.145 342.414 266.961 342.414Z" fill="white"/>
<path d="M194.854 327.464H127.919C126.734 327.464 125.774 328.654 125.774 330.123V332.537C125.774 334.006 126.734 335.196 127.919 335.196H194.854C196.038 335.196 196.998 334.006 196.998 332.537V330.123C196.998 328.654 196.038 327.464 194.854 327.464Z" fill="url(#paint6_linear_1035_1516)"/>
<path d="M263.108 327.464H220.811C219.627 327.464 218.667 328.654 218.667 330.123V332.537C218.667 334.006 219.627 335.196 220.811 335.196H263.108C264.292 335.196 265.252 334.006 265.252 332.537V330.123C265.252 328.654 264.292 327.464 263.108 327.464Z" fill="#3F8DFD"/>
<path d="M182.931 342.428H115.996C114.812 342.428 113.852 343.619 113.852 345.087V347.502C113.852 348.97 114.812 350.16 115.996 350.16H182.931C184.115 350.16 185.075 348.97 185.075 347.502V345.087C185.075 343.619 184.115 342.428 182.931 342.428Z" fill="#3F8DFD"/>
<path d="M198.738 357.392H158.855C157.671 357.392 156.711 358.583 156.711 360.051V362.465C156.711 363.934 157.671 365.124 158.855 365.124H198.738C199.922 365.124 200.882 363.934 200.882 362.465V360.051C200.882 358.583 199.922 357.392 198.738 357.392Z" fill="#D6D3F5"/>
<path d="M236.453 357.392H266.538C267.106 357.392 267.652 357.672 268.054 358.171C268.456 358.67 268.682 359.346 268.682 360.051V362.465C268.682 363.171 268.456 363.847 268.054 364.345C267.652 364.844 267.106 365.124 266.538 365.124H236.453V357.392Z" fill="url(#paint7_linear_1035_1516)"/>
<path d="M228.645 357.392H236.453V365.124H228.645C228.076 365.124 227.531 364.844 227.129 364.345C226.727 363.847 226.501 363.171 226.501 362.465V360.051C226.501 359.346 226.727 358.67 227.129 358.171C227.531 357.672 228.076 357.392 228.645 357.392Z" fill="white"/>
<path d="M178.854 399.657H111.919C110.734 399.657 109.774 400.847 109.774 402.316V404.73C109.774 406.198 110.734 407.389 111.919 407.389H178.854C180.038 407.389 180.998 406.198 180.998 404.73V402.316C180.998 400.847 180.038 399.657 178.854 399.657Z" fill="white"/>
<path d="M253.876 399.657H216.437C215.253 399.657 214.293 400.847 214.293 402.316V404.73C214.293 406.198 215.253 407.389 216.437 407.389H253.876C255.06 407.389 256.02 406.198 256.02 404.73V402.316C256.02 400.847 255.06 399.657 253.876 399.657Z" fill="#3F8DFD"/>
<path d="M3.79688 239.916L5.79686 242.395L7.73505 239.992" fill="white"/>
<path d="M3.79688 309.64L5.79686 312.12L7.73505 309.717" fill="white"/>
<path d="M3.79688 380.468L5.79686 382.948L7.73505 380.545" fill="white"/>
<path d="M3.79688 424.095L5.79686 426.575L7.73505 424.172" fill="white"/>
<path d="M3.79688 440.52L5.79686 443L7.73505 440.597" fill="white"/>
<path d="M17.4819 244.725H18.5752V238.235H17.4819V244.725ZM22.4593 244.786C23.9112 244.786 24.9521 243.789 24.9521 242.389C24.9521 240.99 23.9112 240.001 22.4593 240.001C21.0248 240.001 19.9752 240.99 19.9752 242.389C19.9752 243.789 21.0248 244.786 22.4593 244.786ZM22.4593 243.85C21.6721 243.85 21.0773 243.281 21.0773 242.389C21.0773 241.497 21.6721 240.929 22.4593 240.929C23.2552 240.929 23.85 241.497 23.85 242.389C23.85 243.281 23.2552 243.85 22.4593 243.85ZM28.4904 244.786C29.4 244.786 30.126 244.392 30.4846 243.693L29.6449 243.203C29.365 243.649 28.9452 243.85 28.4816 243.85C27.6769 243.85 27.0647 243.299 27.0647 242.389C27.0647 241.488 27.6769 240.929 28.4816 240.929C28.9452 240.929 29.365 241.13 29.6449 241.576L30.4846 241.086C30.126 240.378 29.4 240.001 28.4904 240.001C27.0122 240.001 25.9626 240.99 25.9626 242.389C25.9626 243.789 27.0122 244.786 28.4904 244.786ZM33.5639 240.001C32.8117 240.001 32.0857 240.194 31.5872 240.579L32.0158 241.375C32.3656 241.086 32.9079 240.911 33.4327 240.911C34.2112 240.911 34.596 241.287 34.596 241.926V241.996H33.389C31.972 241.996 31.4472 242.608 31.4472 243.386C31.4472 244.2 32.1207 244.786 33.1878 244.786C33.8875 244.786 34.3948 244.558 34.6572 244.156V244.725H35.6894V241.987C35.6894 240.64 34.9109 240.001 33.5639 240.001ZM33.4152 243.99C32.8554 243.99 32.5231 243.736 32.5231 243.343C32.5231 243.002 32.7242 242.722 33.4677 242.722H34.596V243.264C34.4123 243.745 33.9488 243.99 33.4152 243.99ZM39.9439 243.693C39.7777 243.824 39.5591 243.885 39.3317 243.885C38.9118 243.885 38.6844 243.64 38.6844 243.185V240.964H39.9352V240.089H38.6844V239.022H37.5911V240.089H36.8214V240.964H37.5911V243.211C37.5911 244.244 38.1771 244.786 39.2005 244.786C39.5941 244.786 39.9877 244.681 40.2501 244.471L39.9439 243.693ZM42.0504 239.284C42.4615 239.284 42.7501 238.987 42.7501 238.602C42.7501 238.243 42.4527 237.972 42.0504 237.972C41.648 237.972 41.3506 238.261 41.3506 238.628C41.3506 238.996 41.648 239.284 42.0504 239.284ZM41.4993 244.725H42.5927V240.054H41.4993V244.725ZM46.4767 244.786C47.9287 244.786 48.9695 243.789 48.9695 242.389C48.9695 240.99 47.9287 240.001 46.4767 240.001C45.0423 240.001 43.9927 240.99 43.9927 242.389C43.9927 243.789 45.0423 244.786 46.4767 244.786ZM46.4767 243.85C45.6895 243.85 45.0948 243.281 45.0948 242.389C45.0948 241.497 45.6895 240.929 46.4767 240.929C47.2727 240.929 47.8674 241.497 47.8674 242.389C47.8674 243.281 47.2727 243.85 46.4767 243.85ZM53.0151 240.001C52.3329 240.001 51.7644 240.229 51.4057 240.657V240.054H50.3649V244.725H51.4582V242.363C51.4582 241.427 51.983 240.955 52.7615 240.955C53.4612 240.955 53.8723 241.357 53.8723 242.188V244.725H54.9656V242.048C54.9656 240.64 54.1347 240.001 53.0151 240.001ZM58.8224 238.602V239.555H60.1169V244.725H61.2539V238.602H58.8224Z" fill="white"/>
<path d="M17.4819 314.698H18.5752V308.208H17.4819V314.698ZM22.4593 314.759C23.9112 314.759 24.9521 313.762 24.9521 312.363C24.9521 310.963 23.9112 309.975 22.4593 309.975C21.0248 309.975 19.9752 310.963 19.9752 312.363C19.9752 313.762 21.0248 314.759 22.4593 314.759ZM22.4593 313.823C21.6721 313.823 21.0773 313.255 21.0773 312.363C21.0773 311.47 21.6721 310.902 22.4593 310.902C23.2552 310.902 23.85 311.47 23.85 312.363C23.85 313.255 23.2552 313.823 22.4593 313.823ZM28.4904 314.759C29.4 314.759 30.126 314.366 30.4846 313.666L29.6449 313.176C29.365 313.622 28.9452 313.823 28.4816 313.823C27.6769 313.823 27.0647 313.272 27.0647 312.363C27.0647 311.462 27.6769 310.902 28.4816 310.902C28.9452 310.902 29.365 311.103 29.6449 311.549L30.4846 311.059C30.126 310.351 29.4 309.975 28.4904 309.975C27.0122 309.975 25.9626 310.963 25.9626 312.363C25.9626 313.762 27.0122 314.759 28.4904 314.759ZM33.5639 309.975C32.8117 309.975 32.0857 310.167 31.5872 310.552L32.0158 311.348C32.3656 311.059 32.9079 310.884 33.4327 310.884C34.2112 310.884 34.596 311.261 34.596 311.899V311.969H33.389C31.972 311.969 31.4472 312.581 31.4472 313.36C31.4472 314.173 32.1207 314.759 33.1878 314.759C33.8875 314.759 34.3948 314.532 34.6572 314.129V314.698H35.6894V311.96C35.6894 310.613 34.9109 309.975 33.5639 309.975ZM33.4152 313.963C32.8554 313.963 32.5231 313.71 32.5231 313.316C32.5231 312.975 32.7242 312.695 33.4677 312.695H34.596V313.237C34.4123 313.718 33.9488 313.963 33.4152 313.963ZM39.9439 313.666C39.7777 313.797 39.5591 313.858 39.3317 313.858C38.9118 313.858 38.6844 313.613 38.6844 313.159V310.937H39.9352V310.062H38.6844V308.995H37.5911V310.062H36.8214V310.937H37.5911V313.185C37.5911 314.217 38.1771 314.759 39.2005 314.759C39.5941 314.759 39.9877 314.654 40.2501 314.444L39.9439 313.666ZM42.0504 309.258C42.4615 309.258 42.7501 308.96 42.7501 308.575C42.7501 308.217 42.4527 307.946 42.0504 307.946C41.648 307.946 41.3506 308.234 41.3506 308.602C41.3506 308.969 41.648 309.258 42.0504 309.258ZM41.4993 314.698H42.5927V310.027H41.4993V314.698ZM46.4767 314.759C47.9287 314.759 48.9695 313.762 48.9695 312.363C48.9695 310.963 47.9287 309.975 46.4767 309.975C45.0423 309.975 43.9927 310.963 43.9927 312.363C43.9927 313.762 45.0423 314.759 46.4767 314.759ZM46.4767 313.823C45.6895 313.823 45.0948 313.255 45.0948 312.363C45.0948 311.47 45.6895 310.902 46.4767 310.902C47.2727 310.902 47.8674 311.47 47.8674 312.363C47.8674 313.255 47.2727 313.823 46.4767 313.823ZM53.0151 309.975C52.3329 309.975 51.7644 310.202 51.4057 310.631V310.027H50.3649V314.698H51.4582V312.336C51.4582 311.401 51.983 310.928 52.7615 310.928C53.4612 310.928 53.8723 311.331 53.8723 312.161V314.698H54.9656V312.022C54.9656 310.613 54.1347 309.975 53.0151 309.975ZM60.6854 313.736L62.321 312.179C63.1695 311.383 63.3357 310.841 63.3357 310.246C63.3357 309.161 62.4785 308.488 61.149 308.488C60.1431 308.488 59.2947 308.864 58.8224 309.502L59.6183 310.115C59.9594 309.677 60.458 309.476 61.0528 309.476C61.805 309.476 62.1898 309.8 62.1898 310.36C62.1898 310.701 62.0849 311.059 61.4901 311.628L59.0585 313.937V314.698H63.5718V313.736H60.6854Z" fill="white"/>
<path d="M17.4819 385.4H18.5752V378.91H17.4819V385.4ZM22.4593 385.461C23.9112 385.461 24.9521 384.464 24.9521 383.065C24.9521 381.665 23.9112 380.677 22.4593 380.677C21.0248 380.677 19.9752 381.665 19.9752 383.065C19.9752 384.464 21.0248 385.461 22.4593 385.461ZM22.4593 384.525C21.6721 384.525 21.0773 383.957 21.0773 383.065C21.0773 382.173 21.6721 381.604 22.4593 381.604C23.2552 381.604 23.85 382.173 23.85 383.065C23.85 383.957 23.2552 384.525 22.4593 384.525ZM28.4904 385.461C29.4 385.461 30.126 385.068 30.4846 384.368L29.6449 383.878C29.365 384.324 28.9452 384.525 28.4816 384.525C27.6769 384.525 27.0647 383.974 27.0647 383.065C27.0647 382.164 27.6769 381.604 28.4816 381.604C28.9452 381.604 29.365 381.805 29.6449 382.251L30.4846 381.762C30.126 381.053 29.4 380.677 28.4904 380.677C27.0122 380.677 25.9626 381.665 25.9626 383.065C25.9626 384.464 27.0122 385.461 28.4904 385.461ZM33.5639 380.677C32.8117 380.677 32.0857 380.869 31.5872 381.254L32.0158 382.05C32.3656 381.762 32.9079 381.587 33.4327 381.587C34.2112 381.587 34.596 381.963 34.596 382.601V382.671H33.389C31.972 382.671 31.4472 383.283 31.4472 384.062C31.4472 384.875 32.1207 385.461 33.1878 385.461C33.8875 385.461 34.3948 385.234 34.6572 384.832V385.4H35.6894V382.662C35.6894 381.315 34.9109 380.677 33.5639 380.677ZM33.4152 384.665C32.8554 384.665 32.5231 384.412 32.5231 384.018C32.5231 383.677 32.7242 383.397 33.4677 383.397H34.596V383.939C34.4123 384.421 33.9488 384.665 33.4152 384.665ZM39.9439 384.368C39.7777 384.499 39.5591 384.56 39.3317 384.56C38.9118 384.56 38.6844 384.316 38.6844 383.861V381.639H39.9352V380.764H38.6844V379.697H37.5911V380.764H36.8214V381.639H37.5911V383.887C37.5911 384.919 38.1771 385.461 39.2005 385.461C39.5941 385.461 39.9877 385.356 40.2501 385.146L39.9439 384.368ZM42.0504 379.96C42.4615 379.96 42.7501 379.662 42.7501 379.277C42.7501 378.919 42.4527 378.648 42.0504 378.648C41.648 378.648 41.3506 378.936 41.3506 379.304C41.3506 379.671 41.648 379.96 42.0504 379.96ZM41.4993 385.4H42.5927V380.729H41.4993V385.4ZM46.4767 385.461C47.9287 385.461 48.9695 384.464 48.9695 383.065C48.9695 381.665 47.9287 380.677 46.4767 380.677C45.0423 380.677 43.9927 381.665 43.9927 383.065C43.9927 384.464 45.0423 385.461 46.4767 385.461ZM46.4767 384.525C45.6895 384.525 45.0948 383.957 45.0948 383.065C45.0948 382.173 45.6895 381.604 46.4767 381.604C47.2727 381.604 47.8674 382.173 47.8674 383.065C47.8674 383.957 47.2727 384.525 46.4767 384.525ZM53.0151 380.677C52.3329 380.677 51.7644 380.904 51.4057 381.333V380.729H50.3649V385.4H51.4582V383.039C51.4582 382.103 51.983 381.63 52.7615 381.63C53.4612 381.63 53.8723 382.033 53.8723 382.864V385.4H54.9656V382.724C54.9656 381.315 54.1347 380.677 53.0151 380.677ZM61.7438 381.805L63.2307 380.038V379.277H59.0585V380.231H61.84L60.4493 381.884V382.662H61.009C61.9362 382.662 62.3385 383.021 62.3385 383.572C62.3385 384.141 61.8575 384.499 61.044 384.499C60.353 384.499 59.6883 384.263 59.251 383.896L58.7611 384.779C59.3297 385.225 60.1956 385.488 61.0615 385.488C62.7059 385.488 63.4843 384.595 63.4843 383.563C63.4843 382.645 62.8983 381.954 61.7438 381.805Z" fill="white"/>
</g>
<rect opacity="0.5" x="410" y="710" width="220.348" height="34.9342" rx="10.2329" fill="url(#paint8_linear_1035_1516)"/>
<path d="M435.644 726.091H429.849V720.36H426.345V726.091H420.549V729.365H426.345V735.096H429.849V729.365H435.644V726.091Z" fill="#879DE4"/>
<path d="M607.772 729.742H616.776V726.336H607.772V729.742Z" fill="#879DE4"/>
<path d="M494.674 721.354V731H493.114V730.103C492.846 730.432 492.512 730.679 492.113 730.844C491.723 731.009 491.29 731.091 490.813 731.091C490.146 731.091 489.544 730.944 489.006 730.649C488.478 730.354 488.062 729.938 487.758 729.401C487.455 728.855 487.303 728.231 487.303 727.529C487.303 726.827 487.455 726.207 487.758 725.67C488.062 725.133 488.478 724.717 489.006 724.422C489.544 724.127 490.146 723.98 490.813 723.98C491.273 723.98 491.693 724.058 492.074 724.214C492.456 724.37 492.781 724.604 493.049 724.916V721.354H494.674ZM491.008 729.7C491.398 729.7 491.749 729.613 492.061 729.44C492.373 729.258 492.62 729.002 492.802 728.673C492.984 728.344 493.075 727.962 493.075 727.529C493.075 727.096 492.984 726.714 492.802 726.385C492.62 726.056 492.373 725.804 492.061 725.631C491.749 725.449 491.398 725.358 491.008 725.358C490.618 725.358 490.267 725.449 489.955 725.631C489.643 725.804 489.396 726.056 489.214 726.385C489.032 726.714 488.941 727.096 488.941 727.529C488.941 727.962 489.032 728.344 489.214 728.673C489.396 729.002 489.643 729.258 489.955 729.44C490.267 729.613 490.618 729.7 491.008 729.7ZM498.1 724.058H499.725V731H498.1V724.058ZM498.919 722.914C498.625 722.914 498.378 722.823 498.178 722.641C497.979 722.45 497.879 722.216 497.879 721.939C497.879 721.662 497.979 721.432 498.178 721.25C498.378 721.059 498.625 720.964 498.919 720.964C499.214 720.964 499.461 721.055 499.66 721.237C499.86 721.41 499.959 721.631 499.959 721.9C499.959 722.186 499.86 722.429 499.66 722.628C499.47 722.819 499.223 722.914 498.919 722.914ZM505.303 731.091C504.74 731.091 504.189 731.017 503.652 730.87C503.115 730.723 502.686 730.536 502.365 730.311L502.989 729.076C503.301 729.284 503.674 729.453 504.107 729.583C504.549 729.704 504.982 729.765 505.407 729.765C506.378 729.765 506.863 729.509 506.863 728.998C506.863 728.755 506.737 728.586 506.486 728.491C506.243 728.396 505.849 728.305 505.303 728.218C504.731 728.131 504.263 728.032 503.899 727.919C503.544 727.806 503.232 727.611 502.963 727.334C502.703 727.048 502.573 726.654 502.573 726.151C502.573 725.492 502.846 724.968 503.392 724.578C503.947 724.179 504.692 723.98 505.628 723.98C506.105 723.98 506.581 724.036 507.058 724.149C507.535 724.253 507.925 724.396 508.228 724.578L507.604 725.813C507.015 725.466 506.352 725.293 505.615 725.293C505.138 725.293 504.774 725.367 504.523 725.514C504.28 725.653 504.159 725.839 504.159 726.073C504.159 726.333 504.289 726.519 504.549 726.632C504.818 726.736 505.229 726.836 505.784 726.931C506.339 727.018 506.794 727.117 507.149 727.23C507.504 727.343 507.808 727.533 508.059 727.802C508.319 728.071 508.449 728.452 508.449 728.946C508.449 729.596 508.167 730.116 507.604 730.506C507.041 730.896 506.274 731.091 505.303 731.091ZM515.321 730.623C515.131 730.779 514.897 730.896 514.619 730.974C514.351 731.052 514.065 731.091 513.761 731.091C512.999 731.091 512.409 730.892 511.993 730.493C511.577 730.094 511.369 729.514 511.369 728.751V725.41H510.225V724.11H511.369V722.524H512.994V724.11H514.853V725.41H512.994V728.712C512.994 729.05 513.077 729.31 513.241 729.492C513.406 729.665 513.644 729.752 513.956 729.752C514.32 729.752 514.624 729.657 514.866 729.466L515.321 730.623ZM520.61 723.98C521.633 723.98 522.413 724.227 522.95 724.721C523.496 725.206 523.769 725.943 523.769 726.931V731H522.235V730.155C522.036 730.458 521.75 730.692 521.377 730.857C521.013 731.013 520.571 731.091 520.051 731.091C519.531 731.091 519.076 731.004 518.686 730.831C518.296 730.649 517.993 730.402 517.776 730.09C517.568 729.769 517.464 729.41 517.464 729.011C517.464 728.387 517.694 727.889 518.153 727.516C518.621 727.135 519.354 726.944 520.35 726.944H522.144V726.84C522.144 726.355 521.997 725.982 521.702 725.722C521.416 725.462 520.987 725.332 520.415 725.332C520.025 725.332 519.64 725.393 519.258 725.514C518.886 725.635 518.569 725.804 518.309 726.021L517.672 724.838C518.036 724.561 518.474 724.348 518.985 724.201C519.497 724.054 520.038 723.98 520.61 723.98ZM520.389 729.908C520.797 729.908 521.156 729.817 521.468 729.635C521.789 729.444 522.014 729.176 522.144 728.829V728.023H520.467C519.531 728.023 519.063 728.331 519.063 728.946C519.063 729.241 519.18 729.475 519.414 729.648C519.648 729.821 519.973 729.908 520.389 729.908ZM531.094 723.98C531.969 723.98 532.671 724.236 533.2 724.747C533.728 725.258 533.993 726.017 533.993 727.022V731H532.368V727.23C532.368 726.623 532.225 726.168 531.939 725.865C531.653 725.553 531.245 725.397 530.717 725.397C530.119 725.397 529.646 725.579 529.3 725.943C528.953 726.298 528.78 726.814 528.78 727.49V731H527.155V724.058H528.702V724.955C528.97 724.634 529.308 724.392 529.716 724.227C530.123 724.062 530.582 723.98 531.094 723.98ZM540.603 731.091C539.883 731.091 539.238 730.939 538.666 730.636C538.094 730.333 537.647 729.912 537.327 729.375C537.006 728.829 536.846 728.214 536.846 727.529C536.846 726.844 537.006 726.233 537.327 725.696C537.647 725.159 538.089 724.738 538.653 724.435C539.225 724.132 539.875 723.98 540.603 723.98C541.287 723.98 541.885 724.119 542.397 724.396C542.917 724.673 543.307 725.072 543.567 725.592L542.319 726.32C542.119 725.999 541.868 725.761 541.565 725.605C541.27 725.44 540.945 725.358 540.59 725.358C539.983 725.358 539.48 725.557 539.082 725.956C538.683 726.346 538.484 726.87 538.484 727.529C538.484 728.188 538.679 728.716 539.069 729.115C539.467 729.505 539.974 729.7 540.59 729.7C540.945 729.7 541.27 729.622 541.565 729.466C541.868 729.301 542.119 729.059 542.319 728.738L543.567 729.466C543.298 729.986 542.904 730.389 542.384 730.675C541.872 730.952 541.279 731.091 540.603 731.091ZM552.696 727.568C552.696 727.681 552.687 727.841 552.67 728.049H547.223C547.318 728.56 547.565 728.968 547.964 729.271C548.371 729.566 548.874 729.713 549.472 729.713C550.234 729.713 550.863 729.462 551.357 728.959L552.228 729.96C551.916 730.333 551.521 730.614 551.045 730.805C550.568 730.996 550.031 731.091 549.433 731.091C548.67 731.091 547.998 730.939 547.418 730.636C546.837 730.333 546.386 729.912 546.066 729.375C545.754 728.829 545.598 728.214 545.598 727.529C545.598 726.853 545.749 726.246 546.053 725.709C546.365 725.163 546.794 724.738 547.34 724.435C547.886 724.132 548.501 723.98 549.186 723.98C549.862 723.98 550.464 724.132 550.993 724.435C551.53 724.73 551.946 725.15 552.241 725.696C552.544 726.233 552.696 726.857 552.696 727.568ZM549.186 725.28C548.666 725.28 548.224 725.436 547.86 725.748C547.504 726.051 547.288 726.459 547.21 726.97H551.149C551.079 726.467 550.867 726.06 550.512 725.748C550.156 725.436 549.714 725.28 549.186 725.28Z" fill="white"/>
<defs>
<linearGradient id="paint0_linear_1035_1516" x1="98" y1="85" x2="538" y2="85" gradientUnits="userSpaceOnUse">
<stop offset="0.0678069" stop-color="#3F8DFD" stop-opacity="0"/>
<stop offset="1" stop-color="#9BC4FF"/>
</linearGradient>
<linearGradient id="paint1_linear_1035_1516" x1="368.086" y1="38.2478" x2="368.086" y2="78.1843" gradientUnits="userSpaceOnUse">
<stop stop-color="#FFD361" stop-opacity="0.5"/>
<stop offset="1" stop-color="#F9B400" stop-opacity="0.79"/>
</linearGradient>
<linearGradient id="paint2_linear_1035_1516" x1="-13" y1="254" x2="256" y2="275" gradientUnits="userSpaceOnUse">
<stop stop-color="#5B83FB"/>
<stop offset="1" stop-color="#7A96EB" stop-opacity="0"/>
</linearGradient>
<linearGradient id="paint3_linear_1035_1516" x1="7" y1="336" x2="264" y2="336" gradientUnits="userSpaceOnUse">
<stop stop-color="#7A96EB"/>
<stop offset="1" stop-color="#7A96EB" stop-opacity="0"/>
</linearGradient>
<linearGradient id="paint4_linear_1035_1516" x1="127.819" y1="389.922" x2="127.819" y2="417.124" gradientUnits="userSpaceOnUse">
<stop stop-color="#7A96EB"/>
<stop offset="1" stop-color="#7A96EB" stop-opacity="0.47"/>
</linearGradient>
<linearGradient id="paint5_linear_1035_1516" x1="200.809" y1="256.405" x2="200.809" y2="264.422" gradientUnits="userSpaceOnUse">
<stop stop-color="#F9B400"/>
<stop offset="1" stop-color="#FFCE4F"/>
</linearGradient>
<linearGradient id="paint6_linear_1035_1516" x1="161.386" y1="327.464" x2="161.386" y2="335.196" gradientUnits="userSpaceOnUse">
<stop stop-color="#F9B400"/>
<stop offset="1" stop-color="#FFCE4F"/>
</linearGradient>
<linearGradient id="paint7_linear_1035_1516" x1="252.567" y1="357.392" x2="252.567" y2="365.124" gradientUnits="userSpaceOnUse">
<stop stop-color="#F9B400"/>
<stop offset="1" stop-color="#FFCE4F"/>
</linearGradient>
<linearGradient id="paint8_linear_1035_1516" x1="409.5" y1="744.934" x2="631" y2="744.934" gradientUnits="userSpaceOnUse">
<stop stop-color="#909DF8"/>
<stop offset="1" stop-color="#B8C7FF"/>
</linearGradient>
</defs>
</svg>
