<svg width="501" height="480" viewBox="0 0 501 480" fill="none" xmlns="http://www.w3.org/2000/svg">
<path d="M379.48 183.021V158.16L366.321 165.969L359.88 161.916V153.178L379.48 141.473V125.134L363.8 134.742V117.431L348.12 125.64V149.121L341.64 153.942L336.36 149.587V133.86L314.51 146.098L305 142.182V132.269L327.285 119.842L312.84 112.7V103.606L321.162 99.1878L341.601 111.214L355.76 103.045L355.439 102.79L341.072 94.4681L355.058 85.7343L341.037 77.569L320.602 89.5328L312.84 85.7343V76.6909L326.725 68.9371L305 56.9694V47.0557L314.098 42.6888L336.36 55.221V39.2431L342.181 34.8253L349.798 39.4509L349.578 63.3825L363.976 71.7007L364.106 54.8016L379.48 63.0297V46.695L359.88 34.9821V26.3032L366.321 22.1872L379.48 29.9958V5.19008L387.296 0L395.16 5.19008V29.9958L410.472 22.0343L418.68 26.8128V34.6214L395.16 46.695V63.0297L410.84 54.143V71.9163L426.52 63.747V38.173L432.224 34.7782L438.28 38.169V54.5037L461.181 42.4301L469.64 47.2046V56.4519L448.1 68.8783L461.8 76.538V85.3737L454.626 89.278L433.745 76.8986L419.323 86.095L433.235 94.8287L418.892 103.147L433.678 110.956L454.803 99.2505L461.8 104.017V112.445L448.786 119.842L469.64 132.269V142.029L459.754 146.094L438.28 134.382V149.885L432.322 153.997L426.52 149.885V126.357L410.84 117.682V134.021L395.16 125.13V141.469L414.76 153.174V162.421L408.304 165.965L395.16 158.164V183.025L387.296 188.16L379.48 183.021ZM373.733 94.4406L381.126 105.84H394.901L401.224 94.4406L394.545 82.32H380.77L373.733 94.4406Z" fill="url(#paint0_linear_1179_1798)"/>
<path d="M75.1597 324.941V300.08L62.0002 307.889L55.5597 303.836V295.098L75.1597 283.393V267.054L59.4797 276.662V259.351L43.7997 267.56V291.041L37.3199 295.862L32.0397 291.507V275.78L10.1896 288.018L0.679688 284.102V274.189L22.9649 261.762L8.51969 254.62V245.526L16.8418 241.108L37.2807 253.134L51.4398 244.965L51.1183 244.71L36.7515 236.388L50.7381 227.654L36.7162 219.489L16.2813 231.453L8.51969 227.654V218.611L22.4043 210.857L0.679688 198.889V188.976L9.77801 184.609L32.0397 197.141V181.163L37.8609 176.745L45.4775 181.371L45.2579 205.302L59.6561 213.621L59.7854 196.722L75.1597 204.95V188.615L55.5597 176.902V168.223L62.0002 164.107L75.1597 171.916V147.11L82.9762 141.92L90.8397 147.11V171.916L106.151 163.954L114.36 168.733V176.541L90.8397 188.615V204.95L106.52 196.063V213.836L122.2 205.667V180.093L127.903 176.698L133.96 180.089V196.424L156.86 184.35L165.32 189.125V198.372L143.779 210.798L157.48 218.458V227.294L150.306 231.198L129.424 218.819L115.003 228.015L128.915 236.749L114.571 245.067L129.358 252.876L150.482 241.17L157.48 245.937V254.365L144.465 261.762L165.32 274.189V283.949L155.433 288.014L133.96 276.301V291.805L128.001 295.917L122.2 291.805V268.277L106.52 259.602V275.941L90.8397 267.05V283.389L110.44 295.094V304.341L103.983 307.885L90.8397 300.084V324.945L82.9762 330.08L75.1597 324.941ZM69.413 236.361L76.8061 247.76H90.581L96.9039 236.361L90.2243 224.24H76.4494L69.413 236.361Z" fill="url(#paint1_linear_1179_1798)"/>
<path d="M501 345.4H1V345.65H501V345.4Z" fill="#E0E0E0"/>
<path d="M425.11 359.43H414.5V359.68H425.11V359.43Z" fill="#E0E0E0"/>
<path d="M407.16 359.55H364.01V359.8H407.16V359.55Z" fill="#E0E0E0"/>
<path d="M310.67 357.17H237.85V357.42H310.67V357.17Z" fill="#E0E0E0"/>
<path d="M195.96 361.51H172.85V361.76H195.96V361.51Z" fill="#E0E0E0"/>
<path d="M118.95 357.29H87.1299V357.54H118.95V357.29Z" fill="#E0E0E0"/>
<path d="M154.24 357.29H124.5V357.54H154.24V357.29Z" fill="#E0E0E0"/>
<path d="M96.66 352.92H66.29V353.17H96.66V352.92Z" fill="#E0E0E0"/>
<path d="M238 300.8H44.91C43.3973 300.797 41.9475 300.195 40.8788 299.124C39.8102 298.054 39.21 296.603 39.21 295.09V23.66C39.2231 22.156 39.8292 20.718 40.8964 19.6582C41.9637 18.5985 43.4059 18.0026 44.91 18H238C239.514 18 240.967 18.6016 242.038 19.6724C243.108 20.7433 243.71 22.1956 243.71 23.71V295.09C243.71 296.604 243.108 298.057 242.038 299.128C240.967 300.198 239.514 300.8 238 300.8V300.8ZM44.91 18.2C43.4636 18.2026 42.0774 18.7791 41.0556 19.8027C40.0338 20.8264 39.46 22.2136 39.46 23.66V295.09C39.46 296.536 40.0338 297.924 41.0556 298.947C42.0774 299.971 43.4636 300.547 44.91 300.55H238C239.447 300.547 240.834 299.971 241.858 298.948C242.881 297.924 243.457 296.537 243.46 295.09V23.66C243.457 22.2127 242.881 20.8255 241.858 19.8021C240.834 18.7787 239.447 18.2026 238 18.2H44.91Z" fill="#E0E0E0"/>
<path d="M454.31 300.8H261.21C259.696 300.797 258.246 300.195 257.175 299.125C256.105 298.054 255.503 296.604 255.5 295.09V23.66C255.516 22.1551 256.124 20.7171 257.193 19.6576C258.262 18.5981 259.705 18.0025 261.21 18H454.31C455.812 18.0052 457.252 18.6022 458.317 19.6617C459.382 20.7212 459.987 22.1578 460 23.66V295.09C460 296.601 459.401 298.05 458.335 299.121C457.268 300.191 455.821 300.795 454.31 300.8V300.8ZM261.21 18.2C259.763 18.2026 258.375 18.7787 257.352 19.8021C256.329 20.8255 255.753 22.2127 255.75 23.66V295.09C255.753 296.537 256.329 297.924 257.352 298.948C258.375 299.971 259.763 300.547 261.21 300.55H454.31C455.757 300.547 457.145 299.971 458.168 298.948C459.191 297.924 459.767 296.537 459.77 295.09V23.66C459.767 22.2127 459.191 20.8255 458.168 19.8021C457.145 18.7787 455.757 18.2026 454.31 18.2H261.21Z" fill="#E0E0E0"/>
<path d="M179.33 247.61C179.88 247.61 180.43 247.61 180.99 247.66C184.474 247.906 187.861 248.92 190.907 250.629C193.954 252.338 196.585 254.7 198.611 257.545C200.637 260.39 202.009 263.649 202.627 267.087C203.246 270.524 203.097 274.057 202.19 277.43C199.606 287.503 198.359 297.872 198.48 308.27V338.55C198.48 339.611 198.058 340.628 197.308 341.378C196.558 342.128 195.541 342.55 194.48 342.55H98.3896V247.61H179.33Z" fill="#E6E6E6"/>
<path d="M74.7199 271.28C74.7228 267.911 75.445 264.581 76.8379 261.514C78.2309 258.446 80.2627 255.712 82.7974 253.492C85.3321 251.273 88.3114 249.62 91.5361 248.645C94.7608 247.669 98.1565 247.393 101.496 247.836C104.836 248.278 108.043 249.428 110.903 251.209C113.763 252.99 116.209 255.361 118.079 258.163C119.949 260.966 121.199 264.135 121.746 267.459C122.293 270.784 122.124 274.186 121.25 277.44C118.667 287.513 117.419 297.882 117.54 308.28V338.56C117.54 339.621 117.118 340.638 116.368 341.388C115.618 342.139 114.601 342.56 113.54 342.56H83.2199C82.159 342.56 81.1416 342.139 80.3914 341.388C79.6413 340.638 79.2199 339.621 79.2199 338.56V306.5C79.3074 296.749 78.0762 287.031 75.5599 277.61C74.995 275.548 74.7124 273.418 74.7199 271.28V271.28Z" fill="#F0F0F0"/>
<path d="M131.01 342.53H252.54V284.9H131.01V342.53Z" fill="#E6E6E6"/>
<path d="M323.84 297.93H173.11V233.79C173.11 229.037 174.998 224.479 178.359 221.119C181.719 217.758 186.277 215.87 191.03 215.87H305.95C310.697 215.878 315.248 217.769 318.602 221.129C321.956 224.489 323.84 229.042 323.84 233.79V297.93Z" fill="#E0E0E0"/>
<path d="M301.28 297.93H150.56V232.93C150.56 228.408 152.357 224.071 155.554 220.874C158.752 217.676 163.088 215.88 167.61 215.88H284.23C288.752 215.88 293.089 217.676 296.286 220.874C299.484 224.071 301.28 228.408 301.28 232.93V297.93Z" fill="#F0F0F0"/>
<path d="M246.89 303.1H132.12C130.741 303.1 129.419 302.552 128.443 301.577C127.468 300.602 126.92 299.279 126.92 297.9V284.83C126.92 283.451 127.468 282.128 128.443 281.153C129.419 280.178 130.741 279.63 132.12 279.63H246.89C247.302 279.63 247.696 279.793 247.986 280.084C248.277 280.375 248.44 280.769 248.44 281.18V301.55C248.44 301.961 248.277 302.355 247.986 302.646C247.696 302.937 247.302 303.1 246.89 303.1V303.1Z" fill="#E0E0E0"/>
<path d="M332.34 247.61C332.89 247.61 333.45 247.61 334.01 247.66C337.495 247.906 340.881 248.92 343.928 250.629C346.974 252.338 349.605 254.7 351.631 257.545C353.658 260.39 355.029 263.649 355.648 267.087C356.267 270.524 356.117 274.057 355.21 277.43C352.619 287.501 351.368 297.871 351.49 308.27V338.55C351.49 339.611 351.069 340.628 350.319 341.378C349.568 342.128 348.551 342.55 347.49 342.55H251.41V247.61H332.34Z" fill="#E6E6E6"/>
<path d="M227.73 271.28C227.766 265.157 230.172 259.286 234.443 254.9C238.715 250.513 244.519 247.951 250.639 247.752C256.758 247.552 262.717 249.731 267.265 253.831C271.813 257.931 274.596 263.633 275.03 269.74C275.196 272.331 274.939 274.932 274.27 277.44C271.686 287.513 270.439 297.882 270.56 308.28V338.56C270.56 339.621 270.138 340.638 269.388 341.389C268.638 342.139 267.621 342.56 266.56 342.56H236.23C235.169 342.56 234.152 342.139 233.401 341.389C232.651 340.638 232.23 339.621 232.23 338.56V306.5C232.319 296.748 231.084 287.03 228.56 277.61C227.998 275.547 227.719 273.418 227.73 271.28Z" fill="#F0F0F0"/>
<path d="M100.08 345.41H330.65C331.029 345.411 331.405 345.338 331.755 345.194C332.106 345.05 332.425 344.838 332.693 344.57C332.962 344.302 333.175 343.985 333.32 343.634C333.465 343.284 333.54 342.909 333.54 342.53H97.2002C97.2002 343.294 97.5036 344.026 98.0437 344.566C98.5838 345.107 99.3164 345.41 100.08 345.41V345.41Z" fill="#E0E0E0"/>
<path d="M413.59 341.32H434.33V232.91H413.59V341.32Z" fill="#E6E6E6"/>
<path d="M339.95 345.4H430.35V341.33H339.95V345.4Z" fill="#E6E6E6"/>
<path d="M413.59 232.91H335.97V341.32H413.59V232.91Z" fill="#F0F0F0"/>
<path d="M410.65 236.48H338.91V305.46H410.65V236.48Z" fill="#E6E6E6"/>
<path d="M410.65 308.39H338.91V333.25H410.65V308.39Z" fill="#E6E6E6"/>
<path d="M354.04 236.48H338.91V305.46H354.04V236.48Z" fill="#E0E0E0"/>
<path d="M354.04 308.39H338.91V333.25H354.04V308.39Z" fill="#E0E0E0"/>
<path d="M172.35 182.23L352.19 182.23V51.77L172.35 51.77L172.35 182.23Z" fill="#E0E0E0"/>
<path d="M159.47 182.23L348.9 182.23V51.77L159.47 51.77L159.47 182.23Z" fill="#F0F0F0"/>
<path d="M344.89 178.21V55.79L163.5 55.79V178.21H344.89Z" fill="#FAFAFA"/>
<path d="M262.055 117.926C264.879 100.357 252.925 83.8254 235.356 81.0018C217.787 78.1783 201.255 90.132 198.432 107.701C195.608 125.27 207.562 141.802 225.131 144.625C242.7 147.449 259.232 135.495 262.055 117.926Z" fill="#E0E0E0"/>
<path d="M177.21 150C180.14 146.3 186.02 143.45 190.37 143.63C191.012 143.607 191.652 143.712 192.253 143.938C192.854 144.165 193.403 144.509 193.87 144.95C201.81 140.35 210.95 137.53 218.5 137.84C222.34 137.99 225.32 138.94 227.38 140.49C235.91 133.55 246.78 128.62 254.67 128.62C259.15 128.62 261.93 130.22 262.92 132.87C271.67 128.21 280.66 125.35 287.92 125.35C299.48 125.35 303.23 132.62 298.5 142.84C300.4 144.77 309.5 147.46 309.14 150.68H176.71C176.87 150.43 177 150.2 177.21 150Z" fill="#F0F0F0"/>
<path d="M222.8 103.06C223.338 103.038 223.873 103.149 224.358 103.383C224.842 103.616 225.262 103.966 225.58 104.4C232.32 99.73 239.92 96.86 246.04 97.18C248.655 97.1698 251.18 98.1281 253.13 99.87C260.45 92.87 269.59 87.87 276.01 87.87C279.67 87.87 281.85 89.49 282.5 92.18C289.89 87.45 297.37 84.54 303.29 84.54C310.61 84.54 313.85 89.01 312.84 95.87C316.37 93.87 319.84 92.7 322.66 92.7C326.57 92.7 328.41 94.95 328.09 98.49C328.43 98.49 328.77 98.49 329.09 98.54C335.09 99.13 337.35 103.7 334.48 108.93H212.16C214.84 105.46 219.45 102.89 222.8 103.06Z" fill="#F0F0F0"/>
<path d="M123.88 104.225C126.571 86.6355 114.494 70.1941 96.9041 67.5025C79.3143 64.8108 62.8729 76.8883 60.1812 94.4781C57.4896 112.068 69.567 128.509 87.1569 131.201C104.747 133.893 121.188 121.815 123.88 104.225Z" fill="#E0E0E0"/>
<path d="M121.993 104.478C124.817 86.9085 112.863 70.3769 95.2937 67.5534C77.7245 64.7298 61.1929 76.6835 58.3693 94.2527C55.5458 111.822 67.4995 128.353 85.0686 131.177C102.638 134.001 119.169 122.047 121.993 104.478Z" fill="#F0F0F0"/>
<path d="M118.35 99.34C118.36 106.007 116.008 112.463 111.712 117.561C107.415 122.66 101.452 126.072 94.879 127.192C88.3064 128.312 81.5495 127.068 75.8068 123.68C70.0641 120.293 65.7069 114.981 63.508 108.686C61.3091 102.392 61.4107 95.5222 63.7948 89.2956C66.1788 83.069 70.6912 77.8881 76.5316 74.6719C82.3719 71.4556 89.1627 70.4119 95.6993 71.7259C102.236 73.0399 108.096 76.6267 112.24 81.85L112.32 81.94C116.234 86.8942 118.359 93.026 118.35 99.34Z" fill="#E0E0E0"/>
<path d="M118.35 99.34C118.342 105.02 116.617 110.565 113.402 115.248C110.187 119.931 105.632 123.534 100.335 125.582C95.0366 127.631 89.2432 128.031 83.714 126.73C78.1848 125.429 73.1779 122.487 69.35 118.29C64.8346 112.562 62.7169 105.306 63.4426 98.0481C64.1682 90.7905 67.6806 84.0972 73.2408 79.3765C78.8009 74.6558 85.9753 72.2758 93.2545 72.7371C100.534 73.1984 107.35 76.4652 112.27 81.85L112.35 81.94C116.254 86.8982 118.368 93.0296 118.35 99.34V99.34Z" fill="#FAFAFA"/>
<path d="M90.7902 102.07C90.4138 102.066 90.0462 101.956 89.7296 101.753C89.4129 101.549 89.1601 101.261 89.0002 100.92L81.8202 85.5999C81.7027 85.3615 81.6339 85.1021 81.6179 84.8368C81.6019 84.5714 81.6389 84.3056 81.7268 84.0548C81.8146 83.8039 81.9517 83.5731 82.1298 83.3758C82.3079 83.1785 82.5235 83.0187 82.7641 82.9058C83.0047 82.7928 83.2654 82.7289 83.5309 82.7178C83.7965 82.7067 84.0616 82.7487 84.3108 82.8413C84.5599 82.9338 84.7881 83.0751 84.982 83.2569C85.176 83.4387 85.3317 83.6573 85.4402 83.8999L91.8002 97.4999L100.99 93.7799C101.482 93.581 102.033 93.5857 102.522 93.7929C103.01 94.0001 103.396 94.393 103.595 94.8849C103.794 95.3769 103.789 95.9278 103.582 96.4163C103.375 96.9048 102.982 97.291 102.49 97.4899L91.5402 101.92C91.3021 102.018 91.0475 102.069 90.7902 102.07Z" fill="#E0E0E0"/>
<path d="M373.46 279.45C380.92 280.45 385.54 264.25 369.06 250.51C370 266.42 360.44 277.65 373.46 279.45Z" fill="#F0F0F0"/>
<path d="M378.16 289.7C388.99 282.11 381.58 255.6 348.08 257.52C362.57 277 359.29 302.93 378.16 289.7Z" fill="#F0F0F0"/>
<path d="M374.34 289.52C367.15 281.77 377.39 262.27 403.27 269.39C388.66 282.23 386.89 303 374.34 289.52Z" fill="#F0F0F0"/>
<path d="M363.2 305.46H385.45L387.13 290.67H361.52L363.2 305.46Z" fill="#E0E0E0"/>
<path d="M359.87 293.31H388.79V290.05H359.87V293.31Z" fill="#E0E0E0"/>
<path d="M251 390.56C358.083 390.56 444.89 385.492 444.89 379.24C444.89 372.988 358.083 367.92 251 367.92C143.918 367.92 57.1104 372.988 57.1104 379.24C57.1104 385.492 143.918 390.56 251 390.56Z" fill="#F5F5F5"/>
<path d="M388.622 350.856L381.479 353.621L387.632 369.514L394.774 366.75L388.622 350.856Z" fill="#E4897B"/>
<path d="M420.55 371.55H413.02L410.25 354.12H417.78L420.55 371.55Z" fill="#E4897B"/>
<path d="M412.531 370.68H421.001C421.146 370.678 421.288 370.729 421.4 370.822C421.512 370.916 421.587 371.046 421.611 371.19L422.711 377.89C422.734 378.058 422.72 378.228 422.671 378.39C422.622 378.551 422.539 378.701 422.427 378.827C422.315 378.953 422.177 379.054 422.022 379.122C421.867 379.19 421.7 379.223 421.531 379.22C418.581 379.17 417.151 379 413.431 379C411.141 379 404.231 379.24 401.071 379.24C397.911 379.24 397.681 376.11 398.991 375.83C404.861 374.56 409.341 372.83 411.291 371.14C411.64 370.851 412.077 370.689 412.531 370.68Z" fill="#263238"/>
<path d="M387.471 368L395.471 365.67C395.611 365.624 395.763 365.629 395.899 365.686C396.035 365.743 396.146 365.848 396.211 365.98L399.211 371.98C399.282 372.132 399.319 372.298 399.319 372.466C399.319 372.634 399.282 372.8 399.21 372.952C399.138 373.104 399.034 373.238 398.905 373.345C398.775 373.452 398.623 373.529 398.461 373.57C395.561 374.36 393.601 374.86 389.971 375.92C387.451 376.65 384.901 377.84 382.411 378.63C380.701 379.18 376.661 379.2 374.571 379.2C371.481 379.2 370.791 375.94 372.111 375.79C375.461 375.41 375.921 375.59 377.771 374.66C380.793 373.333 383.532 371.439 385.841 369.08C386.281 368.585 386.843 368.213 387.471 368V368Z" fill="#263238"/>
<path d="M376.3 127.77C375.68 129.34 375.09 130.71 374.42 132.15C373.75 133.59 373.08 134.97 372.37 136.36C370.934 139.18 369.341 141.918 367.6 144.56C365.784 147.374 363.679 149.992 361.32 152.37C359.98 153.726 358.483 154.918 356.86 155.92C354.825 157.186 352.495 157.903 350.1 158C349.431 158.018 348.761 157.971 348.1 157.86C347.523 157.766 346.951 157.636 346.39 157.47C345.437 157.18 344.507 156.815 343.61 156.38C342.073 155.609 340.593 154.73 339.18 153.75C336.587 151.947 334.115 149.976 331.78 147.85C327.246 143.745 323.014 139.317 319.12 134.6L323 130.7C327.59 134.32 332.3 137.94 337 141.24C339.29 142.865 341.659 144.373 344.1 145.76C345.202 146.388 346.348 146.932 347.53 147.39C348.178 147.715 348.896 147.876 349.62 147.86C350.192 147.69 350.728 147.416 351.2 147.05C352.065 146.41 352.863 145.683 353.58 144.88C355.301 142.909 356.841 140.787 358.18 138.54C359.62 136.2 360.97 133.73 362.25 131.21C362.89 129.95 363.51 128.67 364.11 127.39C364.71 126.11 365.32 124.76 365.83 123.58L376.3 127.77Z" fill="#E4897B"/>
<path d="M324.07 133.11L323 127.18L315.37 131.86C315.37 131.86 317.78 135.6 320.32 135.66L324.07 133.11Z" fill="#E4897B"/>
<path d="M319.44 123.61L313.48 127.66L315.36 131.86L322.99 127.18L319.44 123.61Z" fill="#E4897B"/>
<path d="M379.8 120.11C381.64 126.95 371.62 140.69 371.62 140.69L358.46 133.31C358.46 133.31 360.91 127.66 363.92 121.91C368.77 112.62 377.69 112.31 379.8 120.11Z" fill="#FF4040"/>
<path opacity="0.6" d="M379.8 120.11C381.64 126.95 371.62 140.69 371.62 140.69L358.46 133.31C358.46 133.31 360.91 127.66 363.92 121.91C368.77 112.62 377.69 112.31 379.8 120.11Z" fill="#FAFAFA"/>
<path d="M363.71 136.24L368.88 139.14L369.78 123.28C366.78 125.59 364.65 132.55 363.71 136.24Z" fill="#FF4040"/>
<path opacity="0.3" d="M363.71 136.24L368.88 139.14L369.78 123.28C366.78 125.59 364.65 132.55 363.71 136.24Z" fill="#FAFAFA"/>
<path d="M389.688 352.209L382.523 354.975L385.696 363.194L392.861 360.428L389.688 352.209Z" fill="#CE6F64"/>
<path d="M417.79 354.12H410.25L411.68 363.11H419.21L417.79 354.12Z" fill="#CE6F64"/>
<path d="M413.36 114.57C405.69 143.7 407.81 173.86 407.17 180.04H366.9C360.9 137.7 371.16 114.96 371.16 114.96C371.16 114.96 374.36 114.1 378.48 113.43L379.63 113.26C380.68 113.11 381.76 112.97 382.86 112.87C388.562 112.54 394.278 112.54 399.98 112.87C400.87 112.87 401.77 112.98 402.65 113.05L403.7 113.15C408.89 113.66 413.36 114.57 413.36 114.57Z" fill="#FF4040"/>
<path opacity="0.6" d="M413.36 114.57C405.69 143.7 407.81 173.86 407.17 180.04H366.9C360.9 137.7 371.16 114.96 371.16 114.96C371.16 114.96 374.36 114.1 378.48 113.43L379.63 113.26C380.68 113.11 381.76 112.97 382.86 112.87C388.562 112.54 394.278 112.54 399.98 112.87C400.87 112.87 401.77 112.98 402.65 113.05L403.7 113.15C408.89 113.66 413.36 114.57 413.36 114.57Z" fill="#FAFAFA"/>
<path d="M365.62 168.58C365.76 170.387 365.937 172.24 366.15 174.14L396.15 164.42C400.827 163.026 404.89 160.081 407.67 156.07C407.78 153.4 407.93 150.59 408.16 147.66C408.26 146.23 408.39 144.77 408.52 143.29C408.65 141.81 408.83 140.18 409.01 138.6L365.62 168.58Z" fill="#FF4040"/>
<path opacity="0.3" d="M365.62 168.58C365.76 170.387 365.937 172.24 366.15 174.14L396.15 164.42C400.827 163.026 404.89 160.081 407.67 156.07C407.78 153.4 407.93 150.59 408.16 147.66C408.26 146.23 408.39 144.77 408.52 143.29C408.65 141.81 408.83 140.18 409.01 138.6L365.62 168.58Z" fill="#FAFAFA"/>
<path d="M402.65 113.05L402.25 113.91C402.12 114.2 398.93 120.96 387.2 120.96C385.64 120.96 380.89 120.96 379.4 117.64C379.115 116.938 378.988 116.181 379.027 115.424C379.067 114.668 379.273 113.929 379.63 113.26L378.48 113.43C378.17 114.161 378.01 114.946 378.01 115.74C378.01 116.534 378.17 117.319 378.48 118.05C380.23 121.96 385.48 121.96 387.19 121.96C399.55 121.96 403.01 114.63 403.19 114.32L403.72 113.15L402.65 113.05Z" fill="#FAFAFA"/>
<path d="M399.41 93.5901C398.01 99.1001 396.34 109.19 399.98 112.87C399.98 112.87 397.44 118.46 387.2 118.46C377.85 118.46 382.86 112.87 382.86 112.87C389.09 111.4 389.2 106.87 388.38 102.57L399.41 93.5901Z" fill="#E4897B"/>
<path d="M394.91 97.25L388.38 102.56C388.587 103.547 388.704 104.551 388.73 105.56C390.64 107.46 394.47 102.65 394.87 100.19C395.059 99.2203 395.072 98.2245 394.91 97.25Z" fill="#CE6F64"/>
<path d="M376.61 90.9202C376.769 91.8132 377.112 92.6635 377.616 93.4174C378.12 94.1712 378.775 94.8124 379.54 95.3002C381.62 96.6202 383.54 94.9502 383.63 92.6302C383.75 90.5502 382.81 87.3502 380.38 86.9702C379.851 86.8912 379.31 86.9405 378.804 87.1141C378.297 87.2877 377.84 87.5804 377.471 87.9676C377.101 88.3547 376.83 88.8251 376.68 89.3389C376.531 89.8528 376.506 90.3951 376.61 90.9202Z" fill="#CE6F64"/>
<path d="M382.14 76.3801C378.29 77.8301 375.95 92.5702 380.49 95.0802C385.03 97.5902 389.43 73.6401 382.14 76.3801Z" fill="#263238"/>
<path d="M375.64 81.4902C378.48 84.4902 392.96 80.8902 393.51 75.7302C394.06 70.5702 370.27 75.8502 375.64 81.4902Z" fill="#263238"/>
<path d="M399.2 84.6501C398.93 92.1601 399.15 96.5501 395.49 100.65C394.367 102.018 392.887 103.049 391.215 103.63C389.543 104.211 387.743 104.318 386.013 103.941C384.284 103.563 382.692 102.715 381.414 101.49C380.136 100.266 379.221 98.7118 378.77 97.0001C377.01 90.4201 377.77 79.2501 384.95 75.6701C386.457 74.8429 388.157 74.4339 389.875 74.4856C391.593 74.5372 393.265 75.0477 394.719 75.964C396.173 76.8803 397.356 78.169 398.144 79.6963C398.932 81.2237 399.296 82.9341 399.2 84.6501V84.6501Z" fill="#E4897B"/>
<path d="M394.67 69.0601C399.98 67.7501 401.14 69.2501 401.38 72.8801C401.62 76.5101 406.46 75.5001 404.83 80.9801C404.07 83.5701 402.12 83.3501 403.31 86.4001C404.67 89.9101 396.6 94.1601 394.7 94.1501C391.57 94.1501 392.26 87.6301 394.81 81.7001C396.72 77.2601 391.96 78.4901 386.5 80.1501C374.2 83.8801 366.05 73.1501 373.68 68.0101C377.72 65.2801 388.83 70.9401 394.67 69.0601Z" fill="#263238"/>
<path d="M402.76 92.6102C401.805 94.2774 400.26 95.5262 398.43 96.1102C396.02 96.8502 394.89 94.7302 395.62 92.4402C396.28 90.3702 398.34 87.5002 400.72 87.7702C403.1 88.0402 403.92 90.5402 402.76 92.6102Z" fill="#E4897B"/>
<path d="M366.9 180C366.9 180 360.14 240.49 359.61 263.45C359.06 287.34 382.52 361.85 382.52 361.85L394.52 356.8C394.52 356.8 380.52 288.73 382.52 265.28C384.6 239.75 393.37 180 393.37 180H366.9Z" fill="#263238"/>
<path d="M383.69 196.65C378.31 207.83 381.94 229.93 384.86 243.03C385.97 233.79 387.28 223.75 388.53 214.46C388.41 200.17 387.3 189.15 383.69 196.65Z" fill="#182137"/>
<path d="M394.001 352.92C394.051 352.92 395.421 356.75 395.421 356.75L381.581 362.56L379.391 358.51L394.001 352.92Z" fill="#407BFF"/>
<path opacity="0.6" d="M394.001 352.92C394.051 352.92 395.421 356.75 395.421 356.75L381.581 362.56L379.391 358.51L394.001 352.92Z" fill="#FAFAFA"/>
<path d="M381.181 180C381.181 180 386.351 237.53 389.781 259.09C393.531 282.7 408.271 361.33 408.271 361.33H422.071C422.071 361.33 413.801 284.6 412.241 261.23C410.551 235.86 407.171 180 407.171 180H381.181Z" fill="#263238"/>
<path d="M422.28 357.2C422.33 357.2 422.74 361.63 422.74 361.63H407.58L406.5 356.63L422.28 357.2Z" fill="#407BFF"/>
<path opacity="0.6" d="M422.28 357.2C422.33 357.2 422.74 361.63 422.74 361.63H407.58L406.5 356.63L422.28 357.2Z" fill="#FAFAFA"/>
<path d="M417 353.22C416.968 353.22 416.938 353.207 416.915 353.185C416.893 353.162 416.88 353.132 416.88 353.1C416.8 352.41 409.35 283.1 407.95 262.1C406.43 239.31 403.37 188.79 403.34 188.28C403.339 188.263 403.341 188.246 403.346 188.23C403.352 188.213 403.36 188.198 403.371 188.185C403.382 188.172 403.396 188.161 403.411 188.154C403.427 188.146 403.443 188.141 403.46 188.14V188.14C403.493 188.14 403.525 188.152 403.549 188.175C403.573 188.197 403.588 188.227 403.59 188.26C403.59 188.77 406.68 239.26 408.2 262.08C409.6 283.08 417.05 352.34 417.13 353.08C417.133 353.097 417.132 353.114 417.128 353.13C417.124 353.146 417.117 353.161 417.106 353.175C417.096 353.188 417.083 353.199 417.068 353.206C417.053 353.214 417.037 353.219 417.02 353.22H417Z" fill="#407BFF"/>
<path opacity="0.5" d="M417 353.22C416.968 353.22 416.938 353.207 416.915 353.185C416.893 353.162 416.88 353.132 416.88 353.1C416.8 352.41 409.35 283.1 407.95 262.1C406.43 239.31 403.37 188.79 403.34 188.28C403.339 188.263 403.341 188.246 403.346 188.23C403.352 188.213 403.36 188.198 403.371 188.185C403.382 188.172 403.396 188.161 403.411 188.154C403.427 188.146 403.443 188.141 403.46 188.14V188.14C403.493 188.14 403.525 188.152 403.549 188.175C403.573 188.197 403.588 188.227 403.59 188.26C403.59 188.77 406.68 239.26 408.2 262.08C409.6 283.08 417.05 352.34 417.13 353.08C417.133 353.097 417.132 353.114 417.128 353.13C417.124 353.146 417.117 353.161 417.106 353.175C417.096 353.188 417.083 353.199 417.068 353.206C417.053 353.214 417.037 353.219 417.02 353.22H417Z" fill="black"/>
<path d="M388.001 87.6802C388.001 88.2902 387.711 88.8102 387.311 88.8402C386.911 88.8702 386.581 88.4102 386.571 87.8402C386.561 87.2702 386.861 86.7102 387.261 86.6802C387.661 86.6502 388.001 87.0702 388.001 87.6802Z" fill="#263238"/>
<path d="M381.14 88.25C381.14 88.86 380.85 89.38 380.45 89.41C380.05 89.44 379.72 88.98 379.71 88.41C379.7 87.84 380 87.28 380.4 87.25C380.8 87.22 381.12 87.64 381.14 88.25Z" fill="#263238"/>
<path d="M383.321 88.3701C382.641 90.299 381.713 92.1311 380.561 93.8201C381.651 94.7301 383.461 94.1201 383.461 94.1201L383.321 88.3701Z" fill="#DE5753"/>
<path d="M388.379 94.3224C388.425 94.3301 388.465 94.355 388.493 94.3919C388.52 94.4287 388.533 94.4748 388.528 94.5205C388.519 94.5685 388.493 94.6115 388.454 94.6407C388.415 94.6698 388.366 94.6829 388.318 94.6771C387.552 94.6015 386.778 94.6989 386.055 94.9622C385.332 95.2255 384.677 95.6479 384.138 96.1983C384.109 96.2337 384.067 96.2561 384.022 96.2606C383.976 96.2651 383.931 96.2514 383.896 96.2224C383.86 96.1934 383.838 96.1516 383.833 96.1061C383.829 96.0606 383.843 96.0151 383.872 95.9798C384.446 95.3776 385.152 94.9151 385.933 94.6278C386.714 94.3405 387.551 94.236 388.379 94.3224Z" fill="#263238"/>
<path d="M390.141 83.8001C390.086 83.8021 390.031 83.7914 389.98 83.7689C389.93 83.7463 389.886 83.7125 389.851 83.6701C389.577 83.3187 389.224 83.0368 388.821 82.8474C388.418 82.658 387.976 82.5664 387.531 82.5801C387.485 82.5857 387.439 82.582 387.395 82.5692C387.351 82.5565 387.31 82.535 387.275 82.5061C387.239 82.4771 387.21 82.4413 387.188 82.4008C387.167 82.3602 387.154 82.3158 387.151 82.2701C387.148 82.1742 387.181 82.0807 387.244 82.0083C387.307 81.936 387.395 81.8902 387.491 81.8801C388.053 81.8545 388.613 81.9637 389.124 82.1985C389.636 82.4333 390.084 82.7871 390.431 83.2301C390.459 83.2664 390.481 83.3081 390.493 83.3529C390.505 83.3976 390.508 83.4443 390.501 83.4902C390.495 83.5361 390.479 83.5802 390.455 83.6197C390.431 83.6593 390.398 83.6934 390.361 83.7201C390.298 83.7699 390.221 83.798 390.141 83.8001V83.8001Z" fill="#263238"/>
<path d="M378.17 84.83C378.119 84.8169 378.071 84.7931 378.03 84.76C377.997 84.7274 377.97 84.6885 377.952 84.6456C377.934 84.6027 377.925 84.5566 377.925 84.51C377.925 84.4635 377.934 84.4174 377.952 84.3744C377.97 84.3315 377.997 84.2926 378.03 84.26C378.376 83.792 378.829 83.4129 379.35 83.1539C379.872 82.8949 380.448 82.7633 381.03 82.77C381.076 82.7723 381.121 82.7842 381.163 82.8051C381.204 82.8259 381.24 82.8552 381.269 82.891C381.299 82.9269 381.32 82.9684 381.332 83.013C381.344 83.0577 381.347 83.1043 381.34 83.15C381.325 83.2445 381.276 83.3303 381.203 83.3911C381.129 83.452 381.035 83.4836 380.94 83.48V83.48C380.483 83.4904 380.035 83.6048 379.63 83.8144C379.224 84.0241 378.872 84.3236 378.6 84.69C378.552 84.7551 378.484 84.8036 378.407 84.8287C378.33 84.8538 378.247 84.8543 378.17 84.83V84.83Z" fill="#263238"/>
<path d="M417.23 124.41L406.82 121.64C406.82 121.64 396.62 146.75 393.02 148.39C388.12 150.62 375.7 158.39 370.43 162.06C370.13 163.3 370.36 166.62 371.03 167.52C380.03 165.89 397.26 159.26 400.86 155.88C409.06 148.2 417.23 124.41 417.23 124.41Z" fill="#E4897B"/>
<path d="M419.94 121.54C422.69 130.4 411.94 142.54 411.94 142.54L397.09 136.48C398.842 131.349 400.868 126.315 403.16 121.4C407.73 111.57 417.16 112.59 419.94 121.54Z" fill="#FF4040"/>
<path opacity="0.6" d="M419.94 121.54C422.69 130.4 411.94 142.54 411.94 142.54L397.09 136.48C398.842 131.349 400.868 126.315 403.16 121.4C407.73 111.57 417.16 112.59 419.94 121.54Z" fill="#FAFAFA"/>
<path d="M410 372C409.493 372.047 408.987 371.912 408.57 371.62C408.441 371.504 408.345 371.356 408.291 371.191C408.236 371.026 408.226 370.85 408.26 370.68C408.266 370.574 408.299 370.47 408.357 370.381C408.415 370.292 408.495 370.219 408.59 370.17C409.44 369.75 411.79 371.24 412.05 371.41C412.079 371.429 412.103 371.456 412.117 371.488C412.131 371.52 412.136 371.555 412.13 371.59C412.121 371.625 412.102 371.657 412.076 371.682C412.049 371.707 412.016 371.723 411.98 371.73C411.332 371.894 410.668 371.985 410 372V372ZM409 370.45C408.924 370.433 408.846 370.433 408.77 370.45C408.732 370.471 408.7 370.501 408.677 370.538C408.654 370.575 408.642 370.617 408.64 370.66C408.616 370.776 408.622 370.897 408.657 371.01C408.692 371.124 408.755 371.227 408.84 371.31C409.681 371.691 410.636 371.738 411.51 371.44C410.731 370.934 409.856 370.593 408.94 370.44L409 370.45Z" fill="#407BFF"/>
<path d="M411.911 371.73H411.83C411.07 371.3 409.66 369.65 409.83 368.81C409.867 368.679 409.946 368.563 410.054 368.48C410.162 368.397 410.294 368.352 410.43 368.35C410.563 368.329 410.699 368.339 410.827 368.379C410.955 368.419 411.073 368.488 411.171 368.58C412.011 369.29 412.061 371.46 412.061 371.58C412.061 371.63 412.041 371.679 412.005 371.714C411.969 371.75 411.921 371.77 411.871 371.77L411.911 371.73ZM410.571 368.68H410.49C410.26 368.68 410.231 368.82 410.221 368.86C410.091 369.36 410.981 370.6 411.721 371.19C411.719 370.345 411.457 369.521 410.971 368.83C410.86 368.733 410.718 368.679 410.571 368.68V368.68Z" fill="#407BFF"/>
<path d="M383.41 370.75C382.802 370.964 382.139 370.964 381.53 370.75C381.384 370.682 381.259 370.577 381.166 370.445C381.073 370.314 381.016 370.16 381 370C380.989 369.902 381.001 369.803 381.036 369.711C381.071 369.619 381.127 369.536 381.2 369.47C382.01 368.76 385.27 369.53 385.64 369.62C385.674 369.63 385.705 369.649 385.728 369.676C385.751 369.702 385.766 369.735 385.77 369.77C385.772 369.808 385.762 369.845 385.742 369.877C385.723 369.909 385.694 369.934 385.66 369.95C384.935 370.283 384.182 370.551 383.41 370.75V370.75ZM381.79 369.56C381.674 369.58 381.564 369.628 381.47 369.7C381.441 369.728 381.419 369.763 381.407 369.801C381.395 369.84 381.392 369.88 381.4 369.92C381.402 370.024 381.432 370.124 381.487 370.212C381.542 370.3 381.619 370.372 381.71 370.42C382.24 370.71 383.48 370.48 385.06 369.82C383.993 369.545 382.887 369.457 381.79 369.56V369.56Z" fill="#407BFF"/>
<path d="M385.66 369.93H385.59C384.59 369.75 382.59 368.6 382.53 367.74C382.53 367.54 382.62 367.26 383.09 367.09C383.419 366.978 383.778 367 384.09 367.15C385.18 367.69 385.75 369.61 385.77 369.69C385.784 369.718 385.792 369.749 385.792 369.78C385.792 369.811 385.784 369.842 385.77 369.87C385.758 369.888 385.741 369.903 385.722 369.913C385.703 369.924 385.682 369.929 385.66 369.93ZM383.3 367.41H383.19C382.88 367.52 382.89 367.65 382.89 367.69C382.89 368.2 384.34 369.15 385.35 369.47C385.113 368.669 384.622 367.967 383.95 367.47C383.749 367.368 383.517 367.346 383.3 367.41Z" fill="#407BFF"/>
<path d="M291.001 174.44C291.858 171.997 293.438 169.873 295.532 168.349C297.625 166.826 300.132 165.975 302.721 165.91H404.001C405.398 165.877 406.785 166.15 408.065 166.71C409.346 167.27 410.488 168.103 411.412 169.151C412.336 170.199 413.02 171.437 413.416 172.777C413.811 174.118 413.908 175.528 413.701 176.91L391.191 368.24C390.783 371.235 389.322 373.986 387.07 376.002C384.818 378.018 381.922 379.166 378.901 379.24H124.901C123.503 379.275 122.115 379.003 120.834 378.444C119.553 377.884 118.41 377.051 117.485 376.003C116.56 374.954 115.877 373.716 115.482 372.375C115.087 371.034 114.991 369.622 115.201 368.24L134.381 205.37C134.788 202.375 136.249 199.624 138.501 197.608C140.753 195.593 143.649 194.445 146.671 194.37H263.671C275.591 194.37 286.941 186.11 291.001 174.44Z" fill="#407BFF"/>
<path opacity="0.1" d="M291.001 174.44C291.858 171.997 293.438 169.873 295.532 168.349C297.625 166.826 300.132 165.975 302.721 165.91H404.001C405.398 165.877 406.785 166.15 408.065 166.71C409.346 167.27 410.488 168.103 411.412 169.151C412.336 170.199 413.02 171.437 413.416 172.777C413.811 174.118 413.908 175.528 413.701 176.91L391.191 368.24C390.783 371.235 389.322 373.986 387.07 376.002C384.818 378.018 381.922 379.166 378.901 379.24H124.901C123.503 379.275 122.115 379.003 120.834 378.444C119.553 377.884 118.41 377.051 117.485 376.003C116.56 374.954 115.877 373.716 115.482 372.375C115.087 371.034 114.991 369.622 115.201 368.24L134.381 205.37C134.788 202.375 136.249 199.624 138.501 197.608C140.753 195.593 143.649 194.445 146.671 194.37H263.671C275.591 194.37 286.941 186.11 291.001 174.44Z" fill="#FAFAFA"/>
<path d="M200.461 89.7329L63.6758 185.12L153.961 314.589L290.746 219.201L200.461 89.7329Z" fill="#407BFF"/>
<path opacity="0.8" d="M200.461 89.7329L63.6758 185.12L153.961 314.589L290.746 219.201L200.461 89.7329Z" fill="#FAFAFA"/>
<path d="M200.102 91.7456L63.3164 187.133L153.601 316.601L290.386 221.214L200.102 91.7456Z" fill="#FAFAFA"/>
<path d="M197.315 108.797L80.2646 190.422L142.453 279.6L259.503 197.975L197.315 108.797Z" fill="#407BFF"/>
<path opacity="0.8" d="M197.315 108.797L80.2646 190.422L142.453 279.6L259.503 197.975L197.315 108.797Z" fill="#FAFAFA"/>
<path d="M152.501 185.56C154.764 188.807 156.013 192.652 156.09 196.61C156.167 200.567 155.068 204.458 152.932 207.79C150.796 211.122 147.72 213.746 144.092 215.329C140.465 216.911 136.449 217.382 132.553 216.682C128.658 215.981 125.058 214.141 122.209 211.393C119.361 208.645 117.391 205.114 116.55 201.246C115.709 197.379 116.035 193.349 117.486 189.666C118.937 185.984 121.448 182.815 124.701 180.56C129.052 177.544 134.423 176.376 139.634 177.313C144.845 178.251 149.472 181.216 152.501 185.56V185.56Z" fill="#407BFF"/>
<path opacity="0.1" d="M152.501 185.56C154.764 188.807 156.013 192.652 156.09 196.61C156.167 200.567 155.068 204.458 152.932 207.79C150.796 211.122 147.72 213.746 144.092 215.329C140.465 216.911 136.449 217.382 132.553 216.682C128.658 215.981 125.058 214.141 122.209 211.393C119.361 208.645 117.391 205.114 116.55 201.246C115.709 197.379 116.035 193.349 117.486 189.666C118.937 185.984 121.448 182.815 124.701 180.56C129.052 177.544 134.423 176.376 139.634 177.313C144.845 178.251 149.472 181.216 152.501 185.56V185.56Z" fill="#FAFAFA"/>
<path d="M227.16 176.75C224.147 173.748 220.51 171.446 216.508 170.006C212.505 168.567 208.235 168.025 204 168.42V168.42C203.87 168.24 203.77 168.04 203.64 167.85C199.767 162.227 194.033 158.15 187.449 156.339C180.865 154.528 173.853 155.099 167.648 157.95C161.443 160.802 156.444 165.751 153.53 171.927C150.617 178.102 149.976 185.108 151.72 191.71C150.846 192.122 150.007 192.603 149.21 193.15C146.359 195.133 144.168 197.925 142.92 201.166C141.672 204.407 141.425 207.947 142.21 211.33C138.393 212.826 135.141 215.481 132.91 218.92C130.618 222.339 129.375 226.354 129.334 230.471C129.293 234.587 130.456 238.626 132.68 242.09C134.212 244.391 136.188 246.363 138.493 247.89C140.797 249.417 143.383 250.469 146.099 250.983C148.815 251.497 151.607 251.463 154.31 250.884C157.013 250.305 159.573 249.192 161.84 247.61V247.61L195.49 224.14L226.32 202.64C229.748 200.299 232.116 196.701 232.911 192.627C233.707 188.553 232.866 184.329 230.57 180.87L230.48 180.73C229.496 179.306 228.385 177.974 227.16 176.75V176.75Z" fill="#407BFF"/>
<path opacity="0.3" d="M227.16 176.75C224.147 173.748 220.51 171.446 216.508 170.006C212.505 168.567 208.235 168.025 204 168.42V168.42C203.87 168.24 203.77 168.04 203.64 167.85C199.767 162.227 194.033 158.15 187.449 156.339C180.865 154.528 173.853 155.099 167.648 157.95C161.443 160.802 156.444 165.751 153.53 171.927C150.617 178.102 149.976 185.108 151.72 191.71C150.846 192.122 150.007 192.603 149.21 193.15C146.359 195.133 144.168 197.925 142.92 201.166C141.672 204.407 141.425 207.947 142.21 211.33C138.393 212.826 135.141 215.481 132.91 218.92C130.618 222.339 129.375 226.354 129.334 230.471C129.293 234.587 130.456 238.626 132.68 242.09C134.212 244.391 136.188 246.363 138.493 247.89C140.797 249.417 143.383 250.469 146.099 250.983C148.815 251.497 151.607 251.463 154.31 250.884C157.013 250.305 159.573 249.192 161.84 247.61V247.61L195.49 224.14L226.32 202.64C229.748 200.299 232.116 196.701 232.911 192.627C233.707 188.553 232.866 184.329 230.57 180.87L230.48 180.73C229.496 179.306 228.385 177.974 227.16 176.75V176.75Z" fill="black"/>
<g style="mix-blend-mode:multiply">
<path d="M204.783 112.545L64.626 202.905L150.152 335.565L290.309 245.205L204.783 112.545Z" fill="#407BFF"/>
</g>
<path opacity="0.8" d="M204.783 112.545L64.626 202.905L150.152 335.565L290.309 245.205L204.783 112.545Z" fill="#FAFAFA"/>
<path d="M204.36 114.557L64.2031 204.917L149.73 337.577L289.887 247.217L204.36 114.557Z" fill="#FAFAFA"/>
<path d="M200.961 131.499L81.0254 208.822L139.936 300.198L259.871 222.875L200.961 131.499Z" fill="#407BFF"/>
<path opacity="0.8" d="M200.961 131.499L81.0254 208.822L139.936 300.198L259.871 222.875L200.961 131.499Z" fill="#FAFAFA"/>
<path d="M156.104 221.581C158.407 210.8 151.535 200.194 140.755 197.891C129.974 195.587 119.368 202.46 117.065 213.24C114.762 224.02 121.634 234.626 132.414 236.93C143.194 239.233 153.801 232.361 156.104 221.581Z" fill="#407BFF"/>
<path opacity="0.1" d="M156.104 221.581C158.407 210.8 151.535 200.194 140.755 197.891C129.974 195.587 119.368 202.46 117.065 213.24C114.762 224.02 121.634 234.626 132.414 236.93C143.194 239.233 153.801 232.361 156.104 221.581Z" fill="#FAFAFA"/>
<path d="M228.3 200.52C225.397 197.408 221.843 194.972 217.892 193.388C213.942 191.803 209.69 191.107 205.44 191.35V191.35C205.32 191.15 205.23 190.95 205.1 190.76C201.431 184.999 195.845 180.718 189.328 178.672C182.811 176.625 175.78 176.945 169.476 179.575C163.172 182.205 157.998 186.976 154.867 193.047C151.736 199.118 150.848 206.099 152.36 212.76C151.467 213.133 150.607 213.581 149.79 214.1C146.875 215.98 144.59 218.689 143.228 221.88C141.866 225.07 141.491 228.595 142.15 232C138.279 233.349 134.931 235.882 132.58 239.24C130.165 242.572 128.776 246.539 128.586 250.65C128.396 254.762 129.412 258.839 131.51 262.38C132.954 264.739 134.855 266.785 137.1 268.4C139.346 270.014 141.892 271.163 144.588 271.779C147.283 272.396 150.075 272.468 152.799 271.991C155.524 271.513 158.125 270.497 160.45 269L195 246.72L226.6 226.35C230.102 224.127 232.59 220.616 233.525 216.574C234.461 212.533 233.769 208.286 231.6 204.75L231.5 204.61C230.563 203.151 229.492 201.781 228.3 200.52Z" fill="#407BFF"/>
<path opacity="0.3" d="M228.3 200.52C225.397 197.408 221.843 194.972 217.892 193.388C213.942 191.803 209.69 191.107 205.44 191.35V191.35C205.32 191.15 205.23 190.95 205.1 190.76C201.431 184.999 195.845 180.718 189.328 178.672C182.811 176.625 175.78 176.945 169.476 179.575C163.172 182.205 157.998 186.976 154.867 193.047C151.736 199.118 150.848 206.099 152.36 212.76C151.467 213.133 150.607 213.581 149.79 214.1C146.875 215.98 144.59 218.689 143.228 221.88C141.866 225.07 141.491 228.595 142.15 232C138.279 233.349 134.931 235.882 132.58 239.24C130.165 242.572 128.776 246.539 128.586 250.65C128.396 254.762 129.412 258.839 131.51 262.38C132.954 264.739 134.855 266.785 137.1 268.4C139.346 270.014 141.892 271.163 144.588 271.779C147.283 272.396 150.075 272.468 152.799 271.991C155.524 271.513 158.125 270.497 160.45 269L195 246.72L226.6 226.35C230.102 224.127 232.59 220.616 233.525 216.574C234.461 212.533 233.769 208.286 231.6 204.75L231.5 204.61C230.563 203.151 229.492 201.781 228.3 200.52Z" fill="black"/>
<g style="mix-blend-mode:multiply">
<path d="M330.103 129.09L164.337 147.273L181.548 304.172L347.314 285.989L330.103 129.09Z" fill="#FF4040"/>
</g>
<path opacity="0.8" d="M330.103 129.09L164.337 147.273L181.548 304.172L347.314 285.989L330.103 129.09Z" fill="#FAFAFA"/>
<path d="M328.815 130.69L163.05 148.874L180.261 305.772L346.026 287.589L328.815 130.69Z" fill="#FAFAFA"/>
<path d="M318.205 144.322L176.355 159.882L188.21 267.954L330.059 252.394L318.205 144.322Z" fill="#FF4040"/>
<path opacity="0.8" d="M318.205 144.322L176.355 159.882L188.21 267.954L330.059 252.394L318.205 144.322Z" fill="#FAFAFA"/>
<path d="M329.641 248.44L330.071 252.39L256.391 260.48L273.981 239.62L291.991 218.24L329.641 248.44Z" fill="#FF4040"/>
<path opacity="0.3" d="M329.641 248.44L330.071 252.39L256.391 260.48L273.981 239.62L291.991 218.24L329.641 248.44Z" fill="black"/>
<path d="M298.171 255.89L188.23 267.95L187.271 259.26L230.421 210.33L273.981 239.62L298.171 255.89Z" fill="#FF4040"/>
<path opacity="0.3" d="M298.171 255.89L188.23 267.95L187.271 259.26L230.421 210.33L273.981 239.62L298.171 255.89Z" fill="black"/>
<path d="M284.658 184.472C285.047 175.152 277.807 167.281 268.487 166.892C259.167 166.503 251.296 173.743 250.907 183.063C250.518 192.383 257.758 200.254 267.078 200.643C276.398 201.032 284.269 193.792 284.658 184.472Z" fill="#FF4040"/>
<path opacity="0.1" d="M284.658 184.472C285.047 175.152 277.807 167.281 268.487 166.892C259.167 166.503 251.296 173.743 250.907 183.063C250.518 192.383 257.758 200.254 267.078 200.643C276.398 201.032 284.269 193.792 284.658 184.472Z" fill="#FAFAFA"/>
<g style="mix-blend-mode:multiply" opacity="0.7">
<path d="M247.85 214.38C248.53 210.08 252.64 207.02 257.77 207.02H359.08C365.15 207.02 370.53 211.27 371.08 216.51L384.66 369.75C385.23 374.99 380.76 379.24 374.66 379.24H120.66C114.58 379.24 109.2 374.99 108.66 369.75L97.7502 241.06C97.1802 235.82 101.64 231.58 107.75 231.58H224.75C236.65 231.58 246.26 224.45 247.85 214.38Z" fill="#407BFF"/>
</g>
<path d="M371.27 161.47L363.27 164.21L358.19 167.79L367.31 171.33C367.31 171.33 375.83 170.43 377.88 165.81L371.27 161.47Z" fill="#E4897B"/>
<path d="M70.7136 470.384C69.7216 470.384 68.9536 470.112 68.4096 469.568C67.8976 468.992 67.6416 468.208 67.6416 467.216V438.944C67.6416 437.92 67.8976 437.136 68.4096 436.592C68.9536 436.048 69.7216 435.776 70.7136 435.776C71.7056 435.776 72.4576 436.048 72.9696 436.592C73.5136 437.136 73.7856 437.92 73.7856 438.944V467.216C73.7856 468.208 73.5296 468.992 73.0176 469.568C72.5056 470.112 71.7376 470.384 70.7136 470.384Z" fill="#263238"/>
<path d="M83.6845 470.384C82.7245 470.384 81.9885 470.128 81.4765 469.616C80.9645 469.072 80.7085 468.304 80.7085 467.312V449.168C80.7085 448.176 80.9645 447.424 81.4765 446.912C81.9885 446.4 82.7085 446.144 83.6365 446.144C84.5645 446.144 85.2845 446.4 85.7965 446.912C86.3085 447.424 86.5645 448.176 86.5645 449.168V452.672L86.0365 451.232C86.6765 449.632 87.6685 448.368 89.0125 447.44C90.3565 446.512 91.9565 446.048 93.8125 446.048C95.7005 446.048 97.2525 446.496 98.4685 447.392C99.6845 448.288 100.532 449.664 101.012 451.52H100.34C100.98 449.824 102.036 448.496 103.508 447.536C104.98 446.544 106.676 446.048 108.596 446.048C110.388 446.048 111.86 446.4 113.012 447.104C114.196 447.808 115.076 448.88 115.652 450.32C116.228 451.728 116.516 453.52 116.516 455.696V467.312C116.516 468.304 116.244 469.072 115.7 469.616C115.188 470.128 114.452 470.384 113.492 470.384C112.532 470.384 111.796 470.128 111.284 469.616C110.772 469.072 110.516 468.304 110.516 467.312V455.936C110.516 454.144 110.212 452.832 109.604 452C109.028 451.168 108.036 450.752 106.628 450.752C105.06 450.752 103.828 451.312 102.932 452.432C102.036 453.52 101.588 455.04 101.588 456.992V467.312C101.588 468.304 101.332 469.072 100.82 469.616C100.308 470.128 99.5725 470.384 98.6125 470.384C97.6525 470.384 96.9005 470.128 96.3565 469.616C95.8445 469.072 95.5885 468.304 95.5885 467.312V455.936C95.5885 454.144 95.2845 452.832 94.6765 452C94.1005 451.168 93.1245 450.752 91.7485 450.752C90.1805 450.752 88.9485 451.312 88.0525 452.432C87.1565 453.52 86.7085 455.04 86.7085 456.992V467.312C86.7085 469.36 85.7005 470.384 83.6845 470.384Z" fill="#263238"/>
<path d="M130.434 470.48C128.738 470.48 127.218 470.16 125.874 469.52C124.562 468.848 123.522 467.952 122.754 466.832C122.018 465.712 121.65 464.448 121.65 463.04C121.65 461.312 122.098 459.952 122.994 458.96C123.89 457.936 125.346 457.2 127.362 456.752C129.378 456.304 132.082 456.08 135.474 456.08H137.874V459.536H135.522C133.538 459.536 131.954 459.632 130.77 459.824C129.586 460.016 128.738 460.352 128.226 460.832C127.746 461.28 127.506 461.92 127.506 462.752C127.506 463.808 127.874 464.672 128.61 465.344C129.346 466.016 130.37 466.352 131.682 466.352C132.738 466.352 133.666 466.112 134.466 465.632C135.298 465.12 135.954 464.432 136.434 463.568C136.914 462.704 137.154 461.712 137.154 460.592V455.072C137.154 453.472 136.802 452.32 136.098 451.616C135.394 450.912 134.21 450.56 132.546 450.56C131.618 450.56 130.61 450.672 129.522 450.896C128.466 451.12 127.346 451.504 126.162 452.048C125.554 452.336 125.01 452.416 124.53 452.288C124.082 452.16 123.73 451.904 123.474 451.52C123.218 451.104 123.09 450.656 123.09 450.176C123.09 449.696 123.218 449.232 123.474 448.784C123.73 448.304 124.162 447.952 124.77 447.728C126.242 447.12 127.65 446.688 128.994 446.432C130.37 446.176 131.618 446.048 132.738 446.048C135.042 446.048 136.93 446.4 138.402 447.104C139.906 447.808 141.026 448.88 141.762 450.32C142.498 451.728 142.866 453.552 142.866 455.792V467.312C142.866 468.304 142.626 469.072 142.146 469.616C141.666 470.128 140.978 470.384 140.082 470.384C139.186 470.384 138.482 470.128 137.97 469.616C137.49 469.072 137.25 468.304 137.25 467.312V465.008H137.634C137.41 466.128 136.962 467.104 136.29 467.936C135.65 468.736 134.834 469.36 133.842 469.808C132.85 470.256 131.714 470.48 130.434 470.48Z" fill="#263238"/>
<path d="M159.9 479.12C158.172 479.12 156.492 478.96 154.86 478.64C153.26 478.32 151.804 477.824 150.492 477.152C149.884 476.832 149.468 476.448 149.244 476C149.052 475.552 148.988 475.088 149.052 474.608C149.148 474.16 149.34 473.76 149.628 473.408C149.948 473.056 150.332 472.816 150.78 472.688C151.228 472.56 151.692 472.624 152.172 472.88C153.58 473.584 154.908 474.032 156.156 474.224C157.436 474.448 158.524 474.56 159.42 474.56C161.564 474.56 163.164 474.032 164.22 472.976C165.308 471.952 165.852 470.416 165.852 468.368V464.048H166.284C165.804 465.68 164.796 466.992 163.26 467.984C161.756 468.944 160.044 469.424 158.124 469.424C156.012 469.424 154.172 468.944 152.604 467.984C151.036 466.992 149.82 465.616 148.956 463.856C148.092 462.096 147.66 460.048 147.66 457.712C147.66 455.952 147.9 454.368 148.38 452.96C148.892 451.52 149.596 450.288 150.492 449.264C151.42 448.24 152.524 447.456 153.804 446.912C155.116 446.336 156.556 446.048 158.124 446.048C160.108 446.048 161.836 446.544 163.308 447.536C164.812 448.496 165.788 449.776 166.236 451.376L165.756 452.576V449.168C165.756 448.176 166.012 447.424 166.524 446.912C167.068 446.4 167.804 446.144 168.732 446.144C169.692 446.144 170.428 446.4 170.94 446.912C171.452 447.424 171.708 448.176 171.708 449.168V467.648C171.708 471.456 170.7 474.32 168.684 476.24C166.668 478.16 163.74 479.12 159.9 479.12ZM159.756 464.864C161.004 464.864 162.076 464.576 162.972 464C163.868 463.424 164.556 462.608 165.036 461.552C165.548 460.464 165.804 459.184 165.804 457.712C165.804 455.504 165.26 453.776 164.172 452.528C163.084 451.248 161.612 450.608 159.756 450.608C158.508 450.608 157.436 450.896 156.54 451.472C155.644 452.048 154.94 452.864 154.428 453.92C153.948 454.976 153.708 456.24 153.708 457.712C153.708 459.92 154.252 461.664 155.34 462.944C156.428 464.224 157.9 464.864 159.756 464.864Z" fill="#263238"/>
<path d="M189.493 470.48C186.837 470.48 184.549 469.984 182.629 468.992C180.709 468 179.221 466.592 178.165 464.768C177.141 462.944 176.629 460.784 176.629 458.288C176.629 455.856 177.125 453.728 178.117 451.904C179.141 450.08 180.533 448.656 182.293 447.632C184.085 446.576 186.117 446.048 188.389 446.048C190.053 446.048 191.541 446.32 192.853 446.864C194.197 447.408 195.333 448.192 196.261 449.216C197.221 450.24 197.941 451.488 198.421 452.96C198.933 454.4 199.189 456.032 199.189 457.856C199.189 458.432 198.981 458.88 198.565 459.2C198.181 459.488 197.621 459.632 196.885 459.632H181.477V456.176H194.965L194.197 456.896C194.197 455.424 193.973 454.192 193.525 453.2C193.109 452.208 192.485 451.456 191.653 450.944C190.853 450.4 189.845 450.128 188.629 450.128C187.285 450.128 186.133 450.448 185.173 451.088C184.245 451.696 183.525 452.576 183.013 453.728C182.533 454.848 182.293 456.192 182.293 457.76V458.096C182.293 460.72 182.901 462.688 184.117 464C185.365 465.28 187.189 465.92 189.589 465.92C190.421 465.92 191.349 465.824 192.373 465.632C193.429 465.408 194.421 465.04 195.349 464.528C196.021 464.144 196.613 463.984 197.125 464.048C197.637 464.08 198.037 464.256 198.325 464.576C198.645 464.896 198.837 465.296 198.901 465.776C198.965 466.224 198.869 466.688 198.613 467.168C198.389 467.648 197.989 468.064 197.413 468.416C196.293 469.12 194.997 469.648 193.525 470C192.085 470.32 190.741 470.48 189.493 470.48Z" fill="#263238"/>
<path d="M220.428 470.384C219.5 470.384 218.78 470.128 218.268 469.616C217.788 469.104 217.548 468.368 217.548 467.408V438.848C217.548 437.856 217.788 437.104 218.268 436.592C218.78 436.048 219.436 435.776 220.236 435.776C220.972 435.776 221.516 435.92 221.868 436.208C222.252 436.464 222.7 436.912 223.212 437.552L241.596 461.408H240.348V438.704C240.348 437.776 240.588 437.056 241.068 436.544C241.58 436.032 242.3 435.776 243.228 435.776C244.156 435.776 244.86 436.032 245.34 436.544C245.82 437.056 246.06 437.776 246.06 438.704V467.504C246.06 468.4 245.836 469.104 245.388 469.616C244.94 470.128 244.332 470.384 243.564 470.384C242.828 470.384 242.236 470.24 241.788 469.952C241.372 469.664 240.908 469.2 240.396 468.56L222.06 444.704H223.26V467.408C223.26 468.368 223.02 469.104 222.54 469.616C222.06 470.128 221.356 470.384 220.428 470.384Z" fill="#263238"/>
<path d="M263.582 470.48C261.15 470.48 259.038 469.984 257.246 468.992C255.454 468 254.062 466.592 253.07 464.768C252.078 462.912 251.582 460.736 251.582 458.24C251.582 456.352 251.854 454.672 252.398 453.2C252.974 451.696 253.79 450.416 254.846 449.36C255.902 448.272 257.166 447.456 258.638 446.912C260.11 446.336 261.758 446.048 263.582 446.048C266.014 446.048 268.126 446.544 269.918 447.536C271.71 448.528 273.102 449.936 274.094 451.76C275.086 453.584 275.582 455.744 275.582 458.24C275.582 460.128 275.294 461.824 274.718 463.328C274.174 464.832 273.374 466.128 272.318 467.216C271.262 468.272 269.998 469.088 268.526 469.664C267.054 470.208 265.406 470.48 263.582 470.48ZM263.582 465.92C264.766 465.92 265.806 465.632 266.702 465.056C267.598 464.48 268.286 463.632 268.766 462.512C269.278 461.36 269.534 459.936 269.534 458.24C269.534 455.68 268.99 453.776 267.902 452.528C266.814 451.248 265.374 450.608 263.582 450.608C262.398 450.608 261.358 450.896 260.462 451.472C259.566 452.016 258.862 452.864 258.35 454.016C257.87 455.136 257.63 456.544 257.63 458.24C257.63 460.768 258.174 462.688 259.262 464C260.35 465.28 261.79 465.92 263.582 465.92Z" fill="#263238"/>
<path d="M291.052 470.48C288.972 470.48 287.228 470.128 285.82 469.424C284.444 468.72 283.42 467.696 282.748 466.352C282.076 464.976 281.74 463.28 281.74 461.264V451.04H279.244C278.476 451.04 277.884 450.848 277.468 450.464C277.052 450.048 276.844 449.488 276.844 448.784C276.844 448.048 277.052 447.488 277.468 447.104C277.884 446.72 278.476 446.528 279.244 446.528H281.74V442.16C281.74 441.168 281.996 440.416 282.508 439.904C283.052 439.392 283.804 439.136 284.764 439.136C285.724 439.136 286.46 439.392 286.972 439.904C287.484 440.416 287.74 441.168 287.74 442.16V446.528H292.828C293.596 446.528 294.188 446.72 294.604 447.104C295.02 447.488 295.228 448.048 295.228 448.784C295.228 449.488 295.02 450.048 294.604 450.464C294.188 450.848 293.596 451.04 292.828 451.04H287.74V460.928C287.74 462.464 288.076 463.616 288.748 464.384C289.42 465.152 290.508 465.536 292.012 465.536C292.556 465.536 293.036 465.488 293.452 465.392C293.868 465.296 294.236 465.232 294.556 465.2C294.94 465.168 295.26 465.296 295.516 465.584C295.772 465.84 295.9 466.384 295.9 467.216C295.9 467.856 295.788 468.432 295.564 468.944C295.372 469.424 295.004 469.76 294.46 469.952C294.044 470.08 293.5 470.192 292.828 470.288C292.156 470.416 291.564 470.48 291.052 470.48Z" fill="#263238"/>
<path d="M315.497 470.384C314.505 470.384 313.721 470.112 313.145 469.568C312.601 468.992 312.329 468.176 312.329 467.12V439.424C312.329 438.368 312.601 437.568 313.145 437.024C313.721 436.448 314.537 436.16 315.593 436.16H332.345C333.177 436.16 333.801 436.368 334.217 436.784C334.633 437.2 334.841 437.792 334.841 438.56C334.841 439.36 334.633 439.984 334.217 440.432C333.801 440.848 333.177 441.056 332.345 441.056H318.473V450.608H331.337C332.137 450.608 332.745 450.816 333.161 451.232C333.609 451.648 333.833 452.24 333.833 453.008C333.833 453.808 333.609 454.432 333.161 454.88C332.745 455.296 332.137 455.504 331.337 455.504H318.473V467.12C318.473 469.296 317.481 470.384 315.497 470.384Z" fill="#263238"/>
<path d="M348.566 470.48C346.134 470.48 344.022 469.984 342.23 468.992C340.438 468 339.046 466.592 338.054 464.768C337.062 462.912 336.566 460.736 336.566 458.24C336.566 456.352 336.838 454.672 337.382 453.2C337.958 451.696 338.774 450.416 339.83 449.36C340.886 448.272 342.15 447.456 343.622 446.912C345.094 446.336 346.742 446.048 348.566 446.048C350.998 446.048 353.11 446.544 354.902 447.536C356.694 448.528 358.086 449.936 359.078 451.76C360.07 453.584 360.566 455.744 360.566 458.24C360.566 460.128 360.278 461.824 359.702 463.328C359.158 464.832 358.358 466.128 357.302 467.216C356.246 468.272 354.982 469.088 353.51 469.664C352.038 470.208 350.39 470.48 348.566 470.48ZM348.566 465.92C349.75 465.92 350.79 465.632 351.686 465.056C352.582 464.48 353.27 463.632 353.75 462.512C354.262 461.36 354.518 459.936 354.518 458.24C354.518 455.68 353.974 453.776 352.886 452.528C351.798 451.248 350.358 450.608 348.566 450.608C347.382 450.608 346.342 450.896 345.446 451.472C344.55 452.016 343.846 452.864 343.334 454.016C342.854 455.136 342.614 456.544 342.614 458.24C342.614 460.768 343.158 462.688 344.246 464C345.334 465.28 346.774 465.92 348.566 465.92Z" fill="#263238"/>
<path d="M374.015 470.48C372.063 470.48 370.447 470.128 369.167 469.424C367.887 468.688 366.927 467.6 366.287 466.16C365.679 464.72 365.375 462.928 365.375 460.784V449.168C365.375 448.144 365.631 447.392 366.143 446.912C366.655 446.4 367.391 446.144 368.351 446.144C369.311 446.144 370.047 446.4 370.559 446.912C371.103 447.392 371.375 448.144 371.375 449.168V460.88C371.375 462.544 371.711 463.776 372.383 464.576C373.055 465.376 374.127 465.776 375.599 465.776C377.199 465.776 378.511 465.232 379.535 464.144C380.559 463.024 381.071 461.552 381.071 459.728V449.168C381.071 448.144 381.327 447.392 381.839 446.912C382.351 446.4 383.087 446.144 384.047 446.144C385.007 446.144 385.743 446.4 386.255 446.912C386.799 447.392 387.071 448.144 387.071 449.168V467.312C387.071 469.36 386.095 470.384 384.143 470.384C383.215 470.384 382.495 470.128 381.983 469.616C381.471 469.072 381.215 468.304 381.215 467.312V463.664L381.887 465.104C381.215 466.832 380.191 468.16 378.815 469.088C377.471 470.016 375.871 470.48 374.015 470.48Z" fill="#263238"/>
<path d="M396.292 470.384C395.332 470.384 394.596 470.128 394.084 469.616C393.572 469.072 393.316 468.304 393.316 467.312V449.168C393.316 448.176 393.572 447.424 394.084 446.912C394.596 446.4 395.316 446.144 396.244 446.144C397.172 446.144 397.892 446.4 398.404 446.912C398.916 447.424 399.172 448.176 399.172 449.168V452.432L398.644 451.232C399.348 449.536 400.436 448.256 401.908 447.392C403.412 446.496 405.108 446.048 406.996 446.048C408.884 446.048 410.436 446.4 411.652 447.104C412.868 447.808 413.78 448.88 414.388 450.32C414.996 451.728 415.3 453.52 415.3 455.696V467.312C415.3 468.304 415.044 469.072 414.532 469.616C414.02 470.128 413.284 470.384 412.324 470.384C411.364 470.384 410.612 470.128 410.068 469.616C409.556 469.072 409.3 468.304 409.3 467.312V455.984C409.3 454.16 408.948 452.832 408.244 452C407.572 451.168 406.516 450.752 405.076 450.752C403.316 450.752 401.908 451.312 400.852 452.432C399.828 453.52 399.316 454.976 399.316 456.8V467.312C399.316 469.36 398.308 470.384 396.292 470.384Z" fill="#263238"/>
<path d="M430.418 470.48C428.37 470.48 426.562 469.984 424.994 468.992C423.458 468 422.258 466.592 421.394 464.768C420.53 462.912 420.098 460.736 420.098 458.24C420.098 455.712 420.53 453.552 421.394 451.76C422.258 449.936 423.458 448.528 424.994 447.536C426.562 446.544 428.37 446.048 430.418 446.048C432.37 446.048 434.066 446.528 435.506 447.488C436.978 448.448 437.97 449.712 438.482 451.28H437.954V438.8C437.954 437.808 438.21 437.056 438.722 436.544C439.234 436.032 439.97 435.776 440.93 435.776C441.89 435.776 442.626 436.032 443.138 436.544C443.682 437.056 443.954 437.808 443.954 438.8V467.312C443.954 468.304 443.698 469.072 443.186 469.616C442.674 470.128 441.938 470.384 440.978 470.384C440.018 470.384 439.282 470.128 438.77 469.616C438.258 469.072 438.002 468.304 438.002 467.312V463.568L438.53 465.008C438.05 466.672 437.074 468 435.602 468.992C434.13 469.984 432.402 470.48 430.418 470.48ZM432.098 465.92C433.282 465.92 434.322 465.632 435.218 465.056C436.114 464.48 436.802 463.632 437.282 462.512C437.794 461.36 438.05 459.936 438.05 458.24C438.05 455.68 437.506 453.776 436.418 452.528C435.33 451.248 433.89 450.608 432.098 450.608C430.914 450.608 429.874 450.896 428.978 451.472C428.082 452.016 427.378 452.864 426.866 454.016C426.386 455.136 426.146 456.544 426.146 458.24C426.146 460.768 426.69 462.688 427.778 464C428.866 465.28 430.306 465.92 432.098 465.92Z" fill="#263238"/>
<defs>
<linearGradient id="paint0_linear_1179_1798" x1="387.32" y1="0" x2="387.32" y2="188.16" gradientUnits="userSpaceOnUse">
<stop stop-color="white" stop-opacity="0.35"/>
<stop offset="1" stop-color="white" stop-opacity="0"/>
</linearGradient>
<linearGradient id="paint1_linear_1179_1798" x1="82.9997" y1="141.92" x2="82.9997" y2="330.08" gradientUnits="userSpaceOnUse">
<stop stop-color="white" stop-opacity="0.35"/>
<stop offset="1" stop-color="white" stop-opacity="0"/>
</linearGradient>
</defs>
</svg>
