<svg width="51" height="51" viewBox="0 0 51 51" fill="none" xmlns="http://www.w3.org/2000/svg">
<g filter="url(#filter0_d_1000_577)">
<circle cx="25.5" cy="21.5" r="21.5" fill="white"/>
</g>
<path d="M15.8332 14.25V31.9722C15.8257 32.2822 15.8794 32.5906 15.9911 32.8799C16.1029 33.1691 16.2705 33.4335 16.4844 33.6579C16.6984 33.8823 16.9545 34.0624 17.238 34.1878C17.5216 34.3132 17.8271 34.3816 18.1371 34.3889H32.8224C33.1358 34.3868 33.4456 34.3224 33.7339 34.1993C34.0221 34.0762 34.2829 33.897 34.5011 33.672C34.7193 33.4471 34.8906 33.1809 35.0048 32.8891C35.1191 32.5972 35.174 32.2855 35.1665 31.9722V14.25H15.8332ZM23.0832 30.3611H21.4721V18.2778H23.0832V30.3611ZM29.5277 30.3611H27.9165V18.2778H29.5277V30.3611Z" fill="#FF0000"/>
<path d="M35.7547 11.0278H29.5277V10.2222C29.5277 9.7949 29.358 9.38511 29.0558 9.08297C28.7537 8.78083 28.3439 8.61108 27.9166 8.61108H22.9222C22.5234 8.65116 22.1538 8.83844 21.8857 9.13634C21.6176 9.43425 21.4702 9.8214 21.4722 10.2222V11.0278H15.0277C14.8141 11.0278 14.6092 11.1126 14.4581 11.2637C14.307 11.4148 14.2222 11.6197 14.2222 11.8333C14.2222 12.047 14.307 12.2518 14.4581 12.4029C14.6092 12.554 14.8141 12.6389 15.0277 12.6389H35.7547C35.9683 12.6389 36.1732 12.554 36.3243 12.4029C36.4754 12.2518 36.5602 12.047 36.5602 11.8333C36.5602 11.6197 36.4754 11.4148 36.3243 11.2637C36.1732 11.1126 35.9683 11.0278 35.7547 11.0278Z" fill="#FF0000"/>
<defs>
<filter id="filter0_d_1000_577" x="0" y="0" width="51" height="51" filterUnits="userSpaceOnUse" color-interpolation-filters="sRGB">
<feFlood flood-opacity="0" result="BackgroundImageFix"/>
<feColorMatrix in="SourceAlpha" type="matrix" values="0 0 0 0 0 0 0 0 0 0 0 0 0 0 0 0 0 0 127 0" result="hardAlpha"/>
<feOffset dy="4"/>
<feGaussianBlur stdDeviation="2"/>
<feComposite in2="hardAlpha" operator="out"/>
<feColorMatrix type="matrix" values="0 0 0 0 0 0 0 0 0 0 0 0 0 0 0 0 0 0 0.25 0"/>
<feBlend mode="normal" in2="BackgroundImageFix" result="effect1_dropShadow_1000_577"/>
<feBlend mode="normal" in="SourceGraphic" in2="effect1_dropShadow_1000_577" result="shape"/>
</filter>
</defs>
</svg>
