<svg width="46" height="46" viewBox="0 0 46 46" fill="none" xmlns="http://www.w3.org/2000/svg">
<path d="M22.9996 0.777344C18.6044 0.777344 14.308 2.08065 10.6536 4.52246C6.99914 6.96427 4.15087 10.4349 2.46892 14.4955C0.786972 18.5561 0.346898 23.0242 1.20435 27.3349C2.0618 31.6456 4.17826 35.6052 7.28609 38.713C10.3939 41.8209 14.3535 43.9373 18.6642 44.7948C22.9749 45.6522 27.4431 45.2122 31.5037 43.5302C35.5642 41.8483 39.0349 39 41.4767 35.3456C43.9185 31.6911 45.2218 27.3947 45.2218 22.9996C45.2218 17.1059 42.8805 11.4536 38.7131 7.28608C34.5456 3.11861 28.8933 0.777344 22.9996 0.777344V0.777344ZM24.3885 42.3746V39.0135H21.6107V42.3746C16.9524 42.0365 12.5713 40.033 9.26873 36.7304C5.96612 33.4278 3.96262 29.0468 3.62458 24.3885H6.98569V21.6107H3.62458C3.96262 16.9523 5.96612 12.5713 9.26873 9.26872C12.5713 5.96611 16.9524 3.96261 21.6107 3.62457V6.98568H24.3885V3.62457C29.0468 3.96261 33.4278 5.96611 36.7304 9.26872C40.033 12.5713 42.0365 16.9523 42.3746 21.6107H39.0135V24.3885H42.3746C42.0365 29.0468 40.033 33.4278 36.7304 36.7304C33.4278 40.033 29.0468 42.0365 24.3885 42.3746V42.3746Z" fill="black"/>
</svg>
