<svg width="15" height="29" viewBox="0 0 15 29" fill="none" xmlns="http://www.w3.org/2000/svg">
<path d="M14.5676 21.3567C14.5676 22.5376 14.2657 23.6988 13.6907 24.7301C13.1157 25.7615 12.2866 26.6287 11.2822 27.2495C10.2777 27.8703 9.13123 28.224 7.95161 28.2771C6.77199 28.3302 5.59838 28.0808 4.54223 27.5527C3.48608 27.0247 2.58245 26.2354 1.91714 25.2598C1.25183 24.2843 0.846927 23.1549 0.740884 21.9789C0.63484 20.8028 0.831175 19.6192 1.31124 18.5404C1.79131 17.4615 2.53918 16.5234 3.48383 15.8149V4.73111C3.48383 3.62877 3.92174 2.57157 4.70121 1.79209C5.48069 1.01261 6.53789 0.574707 7.64024 0.574707C8.74258 0.574707 9.79978 1.01261 10.5793 1.79209C11.3587 2.57157 11.7966 3.62877 11.7966 4.73111V15.8149C13.4786 17.0784 14.5676 19.0901 14.5676 21.3567ZM10.1327 18.0302L9.02571 17.1989V4.73111C9.02571 4.36366 8.87974 4.01126 8.61991 3.75144C8.36008 3.49161 8.00769 3.34564 7.64024 3.34564C7.27279 3.34564 6.92039 3.49161 6.66056 3.75144C6.40074 4.01126 6.25477 4.36366 6.25477 4.73111V17.1989L5.14778 18.0302C4.44956 18.5534 3.93369 19.2831 3.67328 20.1158C3.41286 20.9486 3.42111 21.8422 3.69685 22.6699C3.97259 23.4977 4.50183 24.2178 5.20959 24.728C5.91735 25.2382 6.76773 25.5128 7.64024 25.5128C8.51274 25.5128 9.36312 25.2382 10.0709 24.728C10.7786 24.2178 11.3079 23.4977 11.5836 22.6699C11.8594 21.8422 11.8676 20.9486 11.6072 20.1158C11.3468 19.2831 10.8309 18.5534 10.1327 18.0302ZM7.64024 24.1277C6.90534 24.1277 6.20054 23.8357 5.68089 23.3161C5.16124 22.7964 4.8693 22.0916 4.8693 21.3567C4.8693 20.6218 5.16124 19.917 5.68089 19.3974C6.20054 18.8777 6.90534 18.5858 7.64024 18.5858C8.37513 18.5858 9.07993 18.8777 9.59958 19.3974C10.1192 19.917 10.4112 20.6218 10.4112 21.3567C10.4112 22.0916 10.1192 22.7964 9.59958 23.3161C9.07993 23.8357 8.37513 24.1277 7.64024 24.1277Z" fill="black"/>
</svg>
