<svg width="27" height="26" viewBox="0 0 27 26" fill="none" xmlns="http://www.w3.org/2000/svg">
<mask id="mask0_877_562" style="mask-type:alpha" maskUnits="userSpaceOnUse" x="0" y="0" width="27" height="26">
<path d="M19.2422 3.04985C17.5213 2.05103 15.5664 1.52636 13.5766 1.52931C7.33279 1.52931 2.27148 6.59062 2.27148 12.8344C2.27148 19.0783 7.33279 24.1396 13.5766 24.1396C19.8204 24.1396 24.8817 19.0783 24.8817 12.8344C24.8817 10.7843 24.3357 8.86069 23.3816 7.20335" stroke="white" stroke-width="2.80679" stroke-linecap="round" stroke-linejoin="round"/>
<path d="M18.0681 8.34033C18.0681 8.34033 16.153 13.4531 15.2701 14.336C14.846 14.76 14.2709 14.9983 13.6712 14.9983C13.0716 14.9983 12.4964 14.76 12.0724 14.336C11.6484 13.912 11.4102 13.3369 11.4102 12.7372C11.4102 12.1375 11.6484 11.5624 12.0724 11.1384C12.9553 10.2554 18.0681 8.34033 18.0681 8.34033Z" fill="white" stroke="white" stroke-width="2.80679" stroke-linejoin="round"/>
</mask>
<g mask="url(#mask0_877_562)">
<path d="M0.00976562 -0.731445H27.1421V26.4009H0.00976562V-0.731445Z" fill="black"/>
</g>
</svg>
