<svg width="37" height="36" viewBox="0 0 37 36" fill="none" xmlns="http://www.w3.org/2000/svg">
<path d="M4.50293 16.3636C7.31988 14.8069 6.1338 11.99 9.98857 11.2487C12.7314 10.7297 13.9916 12.3606 14.4364 13.9174C17.2533 23.4802 21.4788 22.2941 24.5922 19.8478C26.4455 18.3652 28.8177 19.3289 29.3366 22.2199C29.9296 25.4075 31.4122 25.2593 31.857 25.4075" stroke="#3F8DFD" stroke-width="3.1933" stroke-linecap="round" stroke-linejoin="round"/>
<path d="M5.98554 31.709H30.4485C30.8417 31.709 31.2188 31.5528 31.4969 31.2747C31.7749 30.9967 31.9311 30.6196 31.9311 30.2264V5.76337C31.9311 5.37016 31.7749 4.99305 31.4969 4.71501C31.2188 4.43696 30.8417 4.28076 30.4485 4.28076H5.98554C5.59232 4.28076 5.21522 4.43696 4.93717 4.71501C4.65913 4.99305 4.50293 5.37016 4.50293 5.76337V30.2264C4.50293 30.6196 4.65913 30.9967 4.93717 31.2747C5.21522 31.5528 5.59232 31.709 5.98554 31.709Z" stroke="#3F8DFD" stroke-width="3.1933" stroke-linecap="round" stroke-linejoin="round"/>
</svg>
