<svg width="46" height="46" viewBox="0 0 46 46" fill="none" xmlns="http://www.w3.org/2000/svg">
<path d="M13.6761 34.1791C11.3282 34.1791 9.07642 33.287 7.41619 31.6989C5.75595 30.1109 4.82324 27.957 4.82324 25.7112C4.82324 23.4653 5.75595 21.3115 7.41619 19.7234C9.07642 18.1354 11.3282 17.2432 13.6761 17.2432C14.2306 14.7728 15.8529 12.6018 18.1859 11.2079C19.3411 10.5176 20.6361 10.039 21.9969 9.79917C23.3576 9.55937 24.7575 9.56313 26.1167 9.81025C27.4758 10.0574 28.7676 10.543 29.9182 11.2394C31.0688 11.9358 32.0557 12.8294 32.8227 13.8691C33.5896 14.9088 34.1214 16.0742 34.3879 17.2989C34.6543 18.5236 34.6501 19.7835 34.3756 21.0068H36.2573C38.0041 21.0068 39.6793 21.7007 40.9145 22.9358C42.1496 24.171 42.8435 25.8462 42.8435 27.593C42.8435 29.3397 42.1496 31.0149 40.9145 32.2501C39.6793 33.4852 38.0041 34.1791 36.2573 34.1791M21.2032 24.7703V28.5338M21.2032 34.1791V37.9427M28.7303 28.5338V32.2974M28.7303 37.9427V41.7062" stroke="#3F8DFD" stroke-width="3.1933" stroke-linecap="round" stroke-linejoin="round"/>
</svg>
