<svg width="35" height="25" viewBox="0 0 35 25" fill="none" xmlns="http://www.w3.org/2000/svg">
<path d="M16.7735 1.27464C16.8695 1.17845 16.9834 1.10214 17.1089 1.05007C17.2344 0.997994 17.3689 0.971191 17.5048 0.971191C17.6407 0.971191 17.7752 0.997994 17.9007 1.05007C18.0261 1.10214 18.1401 1.17845 18.2361 1.27464L21.3347 4.3733C21.4308 4.46933 21.5069 4.58334 21.5589 4.70881C21.6109 4.83429 21.6376 4.96877 21.6376 5.10458C21.6376 5.24039 21.6109 5.37487 21.5589 5.50035C21.5069 5.62582 21.4308 5.73983 21.3347 5.83586C21.2387 5.93189 21.1247 6.00807 20.9992 6.06005C20.8737 6.11202 20.7393 6.13877 20.6035 6.13877C20.4676 6.13877 20.3332 6.11202 20.2077 6.06005C20.0822 6.00807 19.9682 5.93189 19.8722 5.83586L18.5377 4.49931V8.20323C18.5377 8.47717 18.4289 8.73989 18.2352 8.93359C18.0415 9.1273 17.7787 9.23612 17.5048 9.23612C17.2309 9.23612 16.9681 9.1273 16.7744 8.93359C16.5807 8.73989 16.4719 8.47717 16.4719 8.20323V4.49931L15.1374 5.83586C15.0414 5.93189 14.9274 6.00807 14.8019 6.06005C14.6764 6.11202 14.5419 6.13877 14.4061 6.13877C14.2703 6.13877 14.1358 6.11202 14.0104 6.06005C13.8849 6.00807 13.7709 5.93189 13.6749 5.83586C13.5788 5.73983 13.5026 5.62582 13.4507 5.50035C13.3987 5.37487 13.3719 5.24039 13.3719 5.10458C13.3719 4.96877 13.3987 4.83429 13.4507 4.70881C13.5026 4.58334 13.5788 4.46933 13.6749 4.3733L16.7735 1.27464ZM5.81873 7.87891C6.01242 7.68527 6.27509 7.57649 6.54898 7.57649C6.82286 7.57649 7.08553 7.68527 7.27923 7.87891L10.2002 10.7999C10.3884 10.9947 10.4925 11.2556 10.4901 11.5264C10.4878 11.7973 10.3792 12.0563 10.1876 12.2478C9.99614 12.4393 9.73708 12.548 9.46626 12.5503C9.19544 12.5527 8.93453 12.4486 8.73973 12.2604L5.81873 9.33941C5.62509 9.14571 5.51631 8.88304 5.51631 8.60916C5.51631 8.33527 5.62509 8.0726 5.81873 7.87891ZM29.1909 7.87891C29.3845 8.0726 29.4933 8.33527 29.4933 8.60916C29.4933 8.88304 29.3845 9.14571 29.1909 9.33941L26.2699 12.2604C26.1746 12.3591 26.0606 12.4377 25.9346 12.4919C25.8086 12.546 25.673 12.5745 25.5359 12.5757C25.3987 12.5769 25.2627 12.5508 25.1358 12.4988C25.0089 12.4469 24.8935 12.3702 24.7966 12.2732C24.6996 12.1762 24.6229 12.0609 24.5709 11.934C24.519 11.807 24.4929 11.671 24.4941 11.5339C24.4953 11.3967 24.5238 11.2612 24.5779 11.1352C24.632 11.0092 24.7107 10.8952 24.8094 10.7999L27.7304 7.87891C27.9241 7.68527 28.1867 7.57649 28.4606 7.57649C28.7345 7.57649 28.9972 7.68527 29.1909 7.87891ZM17.5048 13.3677C18.5928 13.3673 19.6617 13.6534 20.6041 14.1972C21.5465 14.741 22.3291 15.5233 22.8733 16.4655C23.4174 17.4077 23.7039 18.4765 23.704 19.5645C23.7041 20.6525 23.4177 21.7214 22.8737 22.6636H12.1338C11.5897 21.7212 11.3033 20.6522 11.3035 19.564C11.3037 18.4758 11.5904 17.4068 12.1348 16.4646C12.6792 15.5224 13.4621 14.7401 14.4047 14.1965C15.3474 13.6528 16.4166 13.367 17.5048 13.3677ZM25.1688 22.6636C25.6753 21.4094 25.8661 20.05 25.7246 18.7048C25.583 17.3595 25.1133 16.0696 24.3569 14.9483C23.6004 13.827 22.5802 12.9085 21.3858 12.2735C20.1915 11.6386 18.8595 11.3065 17.5069 11.3065C16.1542 11.3065 14.8222 11.6386 13.6279 12.2735C12.4336 12.9085 11.4134 13.827 10.6569 14.9483C9.90037 16.0696 9.43073 17.3595 9.28916 18.7048C9.14759 20.05 9.33843 21.4094 9.84492 22.6636H2.00945C1.73551 22.6636 1.47279 22.7724 1.27909 22.9662C1.08538 23.1599 0.976563 23.4226 0.976562 23.6965C0.976563 23.9704 1.08538 24.2332 1.27909 24.4269C1.47279 24.6206 1.73551 24.7294 2.00945 24.7294H32.996C33.2699 24.7294 33.5327 24.6206 33.7264 24.4269C33.9201 24.2332 34.0289 23.9704 34.0289 23.6965C34.0289 23.4226 33.9201 23.1599 33.7264 22.9662C33.5327 22.7724 33.2699 22.6636 32.996 22.6636H25.1667H25.1688ZM0.978628 19.565C0.978628 19.291 1.08745 19.0283 1.28115 18.8346C1.47486 18.6409 1.73758 18.5321 2.01151 18.5321H6.14305C6.41699 18.5321 6.67971 18.6409 6.87341 18.8346C7.06712 19.0283 7.17594 19.291 7.17594 19.565C7.17594 19.8389 7.06712 20.1016 6.87341 20.2953C6.67971 20.489 6.41699 20.5979 6.14305 20.5979H2.01151C1.73758 20.5979 1.47486 20.489 1.28115 20.2953C1.08745 20.1016 0.978628 19.8389 0.978628 19.565ZM27.8336 19.565C27.8336 19.291 27.9425 19.0283 28.1362 18.8346C28.3299 18.6409 28.5926 18.5321 28.8665 18.5321H32.9981C33.272 18.5321 33.5347 18.6409 33.7284 18.8346C33.9221 19.0283 34.031 19.291 34.031 19.565C34.031 19.8389 33.9221 20.1016 33.7284 20.2953C33.5347 20.489 33.272 20.5979 32.9981 20.5979H28.8665C28.5926 20.5979 28.3299 20.489 28.1362 20.2953C27.9425 20.1016 27.8336 19.8389 27.8336 19.565Z" fill="white" fill-opacity="0.7"/>
</svg>
