<svg width="35" height="25" viewBox="0 0 35 25" fill="none" xmlns="http://www.w3.org/2000/svg">
<path d="M16.7735 8.6441C16.8695 8.74029 16.9834 8.8166 17.1089 8.86867C17.2344 8.92074 17.3689 8.94755 17.5048 8.94755C17.6407 8.94755 17.7752 8.92074 17.9007 8.86867C18.0261 8.8166 18.1401 8.74029 18.2361 8.6441L21.3347 5.54544C21.4308 5.44941 21.5069 5.3354 21.5589 5.20993C21.6109 5.08445 21.6376 4.94997 21.6376 4.81416C21.6376 4.67835 21.6109 4.54386 21.5589 4.41839C21.5069 4.29292 21.4308 4.17891 21.3347 4.08288C21.2387 3.98684 21.1247 3.91066 20.9992 3.85869C20.8737 3.80672 20.7393 3.77997 20.6035 3.77997C20.4676 3.77997 20.3332 3.80672 20.2077 3.85869C20.0822 3.91066 19.9682 3.98684 19.8722 4.08288L18.5377 5.41943V1.7155C18.5377 1.44156 18.4289 1.17885 18.2352 0.985142C18.0415 0.791439 17.7787 0.682617 17.5048 0.682617C17.2309 0.682617 16.9681 0.791439 16.7744 0.985142C16.5807 1.17885 16.4719 1.44156 16.4719 1.7155V5.41943L15.1374 4.08288C15.0414 3.98684 14.9274 3.91066 14.8019 3.85869C14.6764 3.80672 14.5419 3.77997 14.4061 3.77997C14.2703 3.77997 14.1358 3.80672 14.0104 3.85869C13.8849 3.91066 13.7709 3.98684 13.6749 4.08288C13.5788 4.17891 13.5026 4.29292 13.4507 4.41839C13.3987 4.54386 13.3719 4.67835 13.3719 4.81416C13.3719 4.94997 13.3987 5.08445 13.4507 5.20993C13.5026 5.3354 13.5788 5.44941 13.6749 5.54544L16.7735 8.6441ZM5.81873 7.59055C6.01242 7.39692 6.27509 7.28814 6.54898 7.28814C6.82286 7.28814 7.08553 7.39692 7.27923 7.59055L10.2002 10.5095C10.3884 10.7043 10.4925 10.9652 10.4901 11.236C10.4878 11.5068 10.3792 11.7659 10.1876 11.9574C9.99614 12.1489 9.73708 12.2575 9.46626 12.2599C9.19544 12.2622 8.93453 12.1581 8.73973 11.97L5.81873 9.04899C5.62509 8.85529 5.51631 8.59262 5.51631 8.31874C5.51631 8.04485 5.62509 7.78218 5.81873 7.58849V7.59055ZM29.1909 7.59055C29.3839 7.78416 29.4922 8.04639 29.4922 8.31977C29.4922 8.59315 29.3839 8.85538 29.1909 9.04899L26.2699 11.97C26.1746 12.0686 26.0606 12.1473 25.9346 12.2015C25.8086 12.2556 25.673 12.2841 25.5359 12.2853C25.3987 12.2865 25.2627 12.2603 25.1358 12.2084C25.0089 12.1565 24.8935 12.0798 24.7966 11.9828C24.6996 11.8858 24.6229 11.7705 24.5709 11.6435C24.519 11.5166 24.4929 11.3806 24.4941 11.2435C24.4953 11.1063 24.5238 10.9708 24.5779 10.8448C24.632 10.7187 24.7107 10.6048 24.8094 10.5095L27.7304 7.58849C27.9241 7.39485 28.1867 7.28607 28.4606 7.28607C28.7345 7.28607 28.9972 7.39485 29.1909 7.58849V7.59055ZM17.5048 13.0772C18.5928 13.0769 19.6617 13.363 20.6041 13.9068C21.5465 14.4506 22.3291 15.2329 22.8733 16.1751C23.4174 17.1172 23.7039 18.1861 23.704 19.2741C23.7041 20.3621 23.4177 21.431 22.8737 22.3732H12.1338C11.5897 21.4308 11.3033 20.3618 11.3035 19.2736C11.3037 18.1854 11.5904 17.1164 12.1348 16.1742C12.6792 15.2319 13.4621 14.4497 14.4047 13.906C15.3474 13.3624 16.4166 13.0765 17.5048 13.0772ZM25.1688 22.3732C25.6753 21.119 25.8661 19.7596 25.7246 18.4143C25.583 17.0691 25.1133 15.7792 24.3569 14.6579C23.6004 13.5366 22.5802 12.6181 21.3858 11.9831C20.1915 11.3481 18.8595 11.0161 17.5069 11.0161C16.1542 11.0161 14.8222 11.3481 13.6279 11.9831C12.4336 12.6181 11.4134 13.5366 10.6569 14.6579C9.90037 15.7792 9.43073 17.0691 9.28916 18.4143C9.14759 19.7596 9.33843 21.119 9.84492 22.3732H2.00945C1.73551 22.3732 1.47279 22.482 1.27909 22.6757C1.08538 22.8694 0.976563 23.1322 0.976562 23.4061C0.976563 23.68 1.08538 23.9428 1.27909 24.1365C1.47279 24.3302 1.73551 24.439 2.00945 24.439H32.996C33.2699 24.439 33.5327 24.3302 33.7264 24.1365C33.9201 23.9428 34.0289 23.68 34.0289 23.4061C34.0289 23.1322 33.9201 22.8694 33.7264 22.6757C33.5327 22.482 33.2699 22.3732 32.996 22.3732H25.1667H25.1688ZM0.978628 19.2746C0.978628 19.0006 1.08745 18.7379 1.28115 18.5442C1.47486 18.3505 1.73758 18.2417 2.01151 18.2417H6.14305C6.41699 18.2417 6.67971 18.3505 6.87341 18.5442C7.06712 18.7379 7.17594 19.0006 7.17594 19.2746C7.17594 19.5485 7.06712 19.8112 6.87341 20.0049C6.67971 20.1986 6.41699 20.3074 6.14305 20.3074H2.01151C1.73758 20.3074 1.47486 20.1986 1.28115 20.0049C1.08745 19.8112 0.978628 19.5485 0.978628 19.2746ZM27.8336 19.2746C27.8336 19.0006 27.9425 18.7379 28.1362 18.5442C28.3299 18.3505 28.5926 18.2417 28.8665 18.2417H32.9981C33.272 18.2417 33.5347 18.3505 33.7284 18.5442C33.9221 18.7379 34.031 19.0006 34.031 19.2746C34.031 19.5485 33.9221 19.8112 33.7284 20.0049C33.5347 20.1986 33.272 20.3074 32.9981 20.3074H28.8665C28.5926 20.3074 28.3299 20.1986 28.1362 20.0049C27.9425 19.8112 27.8336 19.5485 27.8336 19.2746Z" fill="white" fill-opacity="0.7"/>
</svg>
