<svg width="38" height="31" viewBox="0 0 38 31" fill="none" xmlns="http://www.w3.org/2000/svg">
<path d="M28.6516 8.21856C29.1523 7.73641 29.7631 7.38357 30.4309 7.19061C31.0987 6.99765 31.8035 6.97038 32.4842 7.11116C33.165 7.25194 33.8011 7.55653 34.3376 7.99855C34.8741 8.44057 35.2948 9.00671 35.5632 9.64793C35.8316 10.2892 35.9397 10.9861 35.8781 11.6785C35.8165 12.3709 35.587 13.0379 35.2095 13.6216C34.8321 14.2054 34.318 14.6883 33.7119 15.0286C33.1058 15.369 32.4258 15.5564 31.7309 15.5747H1.79297M14.7946 2.91527C15.1909 2.51103 15.6814 2.21145 16.222 2.04339C16.7626 1.87533 17.3365 1.84405 17.8921 1.95234C18.4478 2.06062 18.9679 2.3051 19.4059 2.66386C19.8438 3.02261 20.1859 3.48443 20.4015 4.00791C20.617 4.5314 20.6993 5.10019 20.641 5.6633C20.5826 6.22641 20.3854 6.76625 20.0671 7.23441C19.7488 7.70257 19.3193 8.08444 18.8171 8.34577C18.3149 8.6071 17.7557 8.73974 17.1896 8.73179H1.79297M19.9268 28.2342C20.3232 28.6385 20.8136 28.938 21.3542 29.1061C21.8948 29.2742 22.4687 29.3054 23.0244 29.1972C23.58 29.0889 24.1002 28.8444 24.5381 28.4856C24.9761 28.1269 25.3181 27.6651 25.5337 27.1416C25.7492 26.6181 25.8315 26.0493 25.7732 25.4862C25.7148 24.9231 25.5177 24.3833 25.1993 23.9151C24.881 23.4469 24.4515 23.0651 23.9493 22.8037C23.4471 22.5424 22.8879 22.4098 22.3219 22.4177H1.79297" stroke="#3F8DFD" stroke-width="3.42148" stroke-linecap="round" stroke-linejoin="round"/>
</svg>
